SplineFontDB: 3.0
FontName: Exo-LightItalic
FullName: Exo Light Italic
FamilyName: Exo
Weight: Light
Copyright: Copyright (c) 2011 Natanael Gama (exo@ndiscovered.com), with Reserved Font Name "Exo"
Version: 1.00
ItalicAngle: 0
UnderlinePosition: -50
UnderlineWidth: 50
Ascent: 800
Descent: 200
sfntRevision: 0x00010000
LayerCount: 2
Layer: 0 0 "Back"  1
Layer: 1 0 "Fore"  0
XUID: [1021 762 1116966003 10762274]
FSType: 8
OS2Version: 0
OS2_WeightWidthSlopeOnly: 0
OS2_UseTypoMetrics: 1
CreationTime: 1317846600
ModificationTime: 1325018160
PfmFamily: 33
TTFWeight: 200
TTFWidth: 5
LineGap: 90
VLineGap: 0
OS2TypoAscent: 0
OS2TypoAOffset: 1
OS2TypoDescent: 0
OS2TypoDOffset: 1
OS2TypoLinegap: 90
OS2WinAscent: 0
OS2WinAOffset: 1
OS2WinDescent: 0
OS2WinDOffset: 1
HheadAscent: 0
HheadAOffset: 1
HheadDescent: 0
HheadDOffset: 1
OS2Vendor: 'PfEd'
Lookup: 1 0 0 "'smcp' Lowercase to Small Capitals lookup 16"  {"'smcp' Lowercase to Small Capitals lookup 16-1" ("smcp" ) } ['smcp' ('DFLT' <'dflt' > 'grek' <'dflt' > 'latn' <'FRA ' 'dflt' > ) ]
Lookup: 1 0 0 "'c2sc' Capitals to Small Capitals in Latin lookup 17"  {"'c2sc' Capitals to Small Capitals in Latin lookup 17 subtable" ("smcp" ) } ['c2sc' ('latn' <'dflt' > ) ]
Lookup: 4 0 0 "'dlig' Discretionary Ligatures lookup 14"  {"'dlig' Discretionary Ligatures lookup 14-1"  } ['dlig' ('DFLT' <'dflt' > 'grek' <'dflt' > 'latn' <'dflt' > ) ]
Lookup: 4 0 1 "'liga' Standard Ligatures lookup 15"  {"'liga' Standard Ligatures lookup 15-1"  } ['liga' ('DFLT' <'dflt' > 'grek' <'dflt' > 'latn' <'FRA ' 'dflt' > ) ]
Lookup: 1 0 0 "'frac' Diagonal Fractions lookup 13"  {"'frac' Diagonal Fractions lookup 13-1"  } ['frac' ('DFLT' <'dflt' > 'grek' <'dflt' > 'latn' <'FRA ' 'dflt' > ) ]
Lookup: 1 0 0 "'frac' Diagonal Fractions lookup 12"  {"'frac' Diagonal Fractions lookup 12-1"  } ['frac' ('DFLT' <'dflt' > 'grek' <'dflt' > 'latn' <'FRA ' 'dflt' > ) ]

StartChar: a
Encoding: 67 97 0
Width: 542
VWidth: 0
Flags: HW
LayerCount: 2
Fore
SplineSet
143.84 249.35 m 0
 121.51 108.05 152.79 50.17 241.35 50.17 c 0
 321.65 50.17 372.27 72.8 440.27 101.8 c 1
 494.25 459.92 l 1
 444.48 476.58 371.83 493.82 312.35 484.17 c 0
 230.19 470.85 174.51 440.68 143.84 249.35 c 0
90 278.33 m 0
 127.32 498.96 225.32 531 307.32 541 c 0
 377.32 550 503.09 528 554.09 479 c 1
 484.09 0 l 1
 443.96 0 l 1
 436.92 60 l 1
 407.92 41 320.99 -7 243.99 -7 c 0
 129.99 -7 49.67 39.64 90 278.33 c 0
EndSplineSet
AlternateSubs2: "'salt' Access All Alternates in Latin lookup 4-1" a.salt
Substitution2: "'smcp' Lowercase to Small Capitals lookup 16-1" a.smcp
EndChar

StartChar: z
Encoding: 92 122 1
Width: 453
VWidth: 0
Flags: HW
LayerCount: 2
Fore
SplineSet
45 1 m 1
 52.35 58.5 l 1
 423.09 473.5 l 1
 105.98 473.5 l 1
 114 531 l 1
 510 531 l 1
 501.98 473.5 l 1
 134.93 58.5 l 1
 434.69 58.5 l 1
 435.69 57.5 426 1 426 1 c 1
 45 1 l 1
EndSplineSet
Substitution2: "'smcp' Lowercase to Small Capitals lookup 16-1" z.smcp
EndChar

StartChar: e
Encoding: 71 101 2
Width: 528
VWidth: 0
Flags: HW
LayerCount: 2
Fore
SplineSet
144.85 274.4 m 1
 144.85 274.4 456.9 230.86 480.56 388 c 0
 492.89 467.91 442.29 483.5 348.34 483.5 c 0
 176.47 483.5 167.15 383.22 144.85 274.4 c 1
88.34 278 m 0
 117.69 437.37 153.38 541 348.38 541 c 0
 474.38 541 553.39 504 538.39 388 c 0
 510.39 169 175.83 218.6 138.83 233.6 c 1
 118.16 100.03 137.16 49.82 220.04 48.49 c 1
 296.37 44.14 387.41 53.8 465.41 64.8 c 1
 459.06 22 l 1
 375.06 -1 297.67 -7 214.67 -7 c 0
 86.67 -7 53.33 84 88.34 278 c 0
EndSplineSet
Substitution2: "'smcp' Lowercase to Small Capitals lookup 16-1" e.smcp
EndChar

StartChar: o
Encoding: 81 111 3
Width: 562
VWidth: 0
Flags: HW
HStem: -5 57.5<179.256 399.279> 478.5 57.5<240.061 456.004>
LayerCount: 2
Fore
SplineSet
147.16 258 m 0
 116.84 73.13 175.48 52.5 286.4 52.5 c 0
 398.99 52.5 459.6 74.09 490.26 258 c 0
 520.91 444.18 472.01 478.5 353.69 478.5 c 0
 239.05 478.5 180.14 457.84 147.16 258 c 0
89.66 260.31 m 0
 123.66 477.31 191.65 536 360.7 536 c 0
 530.35 536 578.43 442.69 547.76 255.69 c 0
 515.42 59.68 456.77 -5 284.08 -5 c 0
 110.76 -5 59.66 70.31 89.66 260.31 c 0
EndSplineSet
Substitution2: "'smcp' Lowercase to Small Capitals lookup 16-1" o.smcp
EndChar

StartChar: c
Encoding: 69 99 5
Width: 494
VWidth: 0
Flags: HW
LayerCount: 2
Fore
SplineSet
89.33 268.31 m 0
 131.02 514.38 210.69 537.34 307.33 537.34 c 0
 359.33 537.34 455.4 523.33 520.76 510 c 1
 514.41 469.2 l 1
 514.41 469.2 386.97 479.84 297.97 479.84 c 0
 228.41 479.84 181.17 463.26 145.83 262 c 0
 116.85 94.19 158.09 51.16 230.02 51.16 c 0
 322.02 51.16 457.45 65.46 457.45 65.46 c 1
 450.76 22.66 l 1
 365.76 -0.34 310.36 -6.01 227.36 -5.67 c 0
 126.35 -5 53.67 56.75 89.33 268.31 c 0
EndSplineSet
Substitution2: "'smcp' Lowercase to Small Capitals lookup 16-1" c.smcp
EndChar

StartChar: d
Encoding: 70 100 6
Width: 541
VWidth: 0
Flags: HW
LayerCount: 2
Fore
SplineSet
146.5 263 m 0
 122.86 120.19 163.05 51.5 235.99 51.5 c 0
 314.99 51.5 380.66 76.82 437.66 100.47 c 1
 493.61 454.18 l 1
 427.61 472.18 379.6 481.5 302.6 481.5 c 0
 234.68 481.5 175.48 441.18 146.5 263 c 0
89 265.64 m 0
 111.67 405.66 159.97 539 310.97 539 c 0
 355.97 539 441.3 525 501.3 499 c 1
 546.97 785 l 1
 602.47 785 l 1
 477.8 0 l 1
 438 0 l 1
 430.97 59 l 1
 401.64 38.35 300.34 -6 232.34 -6 c 0
 90.69 -6 69.33 143.64 89 265.64 c 0
EndSplineSet
AlternateSubs2: "'salt' Access All Alternates in Latin lookup 4-1" d.salt
Substitution2: "'smcp' Lowercase to Small Capitals lookup 16-1" d.smcp
EndChar

StartChar: A
Encoding: 35 65 7
Width: 654
VWidth: 0
Flags: HW
HStem: 0 21G<45 119.1 573.028 635.1> 0 21G<45 119.1 573.028 635.1> 220.17 57.5<255.51 522.94> 712 20G<421.086 496.348>
DStem2: 45 0 108.51 0 0.467058 0.884227<29.6628 278.793 343.844 769.186> 492.45 732 452.35 654.73 0.191279 -0.981536<68.173 451.773 510.321 734.643>
LayerCount: 2
Fore
SplineSet
255.51 277.67 m 1
 522.94 277.67 l 1
 452.35 654.73 l 1
 255.51 277.67 l 1
45 0 m 1
 431.65 732 l 1
 492.45 732 l 1
 635.1 0 l 1
 576.93 0 l 1
 533.97 220.17 l 1
 225.09 220.17 l 1
 108.51 0 l 1
 45 0 l 1
EndSplineSet
Substitution2: "'c2sc' Capitals to Small Capitals in Latin lookup 17 subtable" a.smcp
EndChar

StartChar: p
Encoding: 82 112 8
Width: 548
VWidth: 0
Flags: HW
LayerCount: 2
Fore
SplineSet
130.53 75.15 m 1
 187.08 58.17 249.52 41.47 323.52 50.18 c 1
 398.61 56.21 455.3 98.29 481.97 264.65 c 0
 505.31 410.36 468.92 477.49 387.78 477.49 c 2
 196.49 477.49 l 1
 130.53 75.15 l 1
17 -270 m 1
 148.02 522.98 l 1
 221.8 532.32 305.2 534.99 392.44 534.99 c 0
 544.24 534.99 558.43 389.47 539.47 255.64 c 0
 519.16 112.38 460.45 -8.66 319.51 -8.66 c 0
 274.51 -8.66 182.17 3 122.17 29 c 1
 73.83 -270 l 1
 17 -270 l 1
EndSplineSet
AlternateSubs2: "'salt' Access All Alternates in Latin lookup 4-1" p.salt
Substitution2: "'smcp' Lowercase to Small Capitals lookup 16-1" p.smcp
EndChar

StartChar: b
Encoding: 68 98 9
Width: 551
VWidth: 0
Flags: HW
LayerCount: 2
Fore
SplineSet
132.52 100.47 m 1
 182.86 76.82 241.86 51.5 320.86 51.5 c 0
 399.16 51.5 453.33 121.16 475.3 263 c 0
 497.92 413.06 475.82 481.5 388.47 481.5 c 0
 311.47 481.5 260.81 472.18 188.81 454.18 c 1
 132.52 100.47 l 1
60 0 m 1
 184 785 l 1
 239.5 785 l 1
 194.5 499 l 1
 262.5 525 349.47 539 394.47 539 c 0
 550.16 539 553.46 385.3 532.8 260.69 c 0
 512.46 139.36 469.55 -12.7 312.49 -6 c 0
 244.49 -3.32 148.17 38.35 125.5 59 c 1
 99.8 0 l 1
 60 0 l 1
EndSplineSet
AlternateSubs2: "'salt' Access All Alternates in Latin lookup 4-1" b.salt
Substitution2: "'smcp' Lowercase to Small Capitals lookup 16-1" b.smcp
EndChar

StartChar: q
Encoding: 83 113 10
Width: 552
VWidth: 0
Flags: HW
LayerCount: 2
Fore
SplineSet
148.83 268 m 0
 130.2 139.83 127.74 47.5 241.02 47.5 c 0
 315.02 47.5 350.97 53.48 436.97 74.48 c 1
 500.92 479.5 l 1
 309.3 479.5 l 2
 202.7 479.5 162.12 355.42 148.83 268 c 0
91.33 270.97 m 0
 118.33 438.97 191.32 537 318.33 537 c 0
 424.33 537 517.78 523.61 564.44 518.29 c 1
 439.78 -270 l 1
 382.28 -270 l 1
 429.28 29 l 1
 361.28 3 282.36 -10 237.36 -10 c 0
 84.36 -10 66.33 112.97 91.33 270.97 c 0
EndSplineSet
Substitution2: "'smcp' Lowercase to Small Capitals lookup 16-1" q.smcp
EndChar

StartChar: n
Encoding: 80 110 11
Width: 542
VWidth: 0
Flags: HW
LayerCount: 2
Fore
SplineSet
60 0 m 1
 144 531 l 1
 183.46 531 l 1
 191.5 469 l 1
 257.84 504.99 325.1 540 406.1 540 c 0
 512.1 540 557.1 458 543.1 370 c 2
 484.1 0 l 1
 426.6 0 l 1
 485.6 370 l 2
 496.59 440.29 460.28 482.5 396.74 482.5 c 0
 314.1 482.5 266.82 462.17 184.81 424.18 c 1
 117.5 0 l 1
 60 0 l 1
EndSplineSet
AlternateSubs2: "'salt' Access All Alternates in Latin lookup 4-1" n.salt
Substitution2: "'smcp' Lowercase to Small Capitals lookup 16-1" n.smcp
EndChar

StartChar: i
Encoding: 75 105 12
Width: 178
VWidth: 0
Flags: HW
LayerCount: 2
Fore
SplineSet
149.63 624.58 m 2
 156.97 674.62 l 2
 158.64 687.31 166.99 695.33 180.35 695.33 c 2
 217.81 695.33 l 2
 230.5 695.33 235.18 686.31 233.51 674.62 c 2
 226.17 624.58 l 2
 224.5 611.89 215.15 605.21 203.46 605.21 c 2
 166.33 605.21 l 2
 154.64 605.21 147.96 612.89 149.63 624.58 c 2
60 0 m 1
 144 531 l 1
 201.5 531 l 1
 117.5 0 l 1
 60 0 l 1
EndSplineSet
Substitution2: "'smcp' Lowercase to Small Capitals lookup 16-1" i.smcp
EndChar

StartChar: h
Encoding: 74 104 13
Width: 542
VWidth: 0
Flags: HW
LayerCount: 2
Fore
SplineSet
60 0 m 1
 184 784 l 1
 241.5 784 l 1
 191.5 469 l 1
 257.84 504.99 326.09 540 407.09 540 c 0
 513.09 540 557.1 458 543.1 370 c 2
 484.1 0 l 1
 426.6 0 l 1
 485.6 370 l 2
 496.59 441.94 460.95 482.5 396.74 482.5 c 0
 314.1 482.5 266.82 462.17 184.81 424.18 c 1
 117.5 0 l 1
 60 0 l 1
EndSplineSet
Substitution2: "'smcp' Lowercase to Small Capitals lookup 16-1" h.smcp
EndChar

StartChar: u
Encoding: 87 117 14
Width: 541
VWidth: 0
Flags: HW
LayerCount: 2
Fore
SplineSet
75.67 161.33 m 2
 134 531.33 l 1
 191.5 531.33 l 1
 133.17 161.33 l 2
 120.84 84.34 158.49 48.83 222.03 48.83 c 0
 304.67 48.83 351.95 69.16 433.96 107.15 c 1
 500.6 531.33 l 1
 558.1 531.33 l 1
 474.1 0.33 l 1
 434.64 0.33 l 1
 426.6 62.33 l 1
 360.26 26.34 294 -8.67 213 -8.67 c 0
 107 -8.67 61 68.64 75.67 161.33 c 2
EndSplineSet
AlternateSubs2: "'salt' Access All Alternates in Latin lookup 4-1" u.salt
Substitution2: "'smcp' Lowercase to Small Capitals lookup 16-1" u.smcp
EndChar

StartChar: r
Encoding: 84 114 15
Width: 415
VWidth: 0
Flags: HW
HStem: 0 21G<60 120.663> 0 21G<60 120.663> 478.83 58.17<297.794 472.523>
VStem: 144 39.48<486.75 531>
LayerCount: 2
Fore
SplineSet
60 0 m 1
 144 531 l 1
 182.8 531 l 1
 190.5 464 l 1
 257.5 499 322.46 537 407.1 537 c 0
 436.1 537 466.46 535.33 480.1 529 c 1
 470.74 472.5 l 1
 455.11 476.16 426.74 478.83 397.74 478.83 c 0
 314.77 478.83 266.48 454.2 183.48 417.2 c 1
 117.5 0 l 1
 60 0 l 1
EndSplineSet
AlternateSubs2: "'salt' Access All Alternates in Latin lookup 4-1" r.salt
Substitution2: "'smcp' Lowercase to Small Capitals lookup 16-1" r.smcp
EndChar

StartChar: m
Encoding: 79 109 16
Width: 905
VWidth: 0
Flags: HW
LayerCount: 2
Fore
SplineSet
60 0 m 1
 144 531 l 1
 183.46 531 l 1
 191.5 467.66 l 1
 257.84 503.65 318.4 537.99 400.74 537.99 c 0
 463.38 537.99 513.75 501.98 529.74 453.31 c 1
 588.41 494.99 676.29 537.99 767.68 537.99 c 0
 859.61 537.99 920.02 464.7 904.68 367.32 c 2
 846.35 0 l 1
 788.85 0 l 1
 847.18 367.32 l 2
 857.5 432.92 819.85 480.49 758.32 480.49 c 0
 674.99 480.49 615.43 461.22 541.11 419.87 c 1
 543.42 411.95 539.73 374.89 538.41 365.98 c 2
 480.08 0 l 1
 422.58 0 l 1
 480.91 367.32 l 2
 491.23 432.92 452.91 480.49 391.38 480.49 c 0
 308.74 480.49 266.15 460.83 184.14 422.84 c 1
 117.5 0 l 1
 60 0 l 1
EndSplineSet
AlternateSubs2: "'salt' Access All Alternates in Latin lookup 4-1" m.salt
Substitution2: "'smcp' Lowercase to Small Capitals lookup 16-1" m.smcp
EndChar

StartChar: f
Encoding: 72 102 17
Width: 388
VWidth: 0
Flags: HW
HStem: 0 21G<110.39 171.156> 0 21G<110.39 171.156> 473.5 57.5<255.24 415.17> 473.5 41.47<98.69 141.943> 728.5 56.83<302.266 484.78> 728.5 37.12<389.419 484.78>
DStem2: 110.39 0 167.89 0 0.161711 0.986838<9.2984 479.663 547.435 733.104>
LayerCount: 2
Fore
SplineSet
92 473.5 m 1
 98.69 514.97 l 1
 197.74 531 l 1
 206.71 587.79 l 2
 226.43 710.8 249.85 784.01 363.87 785.33 c 0
 400.57 785.66 468.19 772.27 490.13 765.62 c 1
 484.78 728.5 l 1
 362.88 728.5 l 2
 294.21 728.5 279.56 689.91 264.21 587.79 c 2
 255.24 531 l 1
 424.53 531 l 1
 415.17 473.5 l 1
 245.21 473.5 l 1
 167.89 0 l 1
 110.39 0 l 1
 187.04 473.5 l 1
 92 473.5 l 1
EndSplineSet
AlternateSubs2: "'salt' Access All Alternates in Latin lookup 4-1" f.salt
Substitution2: "'smcp' Lowercase to Small Capitals lookup 16-1" f.smcp
EndChar

StartChar: l
Encoding: 78 108 18
Width: 297
VWidth: 0
Flags: HW
HStem: 0 41.81<176.323 263.07> 763 20G<179.835 240.5>
DStem2: 89 189 146.5 189 0.156304 0.987709<-96.3454 601.392>
LayerCount: 2
Fore
SplineSet
89 189 m 2
 183 783 l 1
 240.5 783 l 1
 146.5 189 l 2
 127.53 70.86 160.05 64.85 195.75 57.5 c 2
 195.75 57.5 266.78 41.81 269.76 41.81 c 1
 263.07 0 l 1
 196.06 0 l 2
 104.69 0 68.67 59.01 89 189 c 2
EndSplineSet
Substitution2: "'smcp' Lowercase to Small Capitals lookup 16-1" l.smcp
EndChar

StartChar: j
Encoding: 76 106 19
Width: 195
VWidth: 0
Flags: HW
LayerCount: 2
Fore
SplineSet
159.97 624.58 m 2
 168.31 674.62 l 2
 169.98 687.31 178.33 695.33 191.69 695.33 c 2
 229.15 695.33 l 2
 241.84 695.33 246.52 686.31 244.85 674.62 c 2
 236.51 624.58 l 2
 234.84 611.89 225.82 605.21 214.13 605.21 c 2
 177 605.21 l 2
 165.31 605.21 158.3 612.89 159.97 624.58 c 2
28 -270 m 1
 155 531 l 1
 212.5 531 l 1
 127.5 -4 l 2
 114.5 -90 97.82 -179.32 64.45 -270 c 1
 28 -270 l 1
EndSplineSet
Substitution2: "'smcp' Lowercase to Small Capitals lookup 16-1" j.smcp
EndChar

StartChar: t
Encoding: 86 116 20
Width: 366
VWidth: 0
Flags: HW
LayerCount: 2
Fore
SplineSet
92 474.5 m 1
 99.02 517.3 l 1
 195.41 532 l 1
 233.11 680 l 1
 275.91 680 l 1
 252.91 532 l 1
 414.51 532 l 1
 405.15 474.5 l 1
 243.55 474.5 l 1
 198.58 188.67 l 2
 180.28 70.53 212.13 64.52 247.83 57.17 c 2
 247.83 57.17 318.86 41.48 321.84 41.48 c 1
 315.82 -0.33 l 1
 249.47 -0.33 l 2
 156.76 -0.33 120.75 58.01 141.08 188.67 c 2
 186.05 474.5 l 1
 92 474.5 l 1
EndSplineSet
AlternateSubs2: "'salt' Access All Alternates in Latin lookup 4-1" t.salt
Substitution2: "'smcp' Lowercase to Small Capitals lookup 16-1" t.smcp
EndChar

StartChar: s
Encoding: 85 115 21
Width: 506
VWidth: 0
Flags: HW
HStem: -8.35 57.5<101.391 396.441> 7.68 41.47<70.69 268.556> 235.25 57.5<158.299 419.758> 482.85 56.5<187.539 486.781> 482.85 42.81<305.785 506.41>
DStem2: 97.66 361.63 155.16 359.65 0.153577 0.988137<-48.954 116.838> 417.6 116.35 475.1 108.34 0.146898 0.989152<-56.0298 104.535>
LayerCount: 2
Fore
SplineSet
64 7.68 m 1
 70.69 49.15 l 1
 334.79 49.15 l 2
 350.3 49.15 405.95 45.46 417.6 116.35 c 2
 426.27 168.7 l 2
 432.93 208.32 418.32 235.25 365.41 235.25 c 2
 223.02 235.25 l 2
 129.02 235.25 81.66 260.64 97.66 361.63 c 2
 105.33 410.98 l 2
 119 495.66 161 539.35 264 539.35 c 0
 316 539.35 462.43 530.66 513.43 525.66 c 1
 506.41 482.85 l 1
 255.31 482.85 l 2
 184.71 482.85 168.47 446.16 162.83 409 c 2
 155.16 359.65 l 2
 143.17 286.38 181.5 292.75 225.01 292.75 c 2
 367.75 292.75 l 2
 451.12 292.75 495.77 241.72 483.77 166.72 c 2
 475.1 108.34 l 2
 458.1 -0.66 383.41 -8.35 324.77 -8.35 c 0
 275.77 -8.35 101 3.68 64 7.68 c 1
EndSplineSet
Substitution2: "'smcp' Lowercase to Small Capitals lookup 16-1" s.smcp
EndChar

StartChar: k
Encoding: 77 107 22
Width: 484
VWidth: 0
Flags: HW
LayerCount: 2
Fore
SplineSet
60 0 m 1
 184 782 l 1
 241.5 782 l 1
 166.51 309.73 l 1
 296.75 326.82 428.29 446.1 449.24 531 c 1
 513.1 531 l 1
 478.8 410.14 356.02 318.33 281.75 289.32 c 1
 473.18 0 l 1
 403.64 0 l 1
 223.91 273.61 l 1
 207.08 269.65 167.1 268.98 160.83 269.64 c 1
 117.5 0 l 1
 60 0 l 1
EndSplineSet
Substitution2: "'smcp' Lowercase to Small Capitals lookup 16-1" k.smcp
EndChar

StartChar: g
Encoding: 73 103 23
Width: 546
VWidth: 0
Flags: HW
LayerCount: 2
Fore
SplineSet
148.5 268.99 m 0
 132.56 163.34 124.7 47.5 239.36 47.5 c 0
 313.36 47.5 351.62 54.8 437.62 75.8 c 1
 502.24 477.85 l 1
 314.63 479.5 l 2
 204.66 480.49 161.11 348.31 148.5 268.99 c 0
37 -248 m 1
 43.02 -210.55 l 1
 290.46 -215.5 l 2
 339.77 -216.82 397.29 -182.52 409.6 -104 c 2
 430.6 29 l 1
 362.6 3 284.04 -9.33 239.04 -9.33 c 0
 81.35 -9.33 66 117 91 275 c 0
 118 443 196.69 537 312.98 537 c 0
 418.98 537 519.43 521.3 565.43 517.3 c 1
 467.1 -104 l 2
 447.1 -228 360.45 -280 281.1 -272 c 2
 37 -248 l 1
EndSplineSet
AlternateSubs2: "'salt' Access All Alternates in Latin lookup 4-1" g.salt
Substitution2: "'smcp' Lowercase to Small Capitals lookup 16-1" g.smcp
EndChar

StartChar: v
Encoding: 88 118 24
Width: 520
VWidth: 0
Flags: HW
LayerCount: 2
Fore
SplineSet
94 531 m 1
 153.51 531 l 1
 265.43 71.86 l 1
 469.91 450.01 l 2
 482.58 475.03 494.2 497.3 499.54 531.33 c 1
 544.02 531.33 l 1
 554.03 499.65 543.13 463.73 531.1 439.33 c 1
 293.52 0 l 1
 221.97 0 l 1
 94 531 l 1
EndSplineSet
Substitution2: "'smcp' Lowercase to Small Capitals lookup 16-1" v.smcp
EndChar

StartChar: w
Encoding: 89 119 25
Width: 800
VWidth: 0
Flags: HW
LayerCount: 2
Fore
SplineSet
94 531 m 1
 151.5 531 l 1
 261.08 74.88 l 1
 465.24 447.01 l 2
 477.91 472.03 490.19 494.63 495.53 528.66 c 1
 536.66 528.66 l 1
 546.67 496.98 535.44 461.06 523.41 436.66 c 2
 483.19 357.14 l 1
 544.78 78.24 l 1
 754.62 449.35 l 1
 767.29 474.37 779.57 497.3 784.91 531.33 c 1
 826.71 531.33 l 1
 836.72 499.65 826.83 463.06 813.46 439.33 c 2
 563.82 0 l 1
 506 0 l 1
 441.4 286.6 l 1
 285.49 0 l 1
 221.97 0 l 1
 94 531 l 1
EndSplineSet
Substitution2: "'smcp' Lowercase to Small Capitals lookup 16-1" w.smcp
EndChar

StartChar: y
Encoding: 91 121 26
Width: 544
VWidth: 0
Flags: HW
LayerCount: 2
Fore
SplineSet
94 531 m 1
 153.51 531 l 1
 223.45 116 l 2
 235.41 49.18 300.36 59.84 300.36 59.84 c 1
 497.32 453.33 l 2
 510 478.68 517.97 500.62 523.31 534.65 c 1
 569.13 534.65 l 1
 579.14 502.97 570.19 467.01 556.5 439.97 c 2
 338.14 1 l 1
 284.54 -103.52 203.39 -254.26 97.67 -269 c 1
 97.67 -228.87 l 1
 175.37 -193.69 246.15 -47.57 270.94 0 c 1
 247.26 0.33 179.92 10.66 163.6 110 c 2
 94 531 l 1
EndSplineSet
Substitution2: "'smcp' Lowercase to Small Capitals lookup 16-1" y.smcp
EndChar

StartChar: x
Encoding: 90 120 27
Width: 497
VWidth: 0
Flags: HW
HStem: 0 21G<24 119.008 399.264 478.19> 0 21G<24 119.008 399.264 478.19> 511 20G<108 186.939 472.417 564.2>
DStem2: 24 0 101.56 0 0.659598 0.751618<51.1584 335.4 417.786 706.476> 175.51 531 108 531 0.495215 -0.86877<0 249.782 331.15 577.777>
LayerCount: 2
Fore
SplineSet
24 0 m 1
 258.67 267.34 l 1
 108 531 l 1
 175.51 531 l 1
 299.44 314.13 l 1
 489.99 531 l 1
 564.2 531 l 1
 329.53 261.31 l 1
 478.19 0 l 1
 410.68 0 l 1
 288.42 214.19 l 1
 101.56 0 l 1
 24 0 l 1
EndSplineSet
AlternateSubs2: "'salt' Access All Alternates in Latin lookup 4-1" x.salt
Substitution2: "'smcp' Lowercase to Small Capitals lookup 16-1" x.smcp
EndChar

StartChar: V
Encoding: 56 86 28
Width: 669
VWidth: 0
Flags: HW
LayerCount: 2
Fore
SplineSet
150 732 m 1
 210.51 732 l 1
 334.76 88.31 l 1
 674.24 732 l 1
 740.1 732 l 1
 353.45 0 l 1
 292.65 0 l 1
 150 732 l 1
EndSplineSet
Substitution2: "'c2sc' Capitals to Small Capitals in Latin lookup 17 subtable" v.smcp
EndChar

StartChar: W
Encoding: 57 87 29
Width: 994
VWidth: 0
Flags: HW
LayerCount: 2
Fore
SplineSet
150 732 m 1
 208.17 732 l 1
 333.42 89.32 l 1
 667.97 732 l 1
 732.83 732 l 1
 596.23 463.83 l 1
 667.77 84.97 l 1
 1002.65 732 l 1
 1065.5 732 l 1
 685.45 0 l 1
 624.65 0 l 1
 552.1 381.26 l 1
 353.45 0 l 1
 292.65 0 l 1
 150 732 l 1
EndSplineSet
Substitution2: "'c2sc' Capitals to Small Capitals in Latin lookup 17 subtable" w.smcp
EndChar

StartChar: C
Encoding: 37 67 30
Width: 573
VWidth: 0
Flags: HW
LayerCount: 2
Fore
SplineSet
115.66 370.64 m 0
 153.67 603.32 216.01 740 416.33 740 c 0
 468.33 740 579.09 724.98 647.09 711.98 c 1
 640.4 667.83 l 1
 625.33 669.84 503.65 683.84 409.64 682.5 c 0
 324.28 681.83 219.84 662.08 173.16 366 c 1
 142.52 182.22 177.45 57.53 306 51.5 c 0
 370.13 49.49 450.99 54.12 546.13 60.82 c 1
 540.11 16.67 l 1
 459.4 -3.03 362.38 -6 301.67 -6 c 0
 113.99 -6 85.68 185.79 115.66 370.64 c 0
EndSplineSet
Substitution2: "'c2sc' Capitals to Small Capitals in Latin lookup 17 subtable" c.smcp
EndChar

StartChar: D
Encoding: 38 68 31
Width: 664
VWidth: 0
Flags: HW
LayerCount: 2
Fore
SplineSet
146.86 59.51 m 1
 356.42 59.51 l 2
 503.58 59.51 582.24 215.33 606.57 364 c 0
 641.21 577.55 586.63 674.5 452.38 674.5 c 2
 244.14 674.5 l 1
 146.86 59.51 l 1
80 0 m 1
 196 731.33 l 2
 196 732 421.87 732 462.07 732 c 0
 687.4 732 687.72 491.27 663.74 360.36 c 0
 627.07 154.29 536.06 0 348.38 0 c 2
 80 0 l 1
EndSplineSet
Substitution2: "'c2sc' Capitals to Small Capitals in Latin lookup 17 subtable" d.smcp
EndChar

StartChar: O
Encoding: 49 79 32
Width: 672
VWidth: 0
Flags: HW
HStem: -4 57.5<216.902 472.649> 679.5 57.5<305.506 570.134>
LayerCount: 2
Fore
SplineSet
173.49 361 m 0
 130.51 90.47 185.83 53.5 345.4 53.5 c 0
 496.97 53.5 572.95 96.49 614.59 361 c 0
 662.91 668.25 580.56 679.5 444.68 679.5 c 0
 306.73 679.5 222.47 672.54 173.49 361 c 0
115.99 363.31 m 0
 169.99 706.31 273.66 737 447.67 737 c 0
 621.34 737 723.41 693.65 672.09 358.69 c 0
 622.43 35.69 517.39 -4 342.08 -4 c 0
 174.14 -4 62.99 30.31 115.99 363.31 c 0
EndSplineSet
Substitution2: "'c2sc' Capitals to Small Capitals in Latin lookup 17 subtable" o.smcp
EndChar

StartChar: S
Encoding: 53 83 33
Width: 569
VWidth: 0
Flags: HW
LayerCount: 2
Fore
SplineSet
79 13.03 m 1
 85.69 58.18 l 1
 128.69 52.84 236.39 49.5 329.39 49.5 c 0
 386.56 49.5 473.25 60.44 487.9 156 c 2
 498.57 224 l 2
 508.89 290.24 497.99 330.25 414.07 330.25 c 2
 283.98 330.25 l 2
 127.64 330.25 121.98 419.33 133.98 495.32 c 2
 144.31 561.32 l 2
 168.65 713.69 259.34 740.68 368.66 738 c 0
 421.66 736.66 553.06 723.65 605.08 715.65 c 1
 598.39 671.83 l 1
 544.1 673.15 359.3 680.5 359.3 680.5 c 2
 273.73 684.5 218.13 664.25 201.81 560 c 2
 191.48 494 l 2
 174.81 387.99 226.81 387.75 292.68 387.75 c 2
 423.43 387.75 l 2
 549.73 387.75 569.07 304.35 556.07 222.35 c 2
 545.4 154.35 l 2
 522.06 5.65 406.98 -8 319.37 -8 c 0
 252.28 -8 117.3 5.7 79 13.03 c 1
EndSplineSet
Substitution2: "'c2sc' Capitals to Small Capitals in Latin lookup 17 subtable" s.smcp
EndChar

StartChar: G
Encoding: 41 71 34
Width: 619
VWidth: 0
Flags: HW
LayerCount: 2
Fore
SplineSet
119.64 370.3 m 0
 156.33 593.08 214.39 739.33 413.39 739.33 c 0
 463.38 740 581.01 723.99 649.01 710.99 c 1
 642.66 665.19 l 1
 600.48 671.22 467.88 681.16 406.04 681.83 c 0
 311.73 682.5 220.52 641.95 179.15 365.99 c 1
 148.86 174.94 175.54 50.49 306.4 51.16 c 0
 384.4 51.16 517.23 104.51 517.23 104.51 c 1
 555.19 330.5 l 1
 371.34 330.5 l 1
 377.69 368.62 l 1
 419.69 379.62 473.05 389 554.05 389 c 0
 575.05 389 597.38 388 621.38 386 c 1
 560.38 0 l 1
 517.57 0 l 1
 510.87 56.01 l 1
 478.54 31.3 380.34 -6.34 299.72 -6.34 c 0
 106.79 -6.33 89.99 188.09 119.64 370.3 c 0
EndSplineSet
Substitution2: "'c2sc' Capitals to Small Capitals in Latin lookup 17 subtable" g.smcp
EndChar

StartChar: Q
Encoding: 51 81 35
Width: 677
VWidth: 0
Flags: HW
LayerCount: 2
Fore
SplineSet
312.3 -33 m 1
 351.76 -33 l 1
 394.22 -89.54 455.43 -87.86 517.09 -67.19 c 1
 507.06 -128.71 l 1
 431.06 -155.71 313.95 -131.02 312.3 -33 c 1
177.49 361 m 0
 134.51 90.47 189.83 53.5 349.4 53.5 c 0
 500.97 53.5 576.95 96.49 618.59 361 c 0
 666.91 668.25 584.56 679.5 448.68 679.5 c 0
 310.73 679.5 226.47 672.54 177.49 361 c 0
119.99 363.31 m 0
 173.99 706.31 277.66 737 451.67 737 c 0
 625.34 737 727.41 693.65 676.09 358.69 c 0
 626.43 35.69 521.39 -4 346.08 -4 c 0
 178.14 -4 66.99 30.31 119.99 363.31 c 0
EndSplineSet
Substitution2: "'c2sc' Capitals to Small Capitals in Latin lookup 17 subtable" q.smcp
EndChar

StartChar: M
Encoding: 47 77 36
Width: 791
VWidth: 0
Flags: HW
HStem: 0 21G<71 133.668 378.457 451.216 694.27 753.487> 0 21G<71 133.668 378.457 451.216 694.27 753.487> 712 20G<241.112 324.668 712.953 802.86>
DStem2: 71 0 128.83 0 0.23238 0.972625<13.4386 661.959> 321.43 732 281.32 630.34 0.159837 -0.987143<93.9419 644.344> 424.42 95.94 441.8 0 0.424138 0.905597<0 619.762> 694.27 0 752.1 0 0.0691781 0.997604<4.00057 634.285>
LayerCount: 2
Fore
SplineSet
71 0 m 1
 245.89 732 l 1
 321.43 732 l 1
 424.42 95.94 l 1
 722.32 732 l 1
 802.86 732 l 1
 752.1 0 l 1
 694.27 0 l 1
 739.67 632.66 l 1
 441.8 0 l 1
 381.64 0 l 1
 281.32 630.34 l 1
 128.83 0 l 1
 71 0 l 1
EndSplineSet
AlternateSubs2: "'salt' Access All Alternates in Latin lookup 4-1" M.salt
Substitution2: "'c2sc' Capitals to Small Capitals in Latin lookup 17 subtable" m.smcp
EndChar

StartChar: I
Encoding: 43 73 37
Width: 214
VWidth: 0
Flags: HW
HStem: 0 21G<90 150.669> 0 21G<90 150.669> 712 20G<202.831 263.5>
VStem: 90 173.5
DStem2: 90 0 147.5 0 0.156517 0.987675<8.99972 741.134>
LayerCount: 2
Fore
SplineSet
90 0 m 1
 206 732 l 1
 263.5 732 l 1
 147.5 0 l 1
 90 0 l 1
EndSplineSet
Substitution2: "'c2sc' Capitals to Small Capitals in Latin lookup 17 subtable" i.smcp
EndChar

StartChar: J
Encoding: 44 74 38
Width: 346
VWidth: 0
Flags: HW
HStem: 21 40.8<48.69 82.1912> 712 20G<344.425 405.1>
DStem2: 257.6 165 315.1 165 0.156768 0.987636<-87.923 574.098>
LayerCount: 2
Fore
SplineSet
38 21 m 1
 48.69 61.8 l 1
 123.98 40.83 234.29 19.45 257.6 165 c 2
 347.6 732 l 1
 405.1 732 l 1
 315.1 165 l 2
 308.1 118 293.45 50.33 240.1 18 c 0
 185.4 -15.34 85 -13 38 21 c 1
EndSplineSet
Substitution2: "'c2sc' Capitals to Small Capitals in Latin lookup 17 subtable" j.smcp
EndChar

StartChar: H
Encoding: 42 72 39
Width: 639
VWidth: 0
Flags: HW
HStem: 0 21G<85 145.697 522.2 582.869> 0 21G<85 145.697 522.2 582.869> 325.25 57.5<202.51 574.19> 712 20G<197.831 258.5 634.994 695.7>
DStem2: 85 0 142.5 0 0.156517 0.987675<8.99972 338.378 396.425 741.134> 522.2 0 579.7 0 0.156517 0.987675<8.99972 329.379 387.425 741.134>
LayerCount: 2
Fore
SplineSet
85 0 m 1
 201 732 l 1
 258.5 732 l 1
 202.51 382.75 l 1
 582.21 382.75 l 1
 638.2 732 l 1
 695.7 732 l 1
 579.7 0 l 1
 522.2 0 l 1
 574.19 325.25 l 1
 194.49 325.25 l 1
 142.5 0 l 1
 85 0 l 1
EndSplineSet
Substitution2: "'c2sc' Capitals to Small Capitals in Latin lookup 17 subtable" h.smcp
EndChar

StartChar: E
Encoding: 39 69 40
Width: 565
VWidth: 0
Flags: HW
LayerCount: 2
Fore
SplineSet
98 124.65 m 2
 174 603.65 l 2
 190 701.65 248.63 735.34 320.67 732 c 2
 628.73 717.98 l 1
 622.04 674.5 l 1
 311.64 674.5 l 2
 259.02 674.5 238.14 644.84 231.5 602 c 2
 198.18 393.09 l 1
 536.08 384.74 l 1
 528.72 340.59 l 1
 188.82 332.24 l 1
 155.5 123 l 2
 145.86 57.13 186.45 54.5 224.03 54.5 c 2
 524.43 54.5 l 1
 517.07 11.69 l 1
 214 -3 l 2
 148 -6.34 82.01 24.38 98 124.65 c 2
EndSplineSet
Substitution2: "'c2sc' Capitals to Small Capitals in Latin lookup 17 subtable" e.smcp
EndChar

StartChar: L
Encoding: 46 76 41
Width: 538
VWidth: 0
Flags: HW
HStem: 0 57.5<162.178 512.44> 712 20G<193.127 253.17>
DStem2: 99 126 156.5 126 0.158594 0.987344<-41.4756 613.768>
LayerCount: 2
Fore
SplineSet
99 126 m 2
 196.34 732 l 1
 253.17 732 l 1
 156.5 126 l 2
 146.19 60.13 187.78 57.5 225.03 57.5 c 2
 521.13 57.5 l 1
 512.44 0 l 1
 216.65 0 l 2
 149.98 0 83.01 25.73 99 126 c 2
EndSplineSet
Substitution2: "'c2sc' Capitals to Small Capitals in Latin lookup 17 subtable" l.smcp
EndChar

StartChar: F
Encoding: 40 70 42
Width: 563
VWidth: 0
Flags: HW
LayerCount: 2
Fore
SplineSet
80 0 m 1
 174.67 600.68 l 2
 191.33 703.96 248.64 735.34 321.67 732 c 2
 629.73 717.98 l 1
 623.04 674.5 l 1
 311.98 674.5 l 2
 258.04 674.5 239.14 645.5 232.5 602 c 2
 199.85 393.09 l 1
 537.41 384.74 l 1
 530.39 340.59 l 1
 190.15 332.24 l 1
 137.5 0 l 1
 80 0 l 1
EndSplineSet
Substitution2: "'c2sc' Capitals to Small Capitals in Latin lookup 17 subtable" f.smcp
EndChar

StartChar: K
Encoding: 45 75 43
Width: 557
VWidth: 0
Flags: HW
LayerCount: 2
Fore
SplineSet
80 0 m 1
 196 732 l 1
 253.5 732 l 1
 200.18 395.75 l 1
 308.96 395.75 l 1
 590.23 732 l 1
 661.77 732 l 1
 358.43 363.98 l 1
 546.1 0 l 1
 477.23 0 l 1
 304.27 338.25 l 1
 191.82 338.25 l 1
 138.5 0 l 1
 80 0 l 1
EndSplineSet
Substitution2: "'c2sc' Capitals to Small Capitals in Latin lookup 17 subtable" k.smcp
EndChar

StartChar: T
Encoding: 54 84 44
Width: 596
VWidth: 0
Flags: HW
HStem: 0 21G<259.56 320.222> 0 21G<259.56 320.222> 674.5 57.5<148.36 366.2 423.7 656.9>
DStem2: 259.56 0 317.06 0 0.156163 0.987731<8.97935 682.878>
LayerCount: 2
Fore
SplineSet
139 674.5 m 1
 148.36 732 l 1
 666.26 732 l 1
 656.9 674.5 l 1
 423.7 674.5 l 1
 317.06 0 l 1
 259.56 0 l 1
 366.2 674.5 l 1
 139 674.5 l 1
EndSplineSet
Substitution2: "'c2sc' Capitals to Small Capitals in Latin lookup 17 subtable" t.smcp
EndChar

StartChar: P
Encoding: 50 80 45
Width: 591
VWidth: 0
Flags: HW
LayerCount: 2
Fore
SplineSet
190.18 363.75 m 1
 428.11 363.75 l 2
 489.02 363.75 549.6 382.71 571.26 524.29 c 0
 591.91 662.88 528.95 673.5 477.74 673.5 c 2
 239.14 673.5 l 1
 190.18 363.75 l 1
75 0 m 1
 191 732 l 1
 487.1 732 l 2
 566.1 732 653.74 692.91 629.76 523.96 c 0
 598.43 305.89 494.09 306.25 420.09 306.25 c 0
 380.09 306.25 189.16 317.94 184.16 320.94 c 1
 132.5 0 l 1
 75 0 l 1
EndSplineSet
Substitution2: "'c2sc' Capitals to Small Capitals in Latin lookup 17 subtable" p.smcp
EndChar

StartChar: R
Encoding: 52 82 46
Width: 610
VWidth: 0
Flags: HW
LayerCount: 2
Fore
SplineSet
190.85 363.75 m 1
 429.45 363.75 l 2
 492.37 363.75 555.64 392.78 569.92 518.6 c 0
 585.21 657.86 541.68 673.5 481.76 673.5 c 2
 239.81 673.5 l 1
 190.85 363.75 l 1
75 0 m 1
 191 732 l 1
 491.12 732 l 2
 574.14 732 649.05 688.24 628.42 517.28 c 0
 605.79 326.6 503.04 312.27 458.86 308.93 c 1
 565.85 0 l 1
 503 0 l 1
 400.7 303.57 l 1
 383.21 303.9 184.14 315.26 182.82 316.25 c 1
 132.5 0 l 1
 75 0 l 1
EndSplineSet
Substitution2: "'c2sc' Capitals to Small Capitals in Latin lookup 17 subtable" r.smcp
EndChar

StartChar: U
Encoding: 55 85 47
Width: 664
VWidth: 0
Flags: HW
LayerCount: 2
Fore
SplineSet
128.32 307.94 m 2
 195.33 732 l 1
 253.5 732 l 1
 186.49 307.94 l 2
 150.88 81.97 217.07 52.5 342.35 52.5 c 0
 470.7 52.5 550.24 94.63 583.85 307.94 c 2
 650.86 732 l 1
 709.03 732 l 1
 642.02 307.94 l 2
 609.78 105.54 542.06 -5 338.99 -5 c 0
 184.23 -5 87.71 51.3 128.32 307.94 c 2
EndSplineSet
Substitution2: "'c2sc' Capitals to Small Capitals in Latin lookup 17 subtable" u.smcp
EndChar

StartChar: B
Encoding: 36 66 48
Width: 594
VWidth: 0
Flags: HW
HStem: 0 57.83<147.53 446.194> 354.92 57.5<203.85 480.978> 674.5 57.5<245.48 549.006>
DStem2: 80 0 147.53 57.83 0.156517 0.987675<67.6868 368.465 426.722 692.087>
LayerCount: 2
Fore
SplineSet
203.85 412.42 m 1
 418.78 412.42 l 2
 499.72 412.42 556.62 459.01 571.93 546.29 c 0
 589.9 650.88 540.26 674.5 461.08 674.5 c 2
 245.48 674.5 l 1
 203.85 412.42 l 1
147.53 57.83 m 1
 362.46 57.83 l 2
 420.69 57.83 500.95 76.11 521.6 205.34 c 0
 534.59 285.28 496.06 355.58 409.42 354.92 c 2
 194.49 354.92 l 1
 147.53 57.83 l 1
80 0 m 1
 196 732 l 1
 469.1 732 l 2
 615.76 732 642.74 636.86 630.43 545.27 c 0
 617.44 446.59 558.53 394.35 499.22 381.32 c 1
 532.51 374.67 594.76 314.35 579.44 199.68 c 0
 564.78 89.64 507.1 0 353.1 0 c 2
 80 0 l 1
EndSplineSet
Substitution2: "'c2sc' Capitals to Small Capitals in Latin lookup 17 subtable" b.smcp
EndChar

StartChar: N
Encoding: 48 78 49
Width: 654
VWidth: 0
Flags: HW
HStem: 0 21G<80 141.344 524.792 592.269> 0 21G<80 141.344 524.792 592.269> 712 20G<192.831 261.951 644.425 705.1>
DStem2: 80 0 138.17 0 0.156517 0.987675<9.10458 642.612> 252.49 732 237.45 625.68 0.428623 -0.903483<89.6119 691.793> 548.32 106.65 589.1 0 0.156517 0.987675<0 633.182>
LayerCount: 2
Fore
SplineSet
80 0 m 1
 196 732 l 1
 252.49 732 l 1
 548.32 106.65 l 1
 647.6 732 l 1
 705.1 732 l 1
 589.1 0 l 1
 534.28 0 l 1
 237.45 625.68 l 1
 138.17 0 l 1
 80 0 l 1
EndSplineSet
AlternateSubs2: "'salt' Access All Alternates in Latin lookup 4-1" N.salt
Substitution2: "'c2sc' Capitals to Small Capitals in Latin lookup 17 subtable" n.smcp
EndChar

StartChar: X
Encoding: 58 88 50
Width: 581
VWidth: 0
Flags: HW
HStem: 0 21G<38 123.029 467.111 537.49> 0 21G<38 123.029 467.111 537.49> 712 20G<151 221.342 578.1 663.18>
DStem2: 38 0 107.86 0 0.604393 0.796686<42.2229 426.49 521.045 918.806> 212.5 732 151 732 0.40578 -0.913971<0 346.084 440.961 775.946>
LayerCount: 2
Fore
SplineSet
38 0 m 1
 313.67 364.33 l 1
 151 732 l 1
 212.5 732 l 1
 352.44 415.47 l 1
 593.32 732 l 1
 663.18 732 l 1
 378.51 357.64 l 1
 537.49 0 l 1
 475.99 0 l 1
 340.07 306.17 l 1
 107.86 0 l 1
 38 0 l 1
EndSplineSet
AlternateSubs2: "'salt' Access All Alternates in Latin lookup 4-1" X.salt
Substitution2: "'c2sc' Capitals to Small Capitals in Latin lookup 17 subtable" x.smcp
EndChar

StartChar: Z
Encoding: 60 90 51
Width: 545
VWidth: 0
Flags: HW
LayerCount: 2
Fore
SplineSet
35 0 m 1
 44.36 57.5 l 1
 549.19 674.5 l 1
 141.64 674.5 l 1
 151 732 l 1
 634.1 732 l 1
 624.74 674.5 l 1
 119.91 57.5 l 1
 527.46 57.5 l 1
 518.1 0 l 1
 35 0 l 1
EndSplineSet
Substitution2: "'c2sc' Capitals to Small Capitals in Latin lookup 17 subtable" z.smcp
EndChar

StartChar: Y
Encoding: 59 89 52
Width: 629
VWidth: 0
Flags: HW
LayerCount: 2
Fore
SplineSet
150 732 m 1
 211.17 732 l 1
 348.41 331.53 l 1
 631.57 732 l 1
 700.1 732 l 1
 368.8 260 l 1
 327.8 0 l 1
 270.3 0 l 1
 311.3 260 l 1
 150 732 l 1
EndSplineSet
Substitution2: "'c2sc' Capitals to Small Capitals in Latin lookup 17 subtable" y.smcp
EndChar

StartChar: Agrave
Encoding: 128 192 53
Width: 654
VWidth: 0
Flags: HW
LayerCount: 2
Fore
SplineSet
327.044 930 m 1
 393.914 930 l 1
 497.934 797 l 1
 447.084 797 l 1
 327.044 930 l 1
255.51 277.67 m 1
 522.94 277.67 l 1
 452.35 654.73 l 1
 255.51 277.67 l 1
45 0 m 1
 431.65 732 l 1
 492.45 732 l 1
 635.1 0 l 1
 576.93 0 l 1
 533.97 220.17 l 1
 225.09 220.17 l 1
 108.51 0 l 1
 45 0 l 1
EndSplineSet
Substitution2: "'c2sc' Capitals to Small Capitals in Latin lookup 17 subtable" agrave.smcp
EndChar

StartChar: Aacute
Encoding: 129 193 54
Width: 654
VWidth: 0
Flags: HW
LayerCount: 2
Fore
SplineSet
447.084 797 m 1
 579.704 930 l 1
 651.934 930 l 1
 497.934 797 l 1
 447.084 797 l 1
255.51 277.67 m 1
 522.94 277.67 l 1
 452.35 654.73 l 1
 255.51 277.67 l 1
45 0 m 1
 431.65 732 l 1
 492.45 732 l 1
 635.1 0 l 1
 576.93 0 l 1
 533.97 220.17 l 1
 225.09 220.17 l 1
 108.51 0 l 1
 45 0 l 1
EndSplineSet
Substitution2: "'c2sc' Capitals to Small Capitals in Latin lookup 17 subtable" aacute.smcp
EndChar

StartChar: Acircumflex
Encoding: 130 194 55
Width: 654
VWidth: 0
Flags: HW
LayerCount: 2
Fore
SplineSet
329.809 797 m 1
 472.759 927 l 1
 527.259 927 l 1
 615.209 797 l 1
 566.049 797 l 1
 496.839 890.56 l 1
 389.349 797 l 1
 329.809 797 l 1
255.51 277.67 m 1
 522.94 277.67 l 1
 452.35 654.73 l 1
 255.51 277.67 l 1
45 0 m 1
 431.65 732 l 1
 492.45 732 l 1
 635.1 0 l 1
 576.93 0 l 1
 533.97 220.17 l 1
 225.09 220.17 l 1
 108.51 0 l 1
 45 0 l 1
EndSplineSet
Substitution2: "'c2sc' Capitals to Small Capitals in Latin lookup 17 subtable" acircumflex.smcp
EndChar

StartChar: Atilde
Encoding: 131 195 56
Width: 654
VWidth: 0
Flags: HW
HStem: 0 21<45 119.1 45 119.1 45 119.1 45 119.1 573.028 635.1 573.028 635.1 573.028 635.1 573.028 635.1> 220.17 57.5<255.51 522.94 255.51 522.94> 712 20<421.086 496.348 421.086 496.348> 797.67 52.1801<494.439 593.271 494.439 593.271> 844.54 52.18<367.973 468.182 367.973 468.182>
DStem2: 45 0 108.51 0 0.467058 0.884227<29.6628 278.793 343.844 769.186> 492.45 732 452.35 654.73 0.191279 -0.981536<68.173 451.773 510.321 734.643>
LayerCount: 2
Fore
SplineSet
308.962 834.7 m 1
 351.982 866.71 392.332 896.72 432.672 896.72 c 1
 479.042 894.71 508.632 850.52 537.952 849.85 c 0
 566.902 849.18 627.662 881.17 640.262 890.12 c 1
 651.962 859.67 l 1
 610.282 830.69 572.932 797 529.592 797.67 c 0
 478.212 798.34 458.312 845.21 423.302 844.54 c 0
 381.282 843.87 354.972 822.55 320.332 804.59 c 1
 308.962 834.7 l 1
255.51 277.67 m 1
 522.94 277.67 l 1
 452.35 654.73 l 1
 255.51 277.67 l 1
45 0 m 1
 431.65 732 l 1
 492.45 732 l 1
 635.1 0 l 1
 576.93 0 l 1
 533.97 220.17 l 1
 225.09 220.17 l 1
 108.51 0 l 1
 45 0 l 1
EndSplineSet
Substitution2: "'c2sc' Capitals to Small Capitals in Latin lookup 17 subtable" atilde.smcp
EndChar

StartChar: Adieresis
Encoding: 132 196 57
Width: 654
VWidth: 0
Flags: HW
LayerCount: 2
Fore
SplineSet
566.755 837.11 m 0
 570.095 859.17 591.155 876.22 613.215 876.22 c 0
 635.275 876.22 649.315 859.17 645.975 837.11 c 0
 642.635 815.05 622.575 797 600.515 797 c 0
 578.455 797 563.415 815.05 566.755 837.11 c 0
311.755 837.11 m 0
 315.095 859.17 336.155 876.22 358.215 876.22 c 0
 380.275 876.22 394.315 859.17 390.975 837.11 c 0
 387.635 815.05 367.575 797 345.515 797 c 0
 323.455 797 308.415 815.05 311.755 837.11 c 0
255.51 277.67 m 1
 522.94 277.67 l 1
 452.35 654.73 l 1
 255.51 277.67 l 1
45 0 m 1
 431.65 732 l 1
 492.45 732 l 1
 635.1 0 l 1
 576.93 0 l 1
 533.97 220.17 l 1
 225.09 220.17 l 1
 108.51 0 l 1
 45 0 l 1
EndSplineSet
Substitution2: "'c2sc' Capitals to Small Capitals in Latin lookup 17 subtable" adieresis.smcp
EndChar

StartChar: Aring
Encoding: 133 197 58
Width: 654
VWidth: 0
Flags: HW
LayerCount: 2
Fore
SplineSet
414.301 832.167 m 0
 409.903 796.227 436.466 767.277 472.406 767.277 c 0
 508.346 767.277 540.353 796.227 544.751 832.167 c 0
 549.15 868.107 523.645 898.057 487.705 898.057 c 0
 451.765 898.057 418.7 868.107 414.301 832.167 c 0
377.861 832.167 m 0
 384.172 889.167 435.509 935.167 491.509 935.167 c 0
 547.509 935.167 587.172 889.167 580.861 832.167 c 0
 575.296 781.907 535.804 740.977 488.151 732 c 1
 492.45 732 l 1
 635.1 0 l 1
 576.93 0 l 1
 533.97 220.17 l 1
 225.09 220.17 l 1
 108.51 0 l 1
 45 0 l 1
 431.65 732 l 1
 449.417 732 l 1
 403.555 740.977 372.296 781.907 377.861 832.167 c 0
255.51 277.67 m 1
 522.94 277.67 l 1
 452.35 654.73 l 1
 255.51 277.67 l 1
EndSplineSet
Substitution2: "'c2sc' Capitals to Small Capitals in Latin lookup 17 subtable" aring.smcp
EndChar

StartChar: AE
Encoding: 134 198 59
Width: 912
VWidth: 0
Flags: HW
LayerCount: 2
Fore
SplineSet
301.78 294.76 m 1
 493.86 294.76 l 1
 551.18 645.61 l 1
 301.78 294.76 l 1
30 0 m 1
 448.75 599.38 l 2
 538.47 728.53 595.93 733.65 687.84 732 c 1
 987.68 717.98 l 1
 980.99 673.83 l 1
 678.48 673.83 l 2
 608.04 673.83 608 642.88 600.02 600.04 c 1
 566.36 389.74 l 1
 894.69 381.39 l 1
 887.67 337.24 l 1
 556.66 328.89 l 1
 523.68 121.66 l 2
 513.37 55.79 554.63 53.16 592.21 53.16 c 2
 882.71 53.16 l 1
 875.35 10.35 l 1
 585.15 -4.34 l 2
 519.48 -7.68 450.86 20.73 466.18 121 c 2
 483.83 237.26 l 1
 263.69 237.26 l 1
 96.85 0 l 1
 30 0 l 1
EndSplineSet
EndChar

StartChar: Ccedilla
Encoding: 135 199 60
Width: 573
VWidth: 0
Flags: HW
LayerCount: 2
Fore
SplineSet
190.65 -172.67 m 1
 195 -145.57 l 1
 242.74 -133.87 l 1
 281.66 -125.87 298.25 -97.77 307.22 -36.67 c 1
 325.98 -37.34 357.72 -36.67 357.72 -36.67 c 1
 341.72 -138.01 316.04 -172.67 235.05 -172.67 c 2
 190.65 -172.67 l 1
115.66 370.64 m 0
 153.67 603.32 216.01 740 416.33 740 c 0
 468.33 740 579.09 724.98 647.09 711.98 c 1
 640.4 667.83 l 1
 625.33 669.84 503.65 683.84 409.64 682.5 c 0
 324.28 681.83 221.18 662.08 174.5 366 c 1
 143.86 182.22 177.45 57.53 306 51.5 c 0
 370.13 49.49 450.99 54.12 546.13 60.82 c 1
 540.11 16.67 l 1
 459.4 -3.03 362.38 -6 301.67 -6 c 0
 113.99 -6 85.68 185.79 115.66 370.64 c 0
EndSplineSet
Substitution2: "'c2sc' Capitals to Small Capitals in Latin lookup 17 subtable" ccedilla.smcp
EndChar

StartChar: Eth
Encoding: 144 208 61
Width: 673
VWidth: 0
Flags: HW
LayerCount: 2
Fore
SplineSet
145.86 59.51 m 1
 355.42 59.51 l 2
 502.58 59.51 581.24 215.33 605.57 364 c 0
 640.21 577.55 585.63 674.5 451.38 674.5 c 2
 243.14 674.5 l 1
 199.18 393.4 l 1
 344.78 393.4 l 1
 338.09 352.6 l 1
 192.49 352.6 l 1
 145.86 59.51 l 1
69.99 352.6 m 1
 76.68 393.4 l 1
 141.68 393.4 l 1
 195 731.33 l 2
 195 732 420.87 732 461.07 732 c 0
 686.4 732 687.72 491.27 663.74 360.36 c 0
 627.07 154.29 535.06 0 347.38 0 c 2
 79 0 l 1
 134.99 352.6 l 1
 69.99 352.6 l 1
EndSplineSet
Substitution2: "'c2sc' Capitals to Small Capitals in Latin lookup 17 subtable" eth.smcp
EndChar

StartChar: Egrave
Encoding: 136 200 62
Width: 565
VWidth: 0
Flags: HW
LayerCount: 2
Fore
SplineSet
289.23 925 m 1
 356.1 925 l 1
 460.12 792 l 1
 409.27 792 l 1
 289.23 925 l 1
98 124.65 m 2
 174 603.65 l 2
 190 701.65 248.63 735.34 320.67 732 c 2
 628.73 717.98 l 1
 622.04 674.5 l 1
 311.64 674.5 l 2
 259.02 674.5 238.14 644.84 231.5 602 c 2
 198.18 393.09 l 1
 536.08 384.74 l 1
 528.72 340.59 l 1
 188.82 332.24 l 1
 155.5 123 l 2
 145.86 57.1299 186.45 54.5 224.03 54.5 c 2
 524.43 54.5 l 1
 517.07 11.6904 l 1
 214 -3 l 2
 148 -6.33984 82.0098 24.3799 98 124.65 c 2
EndSplineSet
Substitution2: "'c2sc' Capitals to Small Capitals in Latin lookup 17 subtable" egrave.smcp
EndChar

StartChar: Eacute
Encoding: 137 201 63
Width: 565
VWidth: 0
Flags: HW
LayerCount: 2
Fore
SplineSet
401.3 792 m 1
 533.92 925 l 1
 606.15 925 l 1
 452.15 792 l 1
 401.3 792 l 1
98 124.65 m 2
 174 603.65 l 2
 190 701.65 248.63 735.34 320.67 732 c 2
 628.73 717.98 l 1
 622.04 674.5 l 1
 311.64 674.5 l 2
 259.02 674.5 238.14 644.84 231.5 602 c 2
 198.18 393.09 l 1
 536.08 384.74 l 1
 528.72 340.59 l 1
 188.82 332.24 l 1
 155.5 123 l 2
 145.86 57.1299 186.45 54.5 224.03 54.5 c 2
 524.43 54.5 l 1
 517.07 11.6904 l 1
 214 -3 l 2
 148 -6.33984 82.0098 24.3799 98 124.65 c 2
EndSplineSet
Substitution2: "'c2sc' Capitals to Small Capitals in Latin lookup 17 subtable" eacute.smcp
EndChar

StartChar: Ecircumflex
Encoding: 138 202 64
Width: 565
VWidth: 0
Flags: HW
LayerCount: 2
Fore
SplineSet
287.97 792 m 1
 430.92 922.67 l 1
 485.42 922.67 l 1
 573.37 792 l 1
 521.53 792 l 1
 455.67 883.55 l 1
 350.19 792 l 1
 287.97 792 l 1
98 124.65 m 2
 174 603.65 l 2
 190 701.65 248.63 735.34 320.67 732 c 2
 628.73 717.98 l 1
 622.04 674.5 l 1
 311.64 674.5 l 2
 259.02 674.5 238.14 644.84 231.5 602 c 2
 198.18 393.09 l 1
 536.08 384.74 l 1
 528.72 340.59 l 1
 188.82 332.24 l 1
 155.5 123 l 2
 145.86 57.1299 186.45 54.5 224.03 54.5 c 2
 524.43 54.5 l 1
 517.07 11.6904 l 1
 214 -3 l 2
 148 -6.33984 82.0098 24.3799 98 124.65 c 2
EndSplineSet
Substitution2: "'c2sc' Capitals to Small Capitals in Latin lookup 17 subtable" ecircumflex.smcp
EndChar

StartChar: Edieresis
Encoding: 139 203 65
Width: 565
VWidth: 0
Flags: HW
LayerCount: 2
Fore
SplineSet
518.57 843 m 0
 521.91 865.06 542.97 882.11 565.03 882.11 c 0
 587.09 882.11 601.13 865.06 597.79 843 c 0
 594.45 820.94 574.39 802.89 552.33 802.89 c 0
 530.27 802.89 515.23 820.94 518.57 843 c 0
263.57 843 m 0
 266.91 865.06 287.97 882.11 310.03 882.11 c 0
 332.09 882.11 346.13 865.06 342.79 843 c 0
 339.45 820.94 319.39 802.89 297.33 802.89 c 0
 275.27 802.89 260.23 820.94 263.57 843 c 0
98 124.65 m 2
 174 603.65 l 2
 190 701.65 248.63 735.34 320.67 732 c 2
 628.73 717.98 l 1
 622.04 674.5 l 1
 311.64 674.5 l 2
 259.02 674.5 238.14 644.84 231.5 602 c 2
 198.18 393.09 l 1
 536.08 384.74 l 1
 528.72 340.59 l 1
 188.82 332.24 l 1
 155.5 123 l 2
 145.86 57.1299 186.45 54.5 224.03 54.5 c 2
 524.43 54.5 l 1
 517.07 11.6904 l 1
 214 -3 l 2
 148 -6.33984 82.0098 24.3799 98 124.65 c 2
EndSplineSet
Substitution2: "'c2sc' Capitals to Small Capitals in Latin lookup 17 subtable" edieresis.smcp
EndChar

StartChar: Igrave
Encoding: 140 204 66
Width: 214
VWidth: 0
Flags: HW
LayerCount: 2
Fore
SplineSet
99.7441 930 m 1
 166.614 930 l 1
 270.634 797 l 1
 219.784 797 l 1
 99.7441 930 l 1
90 0 m 1
 206 732 l 1
 263.5 732 l 1
 147.5 0 l 1
 90 0 l 1
EndSplineSet
Substitution2: "'c2sc' Capitals to Small Capitals in Latin lookup 17 subtable" igrave.smcp
EndChar

StartChar: Iacute
Encoding: 141 205 67
Width: 214
VWidth: 0
Flags: HW
LayerCount: 2
Fore
SplineSet
219.784 797 m 1
 352.404 930 l 1
 424.634 930 l 1
 270.634 797 l 1
 219.784 797 l 1
90 0 m 1
 206 732 l 1
 263.5 732 l 1
 147.5 0 l 1
 90 0 l 1
EndSplineSet
Substitution2: "'c2sc' Capitals to Small Capitals in Latin lookup 17 subtable" iacute.smcp
EndChar

StartChar: Icircumflex
Encoding: 142 206 68
Width: 214
VWidth: 0
Flags: HW
LayerCount: 2
Fore
SplineSet
102.509 797 m 1
 245.459 927 l 1
 299.959 927 l 1
 387.909 797 l 1
 338.749 797 l 1
 269.539 890.56 l 1
 162.049 797 l 1
 102.509 797 l 1
90 0 m 1
 206 732 l 1
 263.5 732 l 1
 147.5 0 l 1
 90 0 l 1
EndSplineSet
Substitution2: "'c2sc' Capitals to Small Capitals in Latin lookup 17 subtable" icircumflex.smcp
EndChar

StartChar: Idieresis
Encoding: 143 207 69
Width: 214
VWidth: 0
Flags: HW
LayerCount: 2
Fore
SplineSet
339.455 837.11 m 0
 342.795 859.17 363.855 876.22 385.915 876.22 c 0
 407.976 876.22 422.016 859.17 418.676 837.11 c 0
 415.335 815.05 395.275 797 373.215 797 c 0
 351.155 797 336.115 815.05 339.455 837.11 c 0
84.4551 837.11 m 0
 87.7949 859.17 108.855 876.22 130.915 876.22 c 0
 152.976 876.22 167.016 859.17 163.676 837.11 c 0
 160.335 815.05 140.275 797 118.215 797 c 0
 96.1553 797 81.1152 815.05 84.4551 837.11 c 0
90 0 m 1
 206 732 l 1
 263.5 732 l 1
 147.5 0 l 1
 90 0 l 1
EndSplineSet
Substitution2: "'c2sc' Capitals to Small Capitals in Latin lookup 17 subtable" idieresis.smcp
EndChar

StartChar: Ntilde
Encoding: 145 209 70
Width: 654
VWidth: 0
Flags: HW
LayerCount: 2
Fore
SplineSet
292.303 831.35 m 1
 335.323 863.36 375.673 893.37 416.013 893.37 c 1
 462.383 891.36 491.973 847.17 521.293 846.5 c 0
 550.243 845.83 611.003 877.82 623.603 886.77 c 1
 635.303 856.32 l 1
 593.623 827.34 556.273 793.65 512.933 794.32 c 0
 461.553 794.99 441.653 841.86 406.643 841.19 c 0
 364.623 840.52 338.312 819.2 303.673 801.24 c 1
 292.303 831.35 l 1
80 0 m 1
 196 732 l 1
 252.49 732 l 1
 548.32 106.65 l 1
 647.6 732 l 1
 705.1 732 l 1
 589.1 0 l 1
 534.28 0 l 1
 237.45 625.68 l 1
 138.17 0 l 1
 80 0 l 1
EndSplineSet
AlternateSubs2: "'salt' Access All Alternates in Latin lookup 4-1" Ntilde.salt
Substitution2: "'c2sc' Capitals to Small Capitals in Latin lookup 17 subtable" ntilde.smcp
EndChar

StartChar: Ograve
Encoding: 146 210 71
Width: 672
VWidth: 0
Flags: HW
LayerCount: 2
Fore
SplineSet
311.872 930 m 1
 378.742 930 l 1
 482.762 797 l 1
 431.912 797 l 1
 311.872 930 l 1
173.49 361 m 0
 130.51 90.4697 185.83 53.5 345.4 53.5 c 0
 496.97 53.5 572.95 96.4902 614.59 361 c 0
 662.91 668.25 580.56 679.5 444.68 679.5 c 0
 306.73 679.5 222.47 672.54 173.49 361 c 0
115.99 363.31 m 0
 169.99 706.31 273.66 737 447.67 737 c 0
 621.34 737 723.41 693.65 672.09 358.69 c 0
 622.43 35.6904 517.39 -4 342.08 -4 c 0
 174.14 -4 62.9902 30.3096 115.99 363.31 c 0
EndSplineSet
Substitution2: "'c2sc' Capitals to Small Capitals in Latin lookup 17 subtable" ograve.smcp
EndChar

StartChar: Oacute
Encoding: 147 211 72
Width: 672
VWidth: 0
Flags: HW
LayerCount: 2
Fore
SplineSet
431.912 797 m 1
 564.532 930 l 1
 636.762 930 l 1
 482.762 797 l 1
 431.912 797 l 1
173.49 361 m 0
 130.51 90.4697 185.83 53.5 345.4 53.5 c 0
 496.97 53.5 572.95 96.4902 614.59 361 c 0
 662.91 668.25 580.56 679.5 444.68 679.5 c 0
 306.73 679.5 222.47 672.54 173.49 361 c 0
115.99 363.31 m 0
 169.99 706.31 273.66 737 447.67 737 c 0
 621.34 737 723.41 693.65 672.09 358.69 c 0
 622.43 35.6904 517.39 -4 342.08 -4 c 0
 174.14 -4 62.9902 30.3096 115.99 363.31 c 0
EndSplineSet
Substitution2: "'c2sc' Capitals to Small Capitals in Latin lookup 17 subtable" oacute.smcp
EndChar

StartChar: Ocircumflex
Encoding: 148 212 73
Width: 672
VWidth: 0
Flags: HW
LayerCount: 2
Fore
SplineSet
314.637 797 m 1
 457.587 927 l 1
 512.087 927 l 1
 600.037 797 l 1
 550.877 797 l 1
 481.667 890.56 l 1
 374.177 797 l 1
 314.637 797 l 1
173.49 361 m 0
 130.51 90.4697 185.83 53.5 345.4 53.5 c 0
 496.97 53.5 572.95 96.4902 614.59 361 c 0
 662.91 668.25 580.56 679.5 444.68 679.5 c 0
 306.73 679.5 222.47 672.54 173.49 361 c 0
115.99 363.31 m 0
 169.99 706.31 273.66 737 447.67 737 c 0
 621.34 737 723.41 693.65 672.09 358.69 c 0
 622.43 35.6904 517.39 -4 342.08 -4 c 0
 174.14 -4 62.9902 30.3096 115.99 363.31 c 0
EndSplineSet
Substitution2: "'c2sc' Capitals to Small Capitals in Latin lookup 17 subtable" ocircumflex.smcp
EndChar

StartChar: Otilde
Encoding: 149 213 74
Width: 672
VWidth: 0
Flags: HW
LayerCount: 2
Fore
SplineSet
293.79 834.7 m 1
 336.81 866.71 377.16 896.72 417.5 896.72 c 1
 463.87 894.71 493.46 850.52 522.78 849.85 c 0
 551.73 849.18 612.49 881.17 625.09 890.12 c 1
 636.79 859.67 l 1
 595.11 830.69 557.76 797 514.42 797.67 c 0
 463.04 798.34 443.14 845.21 408.13 844.54 c 0
 366.11 843.87 339.8 822.55 305.16 804.59 c 1
 293.79 834.7 l 1
173.49 361 m 0
 130.51 90.4697 185.83 53.5 345.4 53.5 c 0
 496.97 53.5 572.95 96.4902 614.59 361 c 0
 662.91 668.25 580.56 679.5 444.68 679.5 c 0
 306.73 679.5 222.47 672.54 173.49 361 c 0
115.99 363.31 m 0
 169.99 706.31 273.66 737 447.67 737 c 0
 621.34 737 723.41 693.65 672.09 358.69 c 0
 622.43 35.6904 517.39 -4 342.08 -4 c 0
 174.14 -4 62.9902 30.3096 115.99 363.31 c 0
EndSplineSet
Substitution2: "'c2sc' Capitals to Small Capitals in Latin lookup 17 subtable" otilde.smcp
EndChar

StartChar: Odieresis
Encoding: 150 214 75
Width: 672
VWidth: 0
Flags: HW
LayerCount: 2
Fore
SplineSet
551.583 837.11 m 0
 554.923 859.17 575.983 876.22 598.043 876.22 c 0
 620.104 876.22 634.143 859.17 630.803 837.11 c 0
 627.463 815.05 607.403 797 585.343 797 c 0
 563.283 797 548.243 815.05 551.583 837.11 c 0
296.583 837.11 m 0
 299.923 859.17 320.983 876.22 343.043 876.22 c 0
 365.103 876.22 379.143 859.17 375.803 837.11 c 0
 372.463 815.05 352.403 797 330.343 797 c 0
 308.283 797 293.243 815.05 296.583 837.11 c 0
173.49 361 m 0
 130.51 90.4697 185.83 53.5 345.4 53.5 c 0
 496.97 53.5 572.95 96.4902 614.59 361 c 0
 662.91 668.25 580.56 679.5 444.68 679.5 c 0
 306.73 679.5 222.47 672.54 173.49 361 c 0
115.99 363.31 m 0
 169.99 706.31 273.66 737 447.67 737 c 0
 621.34 737 723.41 693.65 672.09 358.69 c 0
 622.43 35.6904 517.39 -4 342.08 -4 c 0
 174.14 -4 62.9902 30.3096 115.99 363.31 c 0
EndSplineSet
Substitution2: "'c2sc' Capitals to Small Capitals in Latin lookup 17 subtable" odieresis.smcp
EndChar

StartChar: Oslash
Encoding: 152 216 76
Width: 672
VWidth: 0
Flags: HW
LayerCount: 2
Fore
SplineSet
193.51 90.78 m 1
 223.5 60.16 274.45 53.5 344.38 53.5 c 0
 495.95 53.5 570.94 96.49 612.58 361 c 0
 632.56 488.89 630.57 565.5 610.94 611.48 c 1
 193.51 90.78 l 1
171.48 361 m 0
 152.5 241.8 153.16 167.86 172.78 122.88 c 1
 589.54 643.91 l 1
 557.55 677.18 505.59 679.5 442.67 679.5 c 0
 304.72 679.5 220.46 672.54 171.48 361 c 0
74.28 0 m 1
 131.33 71.73 l 1
 99 124.07 90.32 213.72 113.98 361.99 c 0
 167.98 704.99 270 737 444.01 737 c 0
 521.31 737 585.96 729 627.31 690.04 c 1
 660.61 732 l 1
 707.42 732 l 1
 651.39 661.96 l 1
 685.06 607.62 694.07 513.65 670.08 358.69 c 0
 620.42 35.69 515.38 -4 340.07 -4 c 0
 262.78 -4 198.1 3 155.74 42.98 c 1
 121.09 0 l 1
 74.28 0 l 1
EndSplineSet
Substitution2: "'c2sc' Capitals to Small Capitals in Latin lookup 17 subtable" oslash.smcp
EndChar

StartChar: Ugrave
Encoding: 153 217 77
Width: 664
VWidth: 0
Flags: HW
LayerCount: 2
Fore
SplineSet
317.174 930 m 1
 384.044 930 l 1
 488.064 797 l 1
 437.214 797 l 1
 317.174 930 l 1
128.32 307.94 m 2
 195.33 732 l 1
 253.5 732 l 1
 186.49 307.94 l 2
 150.88 81.9697 217.07 52.5 342.35 52.5 c 0
 470.7 52.5 550.24 94.6299 583.85 307.94 c 2
 650.86 732 l 1
 709.03 732 l 1
 642.02 307.94 l 2
 609.78 105.54 542.06 -5 338.99 -5 c 0
 184.23 -5 87.71 51.2998 128.32 307.94 c 2
EndSplineSet
Substitution2: "'c2sc' Capitals to Small Capitals in Latin lookup 17 subtable" ugrave.smcp
EndChar

StartChar: Uacute
Encoding: 154 218 78
Width: 664
VWidth: 0
Flags: HW
LayerCount: 2
Fore
SplineSet
437.214 797 m 1
 569.834 930 l 1
 642.064 930 l 1
 488.064 797 l 1
 437.214 797 l 1
128.32 307.94 m 2
 195.33 732 l 1
 253.5 732 l 1
 186.49 307.94 l 2
 150.88 81.9697 217.07 52.5 342.35 52.5 c 0
 470.7 52.5 550.24 94.6299 583.85 307.94 c 2
 650.86 732 l 1
 709.03 732 l 1
 642.02 307.94 l 2
 609.78 105.54 542.06 -5 338.99 -5 c 0
 184.23 -5 87.71 51.2998 128.32 307.94 c 2
EndSplineSet
Substitution2: "'c2sc' Capitals to Small Capitals in Latin lookup 17 subtable" uacute.smcp
EndChar

StartChar: Ucircumflex
Encoding: 155 219 79
Width: 664
VWidth: 0
Flags: HW
LayerCount: 2
Fore
SplineSet
319.939 797 m 1
 462.889 927 l 1
 517.389 927 l 1
 605.339 797 l 1
 556.179 797 l 1
 486.969 890.56 l 1
 379.479 797 l 1
 319.939 797 l 1
128.32 307.94 m 2
 195.33 732 l 1
 253.5 732 l 1
 186.49 307.94 l 2
 150.88 81.9697 217.07 52.5 342.35 52.5 c 0
 470.7 52.5 550.24 94.6299 583.85 307.94 c 2
 650.86 732 l 1
 709.03 732 l 1
 642.02 307.94 l 2
 609.78 105.54 542.06 -5 338.99 -5 c 0
 184.23 -5 87.71 51.2998 128.32 307.94 c 2
EndSplineSet
Substitution2: "'c2sc' Capitals to Small Capitals in Latin lookup 17 subtable" ucircumflex.smcp
EndChar

StartChar: Udieresis
Encoding: 156 220 80
Width: 664
VWidth: 0
Flags: HW
LayerCount: 2
Fore
SplineSet
556.885 837.11 m 0
 560.225 859.17 581.285 876.22 603.345 876.22 c 0
 625.405 876.22 639.445 859.17 636.105 837.11 c 0
 632.765 815.05 612.705 797 590.645 797 c 0
 568.585 797 553.545 815.05 556.885 837.11 c 0
301.885 837.11 m 0
 305.225 859.17 326.285 876.22 348.345 876.22 c 0
 370.405 876.22 384.445 859.17 381.105 837.11 c 0
 377.765 815.05 357.705 797 335.645 797 c 0
 313.585 797 298.545 815.05 301.885 837.11 c 0
128.32 307.94 m 2
 195.33 732 l 1
 253.5 732 l 1
 186.49 307.94 l 2
 150.88 81.9697 217.07 52.5 342.35 52.5 c 0
 470.7 52.5 550.24 94.6299 583.85 307.94 c 2
 650.86 732 l 1
 709.03 732 l 1
 642.02 307.94 l 2
 609.78 105.54 542.06 -5 338.99 -5 c 0
 184.23 -5 87.71 51.2998 128.32 307.94 c 2
EndSplineSet
Substitution2: "'c2sc' Capitals to Small Capitals in Latin lookup 17 subtable" udieresis.smcp
EndChar

StartChar: Yacute
Encoding: 157 221 81
Width: 629
VWidth: 0
Flags: HW
LayerCount: 2
Fore
SplineSet
410.084 797 m 1
 542.704 930 l 1
 614.934 930 l 1
 460.934 797 l 1
 410.084 797 l 1
150 732 m 1
 211.17 732 l 1
 348.41 331.53 l 1
 631.57 732 l 1
 700.1 732 l 1
 368.8 260 l 1
 327.8 0 l 1
 270.3 0 l 1
 311.3 260 l 1
 150 732 l 1
EndSplineSet
Substitution2: "'c2sc' Capitals to Small Capitals in Latin lookup 17 subtable" yacute.smcp
EndChar

StartChar: agrave
Encoding: 160 224 82
Width: 542
VWidth: 0
Flags: HW
LayerCount: 2
Fore
SplineSet
212.179 735.972 m 1
 279.049 735.972 l 1
 383.068 602.972 l 1
 332.219 602.972 l 1
 212.179 735.972 l 1
143.84 249.35 m 0
 121.51 108.05 152.79 50.1699 241.35 50.1699 c 0
 321.65 50.1699 372.27 72.7998 440.27 101.8 c 1
 494.25 459.92 l 1
 444.48 476.58 371.83 493.82 312.35 484.17 c 0
 230.19 470.85 174.51 440.68 143.84 249.35 c 0
90 278.33 m 0
 127.32 498.96 225.32 531 307.32 541 c 0
 377.32 550 503.09 528 554.09 479 c 1
 484.09 0 l 1
 443.96 0 l 1
 436.92 60 l 1
 407.92 41 320.99 -7 243.99 -7 c 0
 129.99 -7 49.6699 39.6396 90 278.33 c 0
EndSplineSet
AlternateSubs2: "'salt' Access All Alternates in Latin lookup 4-1" agrave.salt
Substitution2: "'smcp' Lowercase to Small Capitals lookup 16-1" agrave.smcp
EndChar

StartChar: aacute
Encoding: 161 225 83
Width: 542
VWidth: 0
Flags: HW
LayerCount: 2
Fore
SplineSet
338.919 602.972 m 1
 471.539 735.972 l 1
 543.77 735.972 l 1
 389.769 602.972 l 1
 338.919 602.972 l 1
143.84 249.35 m 0
 121.51 108.05 152.79 50.1699 241.35 50.1699 c 0
 321.65 50.1699 372.27 72.7998 440.27 101.8 c 1
 494.25 459.92 l 1
 444.48 476.58 371.83 493.82 312.35 484.17 c 0
 230.19 470.85 174.51 440.68 143.84 249.35 c 0
90 278.33 m 0
 127.32 498.96 225.32 531 307.32 541 c 0
 377.32 550 503.09 528 554.09 479 c 1
 484.09 0 l 1
 443.96 0 l 1
 436.92 60 l 1
 407.92 41 320.99 -7 243.99 -7 c 0
 129.99 -7 49.6699 39.6396 90 278.33 c 0
EndSplineSet
AlternateSubs2: "'salt' Access All Alternates in Latin lookup 4-1" aacute.salt
Substitution2: "'smcp' Lowercase to Small Capitals lookup 16-1" aacute.smcp
EndChar

StartChar: acircumflex
Encoding: 162 226 84
Width: 542
VWidth: 0
Flags: HW
LayerCount: 2
Fore
SplineSet
214.944 602.972 m 1
 357.894 732.972 l 1
 412.394 732.972 l 1
 500.344 602.972 l 1
 451.184 602.972 l 1
 381.974 696.532 l 1
 274.484 602.972 l 1
 214.944 602.972 l 1
143.84 249.35 m 0
 121.51 108.05 152.79 50.1699 241.35 50.1699 c 0
 321.65 50.1699 372.27 72.7998 440.27 101.8 c 1
 494.25 459.92 l 1
 444.48 476.58 371.83 493.82 312.35 484.17 c 0
 230.19 470.85 174.51 440.68 143.84 249.35 c 0
90 278.33 m 0
 127.32 498.96 225.32 531 307.32 541 c 0
 377.32 550 503.09 528 554.09 479 c 1
 484.09 0 l 1
 443.96 0 l 1
 436.92 60 l 1
 407.92 41 320.99 -7 243.99 -7 c 0
 129.99 -7 49.6699 39.6396 90 278.33 c 0
EndSplineSet
AlternateSubs2: "'salt' Access All Alternates in Latin lookup 4-1" acircumflex.salt
Substitution2: "'smcp' Lowercase to Small Capitals lookup 16-1" acircumflex.smcp
EndChar

StartChar: atilde
Encoding: 163 227 85
Width: 542
VWidth: 0
Flags: HW
LayerCount: 2
Fore
SplineSet
199.457 640.672 m 1
 242.477 672.682 282.826 702.692 323.167 702.692 c 1
 369.536 700.682 399.127 656.492 428.446 655.822 c 0
 457.396 655.152 518.156 687.143 530.757 696.092 c 1
 542.457 665.643 l 1
 500.776 636.662 463.427 602.972 420.087 603.643 c 0
 368.707 604.312 348.807 651.182 313.797 650.512 c 0
 271.776 649.842 245.467 628.522 210.826 610.562 c 1
 199.457 640.672 l 1
143.84 249.35 m 0
 121.51 108.05 152.79 50.1699 241.35 50.1699 c 0
 321.65 50.1699 372.27 72.7998 440.27 101.8 c 1
 494.25 459.92 l 1
 444.48 476.58 371.83 493.82 312.35 484.17 c 0
 230.19 470.85 174.51 440.68 143.84 249.35 c 0
90 278.33 m 0
 127.32 498.96 225.32 531 307.32 541 c 0
 377.32 550 503.09 528 554.09 479 c 1
 484.09 0 l 1
 443.96 0 l 1
 436.92 60 l 1
 407.92 41 320.99 -7 243.99 -7 c 0
 129.99 -7 49.6699 39.6396 90 278.33 c 0
EndSplineSet
AlternateSubs2: "'salt' Access All Alternates in Latin lookup 4-1" atilde.salt
Substitution2: "'smcp' Lowercase to Small Capitals lookup 16-1" atilde.smcp
EndChar

StartChar: adieresis
Encoding: 164 228 86
Width: 542
VWidth: 0
Flags: HW
LayerCount: 2
Fore
SplineSet
451.89 643.082 m 0
 455.23 665.143 476.29 682.192 498.35 682.192 c 0
 520.41 682.192 534.45 665.143 531.11 643.082 c 0
 527.77 621.022 507.71 602.972 485.65 602.972 c 0
 463.59 602.972 448.55 621.022 451.89 643.082 c 0
196.89 643.082 m 0
 200.23 665.143 221.29 682.192 243.35 682.192 c 0
 265.41 682.192 279.45 665.143 276.11 643.082 c 0
 272.77 621.022 252.71 602.972 230.65 602.972 c 0
 208.59 602.972 193.55 621.022 196.89 643.082 c 0
143.84 249.35 m 0
 121.51 108.05 152.79 50.1699 241.35 50.1699 c 0
 321.65 50.1699 372.27 72.7998 440.27 101.8 c 1
 494.25 459.92 l 1
 444.48 476.58 371.83 493.82 312.35 484.17 c 0
 230.19 470.85 174.51 440.68 143.84 249.35 c 0
90 278.33 m 0
 127.32 498.96 225.32 531 307.32 541 c 0
 377.32 550 503.09 528 554.09 479 c 1
 484.09 0 l 1
 443.96 0 l 1
 436.92 60 l 1
 407.92 41 320.99 -7 243.99 -7 c 0
 129.99 -7 49.6699 39.6396 90 278.33 c 0
EndSplineSet
AlternateSubs2: "'salt' Access All Alternates in Latin lookup 4-1" adieresis.salt
Substitution2: "'smcp' Lowercase to Small Capitals lookup 16-1" adieresis.smcp
EndChar

StartChar: aring
Encoding: 165 229 87
Width: 542
VWidth: 0
Flags: HW
LayerCount: 2
Fore
SplineSet
315.643 704.972 m 0
 311.245 669.032 337.808 640.082 373.748 640.082 c 0
 409.688 640.082 441.695 669.032 446.093 704.972 c 0
 450.492 740.912 424.987 770.862 389.047 770.862 c 0
 353.107 770.862 320.042 740.912 315.643 704.972 c 0
279.203 704.972 m 0
 285.514 761.972 336.851 807.972 392.851 807.972 c 0
 448.851 807.972 488.514 761.972 482.203 704.972 c 0
 475.892 647.972 425.944 602.972 369.944 602.972 c 0
 313.944 602.972 272.892 647.972 279.203 704.972 c 0
143.84 249.35 m 0
 121.51 108.05 152.79 50.1699 241.35 50.1699 c 0
 321.65 50.1699 372.27 72.7998 440.27 101.8 c 1
 494.25 459.92 l 1
 444.48 476.58 371.83 493.82 312.35 484.17 c 0
 230.19 470.85 174.51 440.68 143.84 249.35 c 0
90 278.33 m 0
 127.32 498.96 225.32 531 307.32 541 c 0
 377.32 550 503.09 528 554.09 479 c 1
 484.09 0 l 1
 443.96 0 l 1
 436.92 60 l 1
 407.92 41 320.99 -7 243.99 -7 c 0
 129.99 -7 49.6699 39.6396 90 278.33 c 0
EndSplineSet
AlternateSubs2: "'salt' Access All Alternates in Latin lookup 4-1" aring.salt
Substitution2: "'smcp' Lowercase to Small Capitals lookup 16-1" aring.smcp
EndChar

StartChar: ae
Encoding: 166 230 88
Width: 922
VWidth: 0
Flags: HW
LayerCount: 2
Fore
SplineSet
474.06 274.4 m 1
 474.06 274.4 786.11 230.86 809.77 388 c 0
 822.1 467.91 771.17 483.5 677.22 483.5 c 0
 507 483.5 496.36 385.2 474.06 274.4 c 1
103.84 249.35 m 0
 81.51 108.05 106.76 50.84 201.35 50.17 c 0
 273.96 49.5 363.98 78.41 407.53 108.08 c 1
 400.88 152.07 405.22 208.71 417.55 278 c 0
 430.55 348.31 445.21 406.3 471.87 450.95 c 1
 417.81 469.26 331.16 493.82 272.35 484.17 c 0
 190.86 470.85 134.51 440.68 103.84 249.35 c 0
50.67 276.32 m 0
 91.34 504.32 185.98 531 267.98 541 c 0
 331.3 549 444.29 527.71 503.97 488.4 c 1
 540.64 522.36 594.97 541 677.59 541 c 0
 803.59 541 882.6 504 867.6 388 c 0
 839.6 169 505.04 218.6 468.04 233.6 c 1
 447.37 100.03 467.03 49.82 549.91 48.49 c 1
 626.24 44.14 717.29 53.8 795.29 64.8 c 1
 788.27 22 l 1
 704.27 -1 627.55 -7 544.55 -7 c 0
 478.9 -7 437.9 16.99 418.56 66.63 c 1
 376.27 36.95 283.56 -7 203.99 -7 c 0
 89.32 -7 9.67 46.34 50.67 276.32 c 0
EndSplineSet
Substitution2: "'smcp' Lowercase to Small Capitals lookup 16-1" ae.smcp
EndChar

StartChar: ccedilla
Encoding: 167 231 89
Width: 496
VWidth: 0
Flags: HW
LayerCount: 2
Fore
SplineSet
135.44 -172.34 m 1
 139.79 -145.24 l 1
 187.86 -133.54 l 1
 226.11 -122.86 243.37 -97.44 252.34 -36.34 c 1
 271.1 -37.01 302.84 -36.34 302.84 -36.34 c 1
 286.84 -137.68 260.83 -172.34 179.84 -172.34 c 2
 135.44 -172.34 l 1
91.33 268.31 m 0
 133.02 514.38 212.69 537.34 309.33 537.34 c 0
 361.33 537.34 457.4 523.33 522.76 510 c 1
 516.41 469.2 l 1
 516.41 469.2 388.97 479.84 299.97 479.84 c 0
 230.41 479.84 183.17 463.26 147.83 262 c 0
 118.85 94.19 160.09 51.16 232.02 51.16 c 0
 324.02 51.16 459.45 65.46 459.45 65.46 c 1
 452.76 22.66 l 1
 367.76 -0.34 312.36 -6.01 229.36 -5.67 c 0
 128.35 -5 55.67 56.75 91.33 268.31 c 0
EndSplineSet
Substitution2: "'smcp' Lowercase to Small Capitals lookup 16-1" ccedilla.smcp
EndChar

StartChar: egrave
Encoding: 168 232 90
Width: 528
VWidth: 0
Flags: HW
LayerCount: 2
Fore
SplineSet
212.582 734 m 1
 279.452 734 l 1
 383.472 601 l 1
 332.622 601 l 1
 212.582 734 l 1
144.85 274.4 m 1
 144.85 274.4 456.9 230.86 480.56 388 c 0
 492.89 467.91 442.29 483.5 348.34 483.5 c 0
 176.47 483.5 167.15 383.22 144.85 274.4 c 1
88.3398 278 m 0
 117.69 437.37 153.38 541 348.38 541 c 0
 474.38 541 553.39 504 538.39 388 c 0
 510.39 169 175.83 218.6 138.83 233.6 c 1
 118.16 100.03 137.16 49.8203 220.04 48.4902 c 1
 296.37 44.1396 387.41 53.7998 465.41 64.7998 c 1
 459.06 22 l 1
 375.06 -1 297.67 -7 214.67 -7 c 0
 86.6699 -7 53.3301 84 88.3398 278 c 0
EndSplineSet
Substitution2: "'smcp' Lowercase to Small Capitals lookup 16-1" egrave.smcp
EndChar

StartChar: eacute
Encoding: 169 233 91
Width: 528
VWidth: 0
Flags: HW
LayerCount: 2
Fore
SplineSet
332.622 601 m 1
 465.242 734 l 1
 537.472 734 l 1
 383.472 601 l 1
 332.622 601 l 1
144.85 274.4 m 1
 144.85 274.4 456.9 230.86 480.56 388 c 0
 492.89 467.91 442.29 483.5 348.34 483.5 c 0
 176.47 483.5 167.15 383.22 144.85 274.4 c 1
88.3398 278 m 0
 117.69 437.37 153.38 541 348.38 541 c 0
 474.38 541 553.39 504 538.39 388 c 0
 510.39 169 175.83 218.6 138.83 233.6 c 1
 118.16 100.03 137.16 49.8203 220.04 48.4902 c 1
 296.37 44.1396 387.41 53.7998 465.41 64.7998 c 1
 459.06 22 l 1
 375.06 -1 297.67 -7 214.67 -7 c 0
 86.6699 -7 53.3301 84 88.3398 278 c 0
EndSplineSet
Substitution2: "'smcp' Lowercase to Small Capitals lookup 16-1" eacute.smcp
EndChar

StartChar: ecircumflex
Encoding: 170 234 92
Width: 528
VWidth: 0
Flags: HW
LayerCount: 2
Fore
SplineSet
215.347 601 m 1
 358.297 731 l 1
 412.797 731 l 1
 500.747 601 l 1
 451.587 601 l 1
 382.377 694.56 l 1
 274.887 601 l 1
 215.347 601 l 1
144.85 274.4 m 1
 144.85 274.4 456.9 230.86 480.56 388 c 0
 492.89 467.91 442.29 483.5 348.34 483.5 c 0
 176.47 483.5 167.15 383.22 144.85 274.4 c 1
88.3398 278 m 0
 117.69 437.37 153.38 541 348.38 541 c 0
 474.38 541 553.39 504 538.39 388 c 0
 510.39 169 175.83 218.6 138.83 233.6 c 1
 118.16 100.03 137.16 49.8203 220.04 48.4902 c 1
 296.37 44.1396 387.41 53.7998 465.41 64.7998 c 1
 459.06 22 l 1
 375.06 -1 297.67 -7 214.67 -7 c 0
 86.6699 -7 53.3301 84 88.3398 278 c 0
EndSplineSet
Substitution2: "'smcp' Lowercase to Small Capitals lookup 16-1" ecircumflex.smcp
EndChar

StartChar: edieresis
Encoding: 171 235 93
Width: 528
VWidth: 0
Flags: HW
LayerCount: 2
Fore
SplineSet
452.293 641.11 m 0
 455.633 663.17 476.693 680.22 498.753 680.22 c 0
 520.812 680.22 534.853 663.17 531.513 641.11 c 0
 528.173 619.05 508.113 601 486.053 601 c 0
 463.993 601 448.953 619.05 452.293 641.11 c 0
197.293 641.11 m 0
 200.633 663.17 221.693 680.22 243.753 680.22 c 0
 265.812 680.22 279.853 663.17 276.513 641.11 c 0
 273.173 619.05 253.113 601 231.053 601 c 0
 208.993 601 193.953 619.05 197.293 641.11 c 0
144.85 274.4 m 1
 144.85 274.4 456.9 230.86 480.56 388 c 0
 492.89 467.91 442.29 483.5 348.34 483.5 c 0
 176.47 483.5 167.15 383.22 144.85 274.4 c 1
88.3398 278 m 0
 117.69 437.37 153.38 541 348.38 541 c 0
 474.38 541 553.39 504 538.39 388 c 0
 510.39 169 175.83 218.6 138.83 233.6 c 1
 118.16 100.03 137.16 49.8203 220.04 48.4902 c 1
 296.37 44.1396 387.41 53.7998 465.41 64.7998 c 1
 459.06 22 l 1
 375.06 -1 297.67 -7 214.67 -7 c 0
 86.6699 -7 53.3301 84 88.3398 278 c 0
EndSplineSet
Substitution2: "'smcp' Lowercase to Small Capitals lookup 16-1" edieresis.smcp
EndChar

StartChar: igrave
Encoding: 172 236 94
Width: 185
VWidth: 0
Flags: HW
LayerCount: 2
Fore
SplineSet
23.8838 729 m 1
 90.7539 729 l 1
 194.774 596 l 1
 143.924 596 l 1
 23.8838 729 l 1
60 0 m 1
 144 531 l 1
 201.5 531 l 1
 117.5 0 l 1
 60 0 l 1
EndSplineSet
Substitution2: "'smcp' Lowercase to Small Capitals lookup 16-1" igrave.smcp
EndChar

StartChar: iacute
Encoding: 173 237 95
Width: 185
VWidth: 0
Flags: HW
LayerCount: 2
Fore
SplineSet
142.584 596 m 1
 275.204 729 l 1
 347.434 729 l 1
 193.434 596 l 1
 142.584 596 l 1
60 0 m 1
 144 531 l 1
 201.5 531 l 1
 117.5 0 l 1
 60 0 l 1
EndSplineSet
Substitution2: "'smcp' Lowercase to Small Capitals lookup 16-1" iacute.smcp
EndChar

StartChar: icircumflex
Encoding: 174 238 96
Width: 185
VWidth: 0
Flags: HW
LayerCount: 2
Fore
SplineSet
23.9688 596 m 1
 166.919 726 l 1
 221.419 726 l 1
 309.369 596 l 1
 260.209 596 l 1
 190.999 689.56 l 1
 83.5088 596 l 1
 23.9688 596 l 1
60 0 m 1
 144 531 l 1
 201.5 531 l 1
 117.5 0 l 1
 60 0 l 1
EndSplineSet
Substitution2: "'smcp' Lowercase to Small Capitals lookup 16-1" icircumflex.smcp
EndChar

StartChar: idieresis
Encoding: 175 239 97
Width: 185
VWidth: 0
Flags: HW
LayerCount: 2
Fore
SplineSet
258.235 636.11 m 0
 261.575 658.17 282.635 675.22 304.695 675.22 c 0
 326.755 675.22 340.795 658.17 337.455 636.11 c 0
 334.115 614.05 314.055 596 291.995 596 c 0
 269.935 596 254.895 614.05 258.235 636.11 c 0
3.23535 636.11 m 0
 6.5752 658.17 27.6348 675.22 49.6953 675.22 c 0
 71.7549 675.22 85.7949 658.17 82.4551 636.11 c 0
 79.1152 614.05 59.0547 596 36.9951 596 c 0
 14.9346 596 -0.105469 614.05 3.23535 636.11 c 0
60 0 m 1
 144 531 l 1
 201.5 531 l 1
 117.5 0 l 1
 60 0 l 1
EndSplineSet
Substitution2: "'smcp' Lowercase to Small Capitals lookup 16-1" idieresis.smcp
EndChar

StartChar: eth
Encoding: 176 240 98
Width: 540
VWidth: 0
Flags: HW
LayerCount: 2
Fore
SplineSet
136.83 259.98 m 0
 108.18 85.11 153.15 56.82 222.01 58.16 c 1
 317.47 58.16 l 2
 395.23 57.49 445.58 108.21 469.93 259.98 c 0
 491.62 396.78 485.21 473.5 381.74 473.5 c 2
 291.64 473.5 l 2
 218.05 473.5 166.15 437.86 136.83 259.98 c 0
79.33 261.96 m 0
 109.68 444.02 162.99 531 297.99 531 c 2
 390.1 531 l 2
 422.83 531 468.54 515.49 478.56 499.17 c 1
 473.21 549.13 460.19 612.98 420.94 659.88 c 1
 261 599.9 l 1
 250.29 644.72 l 1
 381.8 694.33 l 1
 342.47 722.61 291.48 733.53 238.31 732.52 c 1
 246 783 l 1
 338.66 782.67 400.99 759.71 446.33 717.4 c 1
 575.29 765.72 l 1
 587.33 720.9 l 1
 479.11 680.94 l 1
 559.78 564.54 545.4 372.15 527.43 258 c 0
 498.11 75.08 436.55 0 309.45 0 c 2
 213.99 0 l 2
 76.99 0 54.68 113.78 79.33 261.96 c 0
EndSplineSet
Substitution2: "'smcp' Lowercase to Small Capitals lookup 16-1" eth.smcp
EndChar

StartChar: ograve
Encoding: 178 242 99
Width: 562
VWidth: 0
Flags: HW
LayerCount: 2
Fore
SplineSet
224.901 729 m 1
 291.771 729 l 1
 395.792 596 l 1
 344.941 596 l 1
 224.901 729 l 1
147.16 258 m 0
 116.84 73.1299 175.48 52.5 286.4 52.5 c 0
 398.99 52.5 459.6 74.0898 490.26 258 c 0
 520.91 444.18 472.01 478.5 353.69 478.5 c 0
 239.05 478.5 180.14 457.84 147.16 258 c 0
89.6602 260.31 m 0
 123.66 477.31 191.65 536 360.7 536 c 0
 530.35 536 578.43 442.69 547.76 255.69 c 0
 515.42 59.6797 456.77 -5 284.08 -5 c 0
 110.76 -5 59.6602 70.3096 89.6602 260.31 c 0
EndSplineSet
Substitution2: "'smcp' Lowercase to Small Capitals lookup 16-1" ograve.smcp
EndChar

StartChar: oacute
Encoding: 179 243 100
Width: 562
VWidth: 0
Flags: HW
LayerCount: 2
Fore
SplineSet
344.942 596 m 1
 477.562 729 l 1
 549.792 729 l 1
 395.792 596 l 1
 344.942 596 l 1
147.16 258 m 0
 116.84 73.1299 175.48 52.5 286.4 52.5 c 0
 398.99 52.5 459.6 74.0898 490.26 258 c 0
 520.91 444.18 472.01 478.5 353.69 478.5 c 0
 239.05 478.5 180.14 457.84 147.16 258 c 0
89.6602 260.31 m 0
 123.66 477.31 191.65 536 360.7 536 c 0
 530.35 536 578.43 442.69 547.76 255.69 c 0
 515.42 59.6797 456.77 -5 284.08 -5 c 0
 110.76 -5 59.6602 70.3096 89.6602 260.31 c 0
EndSplineSet
Substitution2: "'smcp' Lowercase to Small Capitals lookup 16-1" oacute.smcp
EndChar

StartChar: ocircumflex
Encoding: 180 244 101
Width: 562
VWidth: 0
Flags: HW
LayerCount: 2
Fore
SplineSet
227.667 596 m 1
 370.617 726 l 1
 425.117 726 l 1
 513.067 596 l 1
 463.907 596 l 1
 394.697 689.56 l 1
 287.207 596 l 1
 227.667 596 l 1
147.16 258 m 0
 116.84 73.1299 175.48 52.5 286.4 52.5 c 0
 398.99 52.5 459.6 74.0898 490.26 258 c 0
 520.91 444.18 472.01 478.5 353.69 478.5 c 0
 239.05 478.5 180.14 457.84 147.16 258 c 0
89.6602 260.31 m 0
 123.66 477.31 191.65 536 360.7 536 c 0
 530.35 536 578.43 442.69 547.76 255.69 c 0
 515.42 59.6797 456.77 -5 284.08 -5 c 0
 110.76 -5 59.6602 70.3096 89.6602 260.31 c 0
EndSplineSet
Substitution2: "'smcp' Lowercase to Small Capitals lookup 16-1" ocircumflex.smcp
EndChar

StartChar: otilde
Encoding: 181 245 102
Width: 562
VWidth: 0
Flags: HW
LayerCount: 2
Fore
SplineSet
206.819 633.7 m 1
 249.84 665.71 290.189 695.72 330.529 695.72 c 1
 376.899 693.71 406.489 649.52 435.81 648.85 c 0
 464.76 648.18 525.52 680.17 538.119 689.12 c 1
 549.819 658.67 l 1
 508.14 629.69 470.789 596 427.449 596.67 c 0
 376.069 597.34 356.17 644.21 321.159 643.54 c 0
 279.14 642.87 252.829 621.55 218.189 603.59 c 1
 206.819 633.7 l 1
147.16 258 m 0
 116.84 73.1299 175.48 52.5 286.4 52.5 c 0
 398.99 52.5 459.6 74.0898 490.26 258 c 0
 520.91 444.18 472.01 478.5 353.69 478.5 c 0
 239.05 478.5 180.14 457.84 147.16 258 c 0
89.6602 260.31 m 0
 123.66 477.31 191.65 536 360.7 536 c 0
 530.35 536 578.43 442.69 547.76 255.69 c 0
 515.42 59.6797 456.77 -5 284.08 -5 c 0
 110.76 -5 59.6602 70.3096 89.6602 260.31 c 0
EndSplineSet
Substitution2: "'smcp' Lowercase to Small Capitals lookup 16-1" otilde.smcp
EndChar

StartChar: odieresis
Encoding: 182 246 103
Width: 562
VWidth: 0
Flags: HW
LayerCount: 2
Fore
SplineSet
464.613 636.11 m 0
 467.953 658.17 489.013 675.22 511.073 675.22 c 0
 533.133 675.22 547.173 658.17 543.833 636.11 c 0
 540.493 614.05 520.433 596 498.373 596 c 0
 476.312 596 461.272 614.05 464.613 636.11 c 0
209.613 636.11 m 0
 212.953 658.17 234.013 675.22 256.073 675.22 c 0
 278.133 675.22 292.173 658.17 288.833 636.11 c 0
 285.493 614.05 265.433 596 243.373 596 c 0
 221.312 596 206.272 614.05 209.613 636.11 c 0
147.16 258 m 0
 116.84 73.1299 175.48 52.5 286.4 52.5 c 0
 398.99 52.5 459.6 74.0898 490.26 258 c 0
 520.91 444.18 472.01 478.5 353.69 478.5 c 0
 239.05 478.5 180.14 457.84 147.16 258 c 0
89.6602 260.31 m 0
 123.66 477.31 191.65 536 360.7 536 c 0
 530.35 536 578.43 442.69 547.76 255.69 c 0
 515.42 59.6797 456.77 -5 284.08 -5 c 0
 110.76 -5 59.6602 70.3096 89.6602 260.31 c 0
EndSplineSet
Substitution2: "'smcp' Lowercase to Small Capitals lookup 16-1" odieresis.smcp
EndChar

StartChar: ntilde
Encoding: 177 241 104
Width: 542
VWidth: 0
Flags: HW
LayerCount: 2
Fore
SplineSet
203.853 637.7 m 1
 246.873 669.71 287.223 699.72 327.562 699.72 c 1
 373.933 697.71 403.522 653.52 432.843 652.85 c 0
 461.793 652.18 522.553 684.17 535.152 693.12 c 1
 546.853 662.67 l 1
 505.173 633.69 467.822 600 424.482 600.67 c 0
 373.103 601.34 353.202 648.21 318.192 647.54 c 0
 276.173 646.87 249.862 625.55 215.223 607.59 c 1
 203.853 637.7 l 1
60 0 m 1
 144 531 l 1
 183.46 531 l 1
 191.5 469 l 1
 257.84 504.99 325.1 540 406.1 540 c 0
 512.1 540 557.1 458 543.1 370 c 2
 484.1 0 l 1
 426.6 0 l 1
 485.6 370 l 2
 496.59 440.29 460.28 482.5 396.74 482.5 c 0
 314.1 482.5 266.82 462.17 184.81 424.18 c 1
 117.5 0 l 1
 60 0 l 1
EndSplineSet
AlternateSubs2: "'salt' Access All Alternates in Latin lookup 4-1" ntilde.salt
Substitution2: "'smcp' Lowercase to Small Capitals lookup 16-1" ntilde.smcp
EndChar

StartChar: oslash
Encoding: 184 248 105
Width: 558
VWidth: 0
Flags: HW
LayerCount: 2
Fore
SplineSet
168.9 79.1 m 1
 193.89 56.49 233.84 52.5 284.44 52.5 c 0
 397.03 52.5 457.64 72.77 488.63 258 c 0
 502.62 341.91 500.3 394.86 483.33 427.84 c 1
 168.9 79.1 l 1
147.5 108.52 m 1
 457.91 454.92 l 1
 433.93 473.51 397.32 478.5 351.72 478.5 c 0
 237.08 478.5 178.51 457.51 145.53 258 c 0
 133.88 186.11 134.87 138.83 147.5 108.52 c 1
51 0 m 1
 104.71 60.05 l 1
 77.05 102.05 73.37 170 88.03 261.63 c 0
 122.03 478.63 190.02 536 359.07 536 c 0
 420.69 536 466.35 523.68 497.36 499.38 c 1
 525.65 531 l 1
 575.81 531 l 1
 523.45 472.97 l 1
 556.45 426.97 562.13 352.67 546.13 255.36 c 0
 513.79 59.35 455.79 -4.67 283.43 -5 c 0
 212.79 -5 161.47 7.66 129.12 34.64 c 1
 97.81 0 l 1
 51 0 l 1
EndSplineSet
Substitution2: "'smcp' Lowercase to Small Capitals lookup 16-1" oslash.smcp
EndChar

StartChar: thorn
Encoding: 190 254 106
Width: 543
VWidth: 0
Flags: HW
LayerCount: 2
Fore
SplineSet
139.19 73.82 m 1
 217.19 50.82 268.88 49.51 332.44 47.5 c 1
 406.27 47.5 463.95 100.03 487.93 269 c 0
 507.89 410.17 472.64 486.52 403.4 483.17 c 0
 335.75 480.49 261.48 453.53 195.48 429.53 c 1
 139.19 73.82 l 1
27 -270 m 1
 194 782 l 1
 251.5 782 l 1
 201.5 471 l 1
 230.5 490 346.1 540 414.1 540 c 0
 538.04 540 565.42 390.31 546.1 264.36 c 0
 528.79 151.82 497.18 -10 327.1 -10 c 0
 282.1 -10 191.5 3 131.5 29 c 1
 84.5 -270 l 1
 27 -270 l 1
EndSplineSet
Substitution2: "'smcp' Lowercase to Small Capitals lookup 16-1" thorn.smcp
EndChar

StartChar: ugrave
Encoding: 185 249 107
Width: 541
VWidth: 0
Flags: HW
LayerCount: 2
Fore
SplineSet
210.992 729 m 1
 277.862 729 l 1
 381.882 596 l 1
 331.032 596 l 1
 210.992 729 l 1
75.6699 161.33 m 2
 134 531.33 l 1
 191.5 531.33 l 1
 133.17 161.33 l 2
 120.84 84.3398 158.49 48.8301 222.03 48.8301 c 0
 304.67 48.8301 351.95 69.1602 433.96 107.15 c 1
 500.6 531.33 l 1
 558.1 531.33 l 1
 474.1 0.330078 l 1
 434.64 0.330078 l 1
 426.6 62.3301 l 1
 360.26 26.3398 294 -8.66992 213 -8.66992 c 0
 107 -8.66992 61 68.6396 75.6699 161.33 c 2
EndSplineSet
AlternateSubs2: "'salt' Access All Alternates in Latin lookup 4-1" ugrave.salt
Substitution2: "'smcp' Lowercase to Small Capitals lookup 16-1" ugrave.smcp
EndChar

StartChar: uacute
Encoding: 186 250 108
Width: 541
VWidth: 0
Flags: HW
LayerCount: 2
Fore
SplineSet
331.032 596 m 1
 463.652 729 l 1
 535.882 729 l 1
 381.882 596 l 1
 331.032 596 l 1
75.6699 161.33 m 2
 134 531.33 l 1
 191.5 531.33 l 1
 133.17 161.33 l 2
 120.84 84.3398 158.49 48.8301 222.03 48.8301 c 0
 304.67 48.8301 351.95 69.1602 433.96 107.15 c 1
 500.6 531.33 l 1
 558.1 531.33 l 1
 474.1 0.330078 l 1
 434.64 0.330078 l 1
 426.6 62.3301 l 1
 360.26 26.3398 294 -8.66992 213 -8.66992 c 0
 107 -8.66992 61 68.6396 75.6699 161.33 c 2
EndSplineSet
AlternateSubs2: "'salt' Access All Alternates in Latin lookup 4-1" uacute.salt
Substitution2: "'smcp' Lowercase to Small Capitals lookup 16-1" uacute.smcp
EndChar

StartChar: ucircumflex
Encoding: 187 251 109
Width: 541
VWidth: 0
Flags: HW
LayerCount: 2
Fore
SplineSet
213.757 596 m 1
 356.707 726 l 1
 411.207 726 l 1
 499.157 596 l 1
 449.997 596 l 1
 380.787 689.56 l 1
 273.297 596 l 1
 213.757 596 l 1
75.6699 161.33 m 2
 134 531.33 l 1
 191.5 531.33 l 1
 133.17 161.33 l 2
 120.84 84.3398 158.49 48.8301 222.03 48.8301 c 0
 304.67 48.8301 351.95 69.1602 433.96 107.15 c 1
 500.6 531.33 l 1
 558.1 531.33 l 1
 474.1 0.330078 l 1
 434.64 0.330078 l 1
 426.6 62.3301 l 1
 360.26 26.3398 294 -8.66992 213 -8.66992 c 0
 107 -8.66992 61 68.6396 75.6699 161.33 c 2
EndSplineSet
AlternateSubs2: "'salt' Access All Alternates in Latin lookup 4-1" ucircumflex.salt
Substitution2: "'smcp' Lowercase to Small Capitals lookup 16-1" ucircumflex.smcp
EndChar

StartChar: udieresis
Encoding: 188 252 110
Width: 541
VWidth: 0
Flags: HW
LayerCount: 2
Fore
SplineSet
450.703 636.11 m 0
 454.043 658.17 475.103 675.22 497.163 675.22 c 0
 519.223 675.22 533.263 658.17 529.923 636.11 c 0
 526.583 614.05 506.523 596 484.463 596 c 0
 462.403 596 447.363 614.05 450.703 636.11 c 0
195.703 636.11 m 0
 199.043 658.17 220.103 675.22 242.163 675.22 c 0
 264.223 675.22 278.263 658.17 274.923 636.11 c 0
 271.583 614.05 251.523 596 229.463 596 c 0
 207.403 596 192.363 614.05 195.703 636.11 c 0
75.6699 161.33 m 2
 134 531.33 l 1
 191.5 531.33 l 1
 133.17 161.33 l 2
 120.84 84.3398 158.49 48.8301 222.03 48.8301 c 0
 304.67 48.8301 351.95 69.1602 433.96 107.15 c 1
 500.6 531.33 l 1
 558.1 531.33 l 1
 474.1 0.330078 l 1
 434.64 0.330078 l 1
 426.6 62.3301 l 1
 360.26 26.3398 294 -8.66992 213 -8.66992 c 0
 107 -8.66992 61 68.6396 75.6699 161.33 c 2
EndSplineSet
AlternateSubs2: "'salt' Access All Alternates in Latin lookup 4-1" udieresis.salt
Substitution2: "'smcp' Lowercase to Small Capitals lookup 16-1" udieresis.smcp
EndChar

StartChar: yacute
Encoding: 189 253 111
Width: 544
VWidth: 0
Flags: HW
LayerCount: 2
Fore
SplineSet
314.33 591 m 1
 446.95 724 l 1
 519.18 724 l 1
 365.18 591 l 1
 314.33 591 l 1
94 531 m 1
 153.51 531 l 1
 223.45 116 l 2
 235.41 49.1797 300.36 59.8398 300.36 59.8398 c 1
 497.32 453.33 l 2
 510 478.68 517.97 500.62 523.31 534.65 c 1
 569.13 534.65 l 1
 579.14 502.97 570.19 467.01 556.5 439.97 c 2
 338.14 1 l 1
 284.54 -103.52 203.39 -254.26 97.6699 -269 c 1
 97.6699 -228.87 l 1
 175.37 -193.69 246.15 -47.5703 270.94 0 c 1
 247.26 0.330078 179.92 10.6602 163.6 110 c 2
 94 531 l 1
EndSplineSet
Substitution2: "'smcp' Lowercase to Small Capitals lookup 16-1" yacute.smcp
EndChar

StartChar: ydieresis
Encoding: 191 255 112
Width: 544
VWidth: 0
Flags: HW
LayerCount: 2
Fore
SplineSet
435.98 642 m 0
 439.32 664.06 460.38 681.11 482.44 681.11 c 0
 504.5 681.11 518.54 664.06 515.2 642 c 0
 511.86 619.94 491.8 601.89 469.74 601.89 c 0
 447.68 601.89 432.64 619.94 435.98 642 c 0
180.98 642 m 0
 184.32 664.06 205.38 681.11 227.44 681.11 c 0
 249.5 681.11 263.54 664.06 260.2 642 c 0
 256.86 619.94 236.8 601.89 214.74 601.89 c 0
 192.68 601.89 177.64 619.94 180.98 642 c 0
94 531 m 1
 153.51 531 l 1
 223.45 116 l 2
 235.41 49.1797 300.36 59.8398 300.36 59.8398 c 1
 497.32 453.33 l 2
 510 478.68 517.97 500.62 523.31 534.65 c 1
 569.13 534.65 l 1
 579.14 502.97 570.19 467.01 556.5 439.97 c 2
 338.14 1 l 1
 284.54 -103.52 203.39 -254.26 97.6699 -269 c 1
 97.6699 -228.87 l 1
 175.37 -193.69 246.15 -47.5703 270.94 0 c 1
 247.26 0.330078 179.92 10.6602 163.6 110 c 2
 94 531 l 1
EndSplineSet
Substitution2: "'smcp' Lowercase to Small Capitals lookup 16-1" ydieresis.smcp
EndChar

StartChar: Thorn
Encoding: 158 222 113
Width: 554
VWidth: 0
Flags: HW
LayerCount: 2
Fore
SplineSet
150.53 209.85 m 1
 354.13 209.85 l 2
 425.35 209.85 475.27 236.08 497.59 377 c 1
 518.9 518.56 446.62 529.5 404.74 529.83 c 2
 201.14 529.83 l 1
 150.53 209.85 l 1
60 0 m 1
 98 243 137 486 175 729 c 1
 232.5 729 l 1
 210.5 588 l 1
 414.1 588 l 2
 481.04 588 580.41 553.35 556.43 373.68 c 0
 529.12 165.66 430.49 152.35 347.78 152.35 c 0
 307.78 152.68 197.27 153.33 144.51 169.05 c 1
 117.5 0 l 1
 60 0 l 1
EndSplineSet
Substitution2: "'c2sc' Capitals to Small Capitals in Latin lookup 17 subtable" thorn.smcp
EndChar

StartChar: uni00B5
Encoding: 117 181 114
Width: 590
VWidth: 0
Flags: HW
LayerCount: 2
Fore
SplineSet
47 -270 m 1
 115 161.33 l 1
 174 531.33 l 1
 231.5 531.33 l 1
 172.5 161.33 l 2
 161.51 91.04 197.82 48.83 261.36 48.83 c 0
 344 48.83 391.28 69.16 473.29 107.15 c 1
 540.6 531.33 l 1
 598.1 531.33 l 1
 514.1 0.33 l 1
 474.64 0.33 l 1
 466.6 62.33 l 1
 400.26 26.34 333 -8.67 252 -8.67 c 0
 206.1 -8.67 173.48 7.92 152.47 33.49 c 1
 104.5 -270 l 1
 47 -270 l 1
EndSplineSet
EndChar

StartChar: germandbls
Encoding: 159 223 115
Width: 562
VWidth: 0
Flags: HW
LayerCount: 2
Fore
SplineSet
60 0 m 1
 150 566 l 2
 168 682 241.31 777 400.06 777 c 0
 695.06 777 608.81 526.23 494.51 458.94 c 1
 438.64 424.38 381.62 407.37 372.28 350.68 c 0
 354.95 246.73 590.1 322.65 566.76 173.31 c 1
 559.76 125.65 l 2
 544.42 22.59 455.65 -8 382.09 -8 c 0
 314.09 -8 246.78 4.69 210.77 9.68 c 1
 217.46 54.5 l 1
 256.47 53.84 323.47 49.5 392.47 49.5 c 0
 458.23 49.5 492.58 91.01 500.25 132 c 2
 507.25 171.97 l 1
 522.89 268.16 289.43 197.96 312.43 348.99 c 0
 322.77 418.06 344.37 437.42 460.06 503.4 c 0
 497.4 525.06 529 567.34 538.63 611.34 c 0
 557.54 695.96 500.54 719.5 398.39 719.5 c 0
 301.48 719.5 225.83 681.98 207.5 566 c 2
 117.5 0 l 1
 60 0 l 1
EndSplineSet
Substitution2: "'smcp' Lowercase to Small Capitals lookup 16-1" germandbls.smcp
EndChar

StartChar: asciitilde
Encoding: 96 126 116
Width: 454
VWidth: 0
Flags: HW
LayerCount: 2
Fore
SplineSet
140 572 m 1
 183.02 604.01 215.33 636.7 263.71 636.7 c 0
 306.06 636.7 331.63 589.16 368.99 589.16 c 0
 407.99 589.16 443.29 616.46 471.3 633.45 c 1
 483 603 l 1
 449.36 575.36 410 534.3 360.63 534.3 c 0
 316.62 534.3 290.02 581.84 253 581.84 c 0
 214.33 581.84 190.03 559.85 151.37 541.89 c 1
 140 572 l 1
EndSplineSet
EndChar

StartChar: asciicircum
Encoding: 64 94 117
Width: 403
VWidth: 0
Flags: HW
LayerCount: 2
Fore
SplineSet
134 531 m 1
 276.95 661.67 l 1
 331.45 661.67 l 1
 419.4 531 l 1
 367.56 531 l 1
 301.7 622.55 l 1
 196.22 531 l 1
 134 531 l 1
EndSplineSet
EndChar

StartChar: grave
Encoding: 66 96 118
Width: 242
VWidth: 0
Flags: HW
LayerCount: 2
Fore
SplineSet
125 664 m 1
 191.87 664 l 1
 295.89 531 l 1
 245.04 531 l 1
 125 664 l 1
EndSplineSet
Substitution2: "'smcp' Lowercase to Small Capitals lookup 16-1" grave.smcp
EndChar

StartChar: dieresis
Encoding: 104 168 119
Width: 451
VWidth: 0
Flags: HW
LayerCount: 2
Fore
SplineSet
396.67 582 m 0
 400.01 604.06 421.07 621.11 443.13 621.11 c 0
 465.19 621.11 479.23 604.06 475.89 582 c 0
 472.55 559.94 452.49 541.89 430.43 541.89 c 0
 408.37 541.89 393.33 559.94 396.67 582 c 0
141.67 582 m 0
 145.01 604.06 166.07 621.11 188.13 621.11 c 0
 210.19 621.11 224.23 604.06 220.89 582 c 0
 217.55 559.94 197.49 541.89 175.43 541.89 c 0
 153.37 541.89 138.33 559.94 141.67 582 c 0
EndSplineSet
Substitution2: "'smcp' Lowercase to Small Capitals lookup 16-1" dieresis.smcp
EndChar

StartChar: acute
Encoding: 116 180 120
Width: 227
VWidth: 0
Flags: HW
LayerCount: 2
Fore
SplineSet
104 531 m 1
 236.62 664 l 1
 308.85 664 l 1
 154.85 531 l 1
 104 531 l 1
EndSplineSet
Substitution2: "'smcp' Lowercase to Small Capitals lookup 16-1" acute.smcp
EndChar

StartChar: cedilla
Encoding: 120 184 121
Width: 257
VWidth: 0
Flags: HW
LayerCount: 2
Fore
SplineSet
22 -173 m 1
 26.35 -145.9 l 1
 74.42 -134.2 l 1
 112.67 -123.52 129.93 -98.1 138.9 -37 c 1
 189.4 -37 l 1
 173.4 -138.34 147.39 -173 66.4 -173 c 2
 22 -173 l 1
EndSplineSet
EndChar

StartChar: exclam
Encoding: 3 33 122
Width: 255
VWidth: 0
Flags: HW
LayerCount: 2
Fore
SplineSet
122.66 198.68 m 1
 200.65 731 l 1
 267.54 731 l 1
 176.87 198.68 l 1
 122.66 198.68 l 1
84.6371 19.37 m 2
 93.9078 78.02 l 2
 95.6658 90.71 103.895 98.73 117.255 98.73 c 2
 157.735 98.73 l 2
 170.425 98.73 175.504 89.71 173.798 78.02 c 2
 164.527 19.37 l 2
 162.769 6.68 154.21 0 142.52 0 c 2
 102.04 0 l 2
 90.35 0 82.9314 7.68 84.6371 19.37 c 2
EndSplineSet
Substitution2: "'smcp' Lowercase to Small Capitals lookup 16-1" exclam.smcp
EndChar

StartChar: degree
Encoding: 112 176 123
Width: 318
VWidth: 0
Flags: HW
LayerCount: 2
Fore
SplineSet
184.44 632 m 0
 181.8 595.73 209.77 566.78 245.71 566.78 c 0
 281.65 566.78 312.58 595.73 315.22 632 c 0
 317.86 668.27 290.89 698.22 254.95 698.22 c 0
 219.01 698.22 187.08 668.27 184.44 632 c 0
148.33 632 m 0
 151.3 689 198.95 735 254.95 735 c 0
 310.95 735 354.3 689 351.33 632 c 0
 348.36 575 302.04 530 246.04 530 c 0
 190.04 530 145.36 575 148.33 632 c 0
EndSplineSet
Substitution2: "'smcp' Lowercase to Small Capitals lookup 16-1" degree.smcp
EndChar

StartChar: period
Encoding: 16 46 124
Width: 238
VWidth: 0
Flags: HW
LayerCount: 2
Fore
SplineSet
82.3571 19.37 m 2
 91.6278 78.02 l 2
 93.3858 90.71 101.615 98.73 114.975 98.73 c 2
 154.115 98.73 l 2
 168.815 98.73 173.894 91.05 171.518 78.02 c 2
 162.247 19.37 l 2
 159.819 4.67 150.59 0 138.9 0 c 2
 99.76 0 l 2
 88.07 0 80.6514 7.68 82.3571 19.37 c 2
EndSplineSet
EndChar

StartChar: periodcentered
Encoding: 119 183 125
Width: 274
VWidth: 0
Flags: HW
LayerCount: 2
Fore
SplineSet
139.67 361.26 m 2
 146.36 403.41 l 2
 148.03 416.1 156.38 424.12 169.74 424.12 c 2
 209.21 424.12 l 2
 223.91 424.12 228.59 416.44 226.25 403.41 c 2
 219.56 361.26 l 2
 217.22 346.56 208.2 341.89 196.51 341.89 c 2
 157.04 341.89 l 2
 145.35 341.89 138 349.57 139.67 361.26 c 2
EndSplineSet
Substitution2: "'smcp' Lowercase to Small Capitals lookup 16-1" periodcentered.smcp
EndChar

StartChar: comma
Encoding: 14 44 126
Width: 235
VWidth: 0
Flags: HW
LayerCount: 2
Fore
SplineSet
70.7957 -81.4 m 1
 74.4593 -57.98 l 1
 99.5093 -58.65 102.99 -41.61 104.643 -32.26 c 2
 109.78 0 l 1
 100.43 0 l 2
 88.74 0 80.6514 7.01 83.0793 21.04 c 2
 91.68 77.68 l 2
 94.1606 92.71 103.059 100.06 116.419 100.06 c 2
 153.89 100.06 l 2
 168.92 100.06 171.658 90.37 169.9 77.68 c 2
 154.666 -19.58 l 2
 142.526 -96.43 70.7957 -81.4 70.7957 -81.4 c 1
EndSplineSet
EndChar

StartChar: bullet
Encoding: 192 8226 127
Width: 318
VWidth: 0
Flags: HW
LayerCount: 2
Fore
SplineSet
139 349.25 m 2
 148.36 412.75 l 2
 151.36 433.75 165.36 447.75 187.36 447.75 c 2
 244.86 447.75 l 2
 269.86 447.75 276.86 434.75 273.86 412.75 c 2
 264.5 349.25 l 2
 260.5 325.25 243.5 317.25 223.5 317.25 c 2
 166 317.25 l 2
 146 317.25 136 329.25 139 349.25 c 2
EndSplineSet
Substitution2: "'smcp' Lowercase to Small Capitals lookup 16-1" bullet.smcp
EndChar

StartChar: quoteleft
Encoding: 193 8216 128
Width: 236
VWidth: 0
Flags: HW
LayerCount: 2
Fore
SplineSet
164.729 560.86 m 2
 180.215 661.51 l 2
 194.166 747.36 274.471 730.33 274.471 730.33 c 1
 270.085 704.57 l 1
 242.088 705.57 237.728 685.87 236.022 675.52 c 2
 231.408 644.55 l 1
 241.758 644.55 l 2
 254.448 644.55 263.814 637.21 261.282 621.18 c 2
 251.959 560.86 l 2
 249.375 543.83 239.423 535.48 224.063 535.48 c 2
 182.583 535.48 l 2
 165.553 535.48 162.249 547.17 164.729 560.86 c 2
EndSplineSet
Substitution2: "'smcp' Lowercase to Small Capitals lookup 16-1" quoteleft.smcp
EndChar

StartChar: quoteright
Encoding: 194 8217 129
Width: 236
VWidth: 0
Flags: HW
LayerCount: 2
Fore
SplineSet
165.407 536.48 m 1
 169.793 562.91 l 1
 197.791 561.91 201.428 581.28 203.134 591.63 c 2
 207.8 622.26 l 1
 197.45 622.26 l 2
 184.76 622.26 175.341 629.94 177.874 645.97 c 2
 188.249 706.62 l 2
 190.891 723.65 200.116 732 215.476 732 c 2
 256.626 732 l 2
 273.656 732 277.988 720.31 275.479 706.62 c 2
 258.941 605.64 l 2
 244.99 519.79 165.407 536.48 165.407 536.48 c 1
EndSplineSet
Substitution2: "'smcp' Lowercase to Small Capitals lookup 16-1" quoteright.smcp
EndChar

StartChar: quotesinglbase
Encoding: 195 8218 130
Width: 236
VWidth: 0
Flags: HW
LayerCount: 2
Fore
SplineSet
65.9288 -86.78 m 1
 70.3146 -61.02 l 1
 98.3124 -62.02 102.002 -41.65 103.708 -31.3 c 2
 108.374 -0.67 l 1
 98.0239 -0.67 l 2
 85.3339 -0.67 75.9153 7.01 78.448 23.04 c 2
 88.4406 83.36 l 2
 91.0258 100.39 100.359 109.07 115.719 109.07 c 2
 156.87 109.07 l 2
 173.9 109.07 178.151 97.05 175.671 83.36 c 2
 159.515 -17.29 l 2
 145.564 -103.14 65.9288 -86.78 65.9288 -86.78 c 1
EndSplineSet
Substitution2: "'smcp' Lowercase to Small Capitals lookup 16-1" quotesinglbase.smcp
EndChar

StartChar: quotedblleft
Encoding: 196 8220 131
Width: 361
VWidth: 0
Flags: HW
LayerCount: 2
Fore
SplineSet
297.137 560.86 m 2
 312.623 661.51 l 2
 326.574 747.36 406.209 730.33 406.209 730.33 c 1
 402.493 704.57 l 1
 374.496 705.57 370.136 685.87 368.43 675.52 c 2
 363.816 644.55 l 1
 374.166 644.55 l 2
 386.856 644.55 396.223 637.21 393.69 621.18 c 2
 384.367 560.86 l 2
 381.782 543.83 371.831 535.48 356.471 535.48 c 2
 315.321 535.48 l 2
 298.291 535.48 294.657 547.17 297.137 560.86 c 2
158.257 560.86 m 2
 173.743 661.51 l 2
 187.694 747.36 266.999 730.33 266.999 730.33 c 1
 263.283 704.57 l 1
 235.286 705.57 231.256 685.87 229.55 675.52 c 2
 224.936 644.55 l 1
 234.956 644.55 l 2
 247.646 644.55 257.343 637.21 254.81 621.18 c 2
 245.487 560.86 l 2
 242.902 543.83 232.621 535.48 217.261 535.48 c 2
 176.111 535.48 l 2
 159.081 535.48 155.777 547.17 158.257 560.86 c 2
EndSplineSet
Substitution2: "'smcp' Lowercase to Small Capitals lookup 16-1" quotedblleft.smcp
EndChar

StartChar: quotedblright
Encoding: 197 8221 132
Width: 361
VWidth: 0
Flags: HW
LayerCount: 2
Fore
SplineSet
297.343 536.48 m 1
 301.729 562.91 l 1
 329.727 561.91 333.364 581.28 335.07 591.63 c 2
 339.736 622.26 l 1
 329.386 622.26 l 2
 316.696 622.26 307.277 629.94 309.81 645.97 c 2
 319.855 706.62 l 2
 322.44 723.65 331.722 732 347.082 732 c 2
 388.562 732 l 2
 405.592 732 409.566 720.31 407.085 706.62 c 2
 390.877 605.64 l 2
 376.926 519.79 297.343 536.48 297.343 536.48 c 1
158.463 536.48 m 1
 162.849 562.91 l 1
 190.847 561.91 194.154 581.28 195.86 591.63 c 2
 200.526 622.26 l 1
 190.506 622.26 l 2
 177.816 622.26 168.397 629.94 170.93 645.97 c 2
 180.975 706.62 l 2
 183.56 723.65 192.842 732 208.202 732 c 2
 249.352 732 l 2
 266.382 732 270.686 720.31 268.205 706.62 c 2
 251.997 605.64 l 2
 238.046 519.79 158.463 536.48 158.463 536.48 c 1
EndSplineSet
Substitution2: "'smcp' Lowercase to Small Capitals lookup 16-1" quotedblright.smcp
EndChar

StartChar: quotedblbase
Encoding: 198 8222 133
Width: 361
VWidth: 0
Flags: HW
LayerCount: 2
Fore
SplineSet
197.771 -85.45 m 1
 202.157 -59.69 l 1
 230.155 -60.69 233.845 -40.32 235.55 -29.97 c 2
 240.217 0.66 l 1
 229.867 0.66 l 2
 217.177 0.66 207.758 8.34 210.291 24.37 c 2
 220.283 84.69 l 2
 222.868 101.72 232.202 110.4 247.562 110.4 c 2
 289.042 110.4 l 2
 306.072 110.4 309.994 98.38 307.513 84.69 c 2
 291.358 -15.96 l 2
 277.407 -101.81 197.771 -85.45 197.771 -85.45 c 1
58.8914 -85.45 m 1
 63.2775 -59.69 l 1
 91.2753 -60.69 94.6346 -40.32 96.3404 -29.97 c 2
 101.007 0.66 l 1
 90.9865 0.66 l 2
 78.2965 0.66 68.8779 8.34 71.4106 24.37 c 2
 81.4035 84.69 l 2
 83.9885 101.72 93.322 110.4 108.682 110.4 c 2
 149.832 110.4 l 2
 166.862 110.4 171.114 98.38 168.633 84.69 c 2
 152.478 -15.96 l 2
 138.527 -101.81 58.8914 -85.45 58.8914 -85.45 c 1
EndSplineSet
Substitution2: "'smcp' Lowercase to Small Capitals lookup 16-1" quotedblbase.smcp
EndChar

StartChar: colon
Encoding: 28 58 134
Width: 240
VWidth: 0
Flags: HW
LayerCount: 2
Fore
SplineSet
151.071 451.65 m 2
 160.394 510.63 l 2
 162.153 523.32 170.381 531.34 183.741 531.34 c 2
 222.881 531.34 l 2
 237.581 531.34 242.66 523.66 240.284 510.63 c 2
 230.961 451.65 l 2
 228.533 436.95 218.686 432.61 206.996 432.61 c 2
 167.856 432.61 l 2
 156.166 432.61 149.365 439.96 151.071 451.65 c 2
84.0071 19.37 m 2
 93.2778 78.02 l 2
 95.0358 90.71 103.265 98.73 116.625 98.73 c 2
 155.765 98.73 l 2
 170.465 98.73 175.544 91.05 173.168 78.02 c 2
 163.897 19.37 l 2
 161.469 4.67 152.24 0 140.55 0 c 2
 101.41 0 l 2
 89.72 0 82.3014 7.68 84.0071 19.37 c 2
EndSplineSet
EndChar

StartChar: semicolon
Encoding: 29 59 135
Width: 239
VWidth: 0
Flags: HW
LayerCount: 2
Fore
SplineSet
152.411 452.32 m 2
 161.734 511.3 l 2
 163.493 523.99 171.721 532.01 185.081 532.01 c 2
 224.221 532.01 l 2
 238.921 532.01 244 524.33 241.624 511.3 c 2
 232.301 452.32 l 2
 229.873 437.62 220.696 433.28 209.006 433.28 c 2
 169.866 433.28 l 2
 158.176 433.28 150.705 440.63 152.411 452.32 c 2
70.7957 -81.4 m 1
 74.4593 -57.98 l 1
 99.5093 -58.65 102.99 -41.61 104.643 -32.26 c 2
 109.78 0 l 1
 100.43 0 l 2
 88.74 0 81.3214 10.36 83.0793 21.04 c 2
 91.68 77.68 l 2
 93.4906 90.03 103.729 100.06 116.419 100.06 c 2
 153.89 100.06 l 2
 166.91 100.06 171.658 90.37 169.9 77.68 c 2
 154.666 -19.58 l 2
 142.526 -96.43 70.7957 -81.4 70.7957 -81.4 c 1
EndSplineSet
EndChar

StartChar: quotedbl
Encoding: 4 34 136
Width: 349
VWidth: 0
Flags: HW
LayerCount: 2
Fore
SplineSet
279.69 531 m 1
 291.01 665 l 1
 302.01 732 l 1
 360.51 732 l 1
 349.51 665 l 1
 319.83 531 l 1
 279.69 531 l 1
156.24 531 m 1
 167.56 665 l 1
 178.56 732 l 1
 237.06 732 l 1
 226.06 665 l 1
 196.38 531 l 1
 156.24 531 l 1
EndSplineSet
Substitution2: "'smcp' Lowercase to Small Capitals lookup 16-1" quotedbl.smcp
EndChar

StartChar: exclamdown
Encoding: 97 161 137
Width: 260
VWidth: 0
Flags: HW
LayerCount: 2
Fore
SplineSet
145.02 385.66 m 2
 154.01 442.63 l 2
 155.808 454.631 165.37 460.67 177.06 461.34 c 2
 213.85 461.34 l 2
 224.2 460.67 232.291 452.299 230.55 440.62 c 2
 221.56 385.66 l 2
 219.22 374.98 212.88 367.3 200.86 364.62 c 1
 159.71 364.62 l 2
 148.36 365.29 144.02 373.97 145.02 385.66 c 2
45 -269.33 m 1
 138.35 263.32 l 1
 192.56 263.32 l 1
 117.25 -269.33 l 1
 45 -269.33 l 1
EndSplineSet
Substitution2: "'case' Case-Sensitive Forms lookup 1-1" exclamdown.alt
Substitution2: "'smcp' Lowercase to Small Capitals lookup 16-1" exclamdown.smcp
EndChar

StartChar: zero
Encoding: 18 48 138
Width: 644
VWidth: 0
Flags: HW
HStem: 0 57.5<169.944 482.577> 674.5 57.5<268.616 577.5>
DStem2: 95 162 152.5 162 0.15733 0.987546<-63.0884 495.67> 530.6 162 588.1 162 0.15733 0.987546<-73.33 485.02>
LayerCount: 2
Fore
SplineSet
152.5 162 m 2
 138.5 70.67 188.5 57.5 250.36 57.5 c 2
 404.46 57.5 l 2
 481.66 57.5 520.28 97.77 530.6 162 c 2
 595.6 570 l 2
 606.25 637.89 583.67 674.5 502.41 674.5 c 2
 348.31 674.5 l 2
 266.01 674.5 226.81 629.86 217.5 570 c 2
 152.5 162 l 2
95 162 m 2
 160 570 l 2
 177.67 682.69 252.62 732 357 732 c 2
 511.1 732 l 2
 632.43 732 666.43 652.96 653.1 570 c 2
 588.1 162 l 2
 569.1 43 500.13 0 395.1 0 c 2
 241 0 l 2
 150 0 76 42 95 162 c 2
EndSplineSet
Substitution2: "'dnom' Denominators lookup 0 subtable" zero.denominator
Substitution2: "'sups' Superscript lookup 2 subtable" zerosuperior
Substitution2: "'onum' Oldstyle Figures in Latin lookup 5-1" zero.oldstyle
Substitution2: "'tnum' Tabular Numbers in Latin lookup 7-1" zero.tnum
Substitution2: "'numr' Numerators lookup 9 subtable" zero.numerator
Substitution2: "'zero' Slashed Zero lookup 20-1" uni0338
Substitution2: "'sinf' Scientific Inferiors lookup 3-1" zeroinferior
Substitution2: "'frac' Diagonal Fractions lookup 13-1" zero.numerator
Substitution2: "'smcp' Lowercase to Small Capitals lookup 16-1" zero.smcp
EndChar

StartChar: one
Encoding: 19 49 139
Width: 375
VWidth: 0
Flags: HW
HStem: 0 21G<222.19 282.805> 0 21G<222.19 282.805> 604.23 40.46<140.68 226.598> 712 20G<292.947 393.69>
VStem: 134 259.69
DStem2: 222.19 0 279.69 0 0.153883 0.988089<8.84826 666.811>
LayerCount: 2
Fore
SplineSet
134 604.23 m 1
 140.68 644.69 l 1
 240.68 644.69 338.19 732 338.19 732 c 1
 393.69 732 l 1
 279.69 0 l 1
 222.19 0 l 1
 327.49 658.45 l 1
 302.2 640.14 230 604.23 134 604.23 c 1
EndSplineSet
Substitution2: "'dnom' Denominators lookup 0 subtable" one.denominator
Substitution2: "'sups' Superscript lookup 2 subtable" onesuperior
Substitution2: "'onum' Oldstyle Figures in Latin lookup 5-1" one.oldstyle
Substitution2: "'tnum' Tabular Numbers in Latin lookup 7-1" one.tnum
Substitution2: "'numr' Numerators lookup 9 subtable" one.numerator
Substitution2: "'sinf' Scientific Inferiors lookup 3-1" oneinferior
Substitution2: "'frac' Diagonal Fractions lookup 13-1" one.numerator
Substitution2: "'smcp' Lowercase to Small Capitals lookup 16-1" one.smcp
EndChar

StartChar: two
Encoding: 20 50 140
Width: 588
VWidth: 0
Flags: HW
HStem: 0 57.5<173.74 533.75> 683.5 58.5<227.511 525.43> 683.5 41.8<154.66 359.159>
LayerCount: 2
Fore
SplineSet
47 0 m 1
 55.69 53.15 l 1
 185.12 136.17 536.28 367.34 562.94 533.34 c 0
 578.9 633.8 539.02 683.5 439.42 683.5 c 2
 147.97 683.5 l 1
 154.66 725.3 l 1
 258.99 738.3 360.9 742 452.1 742 c 0
 591.39 742 634.73 643.61 621.1 531.34 c 0
 599.48 344.67 251.51 108.56 173.74 57.5 c 1
 543.11 57.5 l 1
 533.75 0 l 1
 47 0 l 1
EndSplineSet
Substitution2: "'dnom' Denominators lookup 0 subtable" two.denominator
Substitution2: "'sups' Superscript lookup 2 subtable" twosuperior
Substitution2: "'onum' Oldstyle Figures in Latin lookup 5-1" two.oldstyle
Substitution2: "'tnum' Tabular Numbers in Latin lookup 7-1" two.tnum
Substitution2: "'numr' Numerators lookup 9 subtable" two.numerator
Substitution2: "'sinf' Scientific Inferiors lookup 3-1" twoinferior
Substitution2: "'frac' Diagonal Fractions lookup 13-1" two.numerator
Substitution2: "'smcp' Lowercase to Small Capitals lookup 16-1" two.smcp
EndChar

StartChar: three
Encoding: 21 51 141
Width: 589
VWidth: 0
Flags: HW
HStem: -7 58.5<109.758 416.412> 15.39 36.11<45.35 135.744> 334.58 59.16<204.98 463.337> 341.58 43.48<159.67 348.46> 676.5 57.5<233.294 516.583> 676.5 35.44<142.98 237.987>
DStem2: 475.59 162.65 535.09 161 0.15655 0.98767<-71.2215 134.452 270.143 481.337>
LayerCount: 2
Fore
SplineSet
39 15.39 m 1
 45.35 51.5 l 1
 335.1 51.5 l 2
 393.33 51.5 461.95 79.15 475.59 162.65 c 2
 485.26 221.65 l 2
 501.26 321.65 439.4 332.58 384.41 334.58 c 2
 152.31 341.58 l 1
 159.67 385.06 l 1
 393.77 393.74 l 2
 465.74 396.08 520.6 432.4 531.59 501.32 c 2
 542.26 570.32 l 2
 555.58 653.91 502.28 676.5 440.38 676.5 c 2
 137.63 676.5 l 1
 142.98 711.94 l 1
 225.75 736.34 338.75 736 455.75 734 c 0
 559.34 732 614.76 663.01 599.76 569 c 2
 589.09 500 l 2
 574.77 411.08 519.97 372.36 483.27 364.33 c 1
 518.29 348.61 558.08 305.24 544.76 220 c 2
 535.09 161 l 2
 518.09 52 453.09 -7 331.09 -7 c 0
 217.09 -7 107.15 -8.02 39 15.39 c 1
EndSplineSet
Substitution2: "'dnom' Denominators lookup 0 subtable" three.denominator
Substitution2: "'sups' Superscript lookup 2 subtable" threesuperior
Substitution2: "'onum' Oldstyle Figures in Latin lookup 5-1" three.oldstyle
Substitution2: "'tnum' Tabular Numbers in Latin lookup 7-1" three.tnum
Substitution2: "'numr' Numerators lookup 9 subtable" three.numerator
Substitution2: "'sinf' Scientific Inferiors lookup 3-1" threeinferior
Substitution2: "'frac' Diagonal Fractions lookup 13-1" three.numerator
Substitution2: "'smcp' Lowercase to Small Capitals lookup 16-1" three.smcp
EndChar

StartChar: four
Encoding: 22 52 142
Width: 592
VWidth: 0
Flags: HW
HStem: 195.25 60.18<148.99 449.29 518.16 549.267> 211.28 44.15<561.003 601.47> 712 20G<435.008 521.94>
DStem2: 55 228.29 148.99 255.43 0.617771 0.786358<79.4061 640.561> 418.97 2 478.48 2 0.155869 0.987778<9.27579 195.614 265.793 475.79>
LayerCount: 2
Fore
SplineSet
55 228.29 m 1
 450.72 732 l 1
 521.94 732 l 1
 148.99 255.43 l 1
 458.65 255.43 l 1
 492.97 472 l 1
 535.07 547 l 1
 564.48 547 l 1
 518.16 255.43 l 1
 608.16 255.43 l 1
 601.47 211.28 l 1
 508.8 195.25 l 1
 478.48 2 l 1
 418.97 2 l 1
 449.29 195.25 l 1
 76.4 195.25 l 1
 55 228.29 l 1
EndSplineSet
Substitution2: "'dnom' Denominators lookup 0 subtable" four.denominator
Substitution2: "'sups' Superscript lookup 2 subtable" foursuperior
Substitution2: "'onum' Oldstyle Figures in Latin lookup 5-1" four.oldstyle
Substitution2: "'tnum' Tabular Numbers in Latin lookup 7-1" four.tnum
Substitution2: "'numr' Numerators lookup 9 subtable" four.numerator
Substitution2: "'sinf' Scientific Inferiors lookup 3-1" fourinferior
Substitution2: "'frac' Diagonal Fractions lookup 13-1" four.numerator
Substitution2: "'smcp' Lowercase to Small Capitals lookup 16-1" four.smcp
EndChar

StartChar: five
Encoding: 23 53 143
Width: 610
VWidth: 0
Flags: HW
HStem: -4.67 60.85<154.843 455.676> 14.71 41.47<85.69 285.852> 383.55 58.17<230.273 508.417> 674.5 57.5<261.46 629.3>
DStem2: 124 292.05 178.15 292.05 0.160161 0.987091<8.67272 70.7591 118.528 290.758> 512.49 167.33 569.66 165.33 0.154828 0.987942<-71.4027 181.809>
LayerCount: 2
Fore
SplineSet
79 14.71 m 1
 85.69 56.18 l 1
 387.38 56.18 l 2
 456.71 56.18 503.19 108.87 512.49 167.33 c 2
 528.83 269.7 l 2
 534.82 305.63 542.16 383.55 442.96 383.55 c 2
 291.3 383.55 l 2
 242.73 383.55 187.48 350.01 178.15 292.05 c 1
 124 292.05 l 1
 215.66 732 l 1
 638.66 732 l 1
 629.3 674.5 l 1
 261.46 674.5 l 1
 203.86 399.17 l 1
 219.55 416.85 257.18 439.71 307.38 441.72 c 0
 366.31 445.07 420.34 441.05 450 441.05 c 0
 549.91 441.05 601.33 370.71 586.33 271.7 c 2
 569.66 165.33 l 2
 547.66 28.33 461.76 -4 379.66 -4.67 c 0
 254.32 -5.34 189.2 -4 79 14.71 c 1
EndSplineSet
Substitution2: "'dnom' Denominators lookup 0 subtable" five.denominator
Substitution2: "'sups' Superscript lookup 2 subtable" fivesuperior
Substitution2: "'onum' Oldstyle Figures in Latin lookup 5-1" five.oldstyle
Substitution2: "'tnum' Tabular Numbers in Latin lookup 7-1" five.tnum
Substitution2: "'numr' Numerators lookup 9 subtable" five.numerator
Substitution2: "'sinf' Scientific Inferiors lookup 3-1" fiveinferior
Substitution2: "'frac' Diagonal Fractions lookup 13-1" five.numerator
Substitution2: "'smcp' Lowercase to Small Capitals lookup 16-1" five.smcp
EndChar

StartChar: six
Encoding: 24 54 144
Width: 625
VWidth: 0
Flags: HW
HStem: -0.33 55.49<206.158 474.507> 362.58 57.83<230.975 525.421> 680.5 57.5<298.443 573.731> 680.5 41.8<433.89 634.74>
DStem2: 518.28 151.36 574.77 148 0.153621 0.98813<-67.6903 187.556>
LayerCount: 2
Fore
SplineSet
177.82 362.58 m 1
 157.51 234.72 145.82 55.16 260.34 55.16 c 2
 399.44 55.16 l 2
 442.01 55.16 505.3 69.47 518.28 151.36 c 2
 536.62 270.09 l 2
 548.93 345.61 517.02 362.58 447.09 362.58 c 2
 177.82 362.58 l 1
124 384 m 0
 165.67 646.69 266.03 738 352 738 c 0
 453 738 564.68 733.32 641.43 722.3 c 1
 634.74 680.5 l 1
 353.33 680.5 l 2
 253.8 680.5 200.5 495.95 184.51 402.71 c 1
 271.51 412.71 379.81 419.74 453.81 420.41 c 0
 588.48 421.75 604.43 336.98 594.11 272.4 c 2
 574.77 148 l 2
 556.77 36 488.72 -0.33 394.72 -0.33 c 2
 255.31 -0.33 l 2
 155.69 -0.33 74.66 72.96 124 384 c 0
EndSplineSet
Substitution2: "'dnom' Denominators lookup 0 subtable" six.denominator
Substitution2: "'sups' Superscript lookup 2 subtable" sixsuperior
Substitution2: "'onum' Oldstyle Figures in Latin lookup 5-1" six.oldstyle
Substitution2: "'tnum' Tabular Numbers in Latin lookup 7-1" six.tnum
Substitution2: "'numr' Numerators lookup 9 subtable" six.numerator
Substitution2: "'sinf' Scientific Inferiors lookup 3-1" sixinferior
Substitution2: "'frac' Diagonal Fractions lookup 13-1" six.numerator
Substitution2: "'smcp' Lowercase to Small Capitals lookup 16-1" six.smcp
EndChar

StartChar: seven
Encoding: 25 55 145
Width: 544
VWidth: 0
Flags: HW
HStem: 0 21G<178.51 257.267> 0 21G<178.51 257.267> 674.5 57.5<143.36 536.55>
DStem2: 178.51 0 246.71 0 0.466814 0.884355<31.8367 763.636>
LayerCount: 2
Fore
SplineSet
134 674.5 m 1
 143.36 732 l 1
 595.43 732 l 1
 612.12 692.25 l 1
 246.71 0 l 1
 178.51 0 l 1
 536.55 674.5 l 1
 134 674.5 l 1
EndSplineSet
Substitution2: "'dnom' Denominators lookup 0 subtable" seven.denominator
Substitution2: "'sups' Superscript lookup 2 subtable" sevensuperior
Substitution2: "'onum' Oldstyle Figures in Latin lookup 5-1" seven.oldstyle
Substitution2: "'tnum' Tabular Numbers in Latin lookup 7-1" seven.tnum
Substitution2: "'numr' Numerators lookup 9 subtable" seven.numerator
Substitution2: "'sinf' Scientific Inferiors lookup 3-1" seveninferior
Substitution2: "'frac' Diagonal Fractions lookup 13-1" seven.numerator
Substitution2: "'smcp' Lowercase to Small Capitals lookup 16-1" seven.smcp
EndChar

StartChar: percent
Encoding: 7 37 146
Width: 969
VWidth: 0
Flags: HW
LayerCount: 2
Fore
SplineSet
618.96 125.99 m 2
 608.98 64.78 627.59 49.49 684.82 49.49 c 2
 785.82 49.49 l 2
 848.08 49.49 868.98 64.46 878.96 125.99 c 2
 899.96 258.99 l 2
 909.28 317.56 899 335.49 833.1 335.49 c 2
 732.1 335.49 l 2
 667.17 335.49 649.27 318.51 639.96 258.99 c 2
 618.96 125.99 l 2
570.46 125.99 m 2
 591.46 258.99 l 2
 604.46 342.65 631.77 383.99 739.47 383.99 c 2
 840.47 383.99 l 2
 930.43 383.99 962.13 348.01 948.46 258.99 c 2
 927.46 125.99 l 2
 913.12 35.63 882.13 0.99 779.12 0.99 c 2
 678.12 0.99 l 2
 595.53 0.99 557.46 41.66 570.46 125.99 c 2
225 0 m 1
 779 732 l 1
 833.5 732 l 1
 279.5 0 l 1
 225 0 l 1
163.5 474 m 2
 153.52 412.79 173.13 397.5 230.36 397.5 c 2
 331.36 397.5 l 2
 393.62 397.5 413.52 412.47 423.5 474 c 2
 444.5 607 l 2
 453.82 665.57 444.54 683.5 378.64 683.5 c 2
 277.64 683.5 l 2
 212.71 683.5 193.81 666.52 184.5 607 c 2
 163.5 474 l 2
115 474 m 2
 136 607 l 2
 149 690.66 176.97 732 284.67 732 c 2
 385.67 732 l 2
 475.63 732 506.67 696.02 493 607 c 2
 472 474 l 2
 457.66 383.64 427.67 349 324.66 349 c 2
 223.66 349 l 2
 141.07 349 102 389.67 115 474 c 2
EndSplineSet
Substitution2: "'smcp' Lowercase to Small Capitals lookup 16-1" percent.smcp
EndChar

StartChar: nine
Encoding: 27 57 147
Width: 625
VWidth: 0
Flags: HW
HStem: -1.98 57.5<153.691 429.317> 13.72 41.8<92.69 290.672> 315.61 57.83<203.413 491.889> 680.86 55.49<252.866 523.122>
DStem2: 133.32 465.27 190.15 463.62 0.153621 0.98813<-56.6869 198.799>
LayerCount: 2
Fore
SplineSet
190.15 463.62 m 2
 177.84 388.1 214.7 373.44 281.99 373.44 c 2
 549.61 373.44 l 1
 569.92 501.3 582.93 680.86 468.74 680.86 c 2
 329.31 680.86 l 2
 286.74 680.86 221.14 666.55 208.49 584.66 c 2
 190.15 463.62 l 2
86 13.72 m 1
 92.69 55.52 l 1
 374.1 55.52 l 2
 474.62 55.52 526.93 240.07 542.92 333.31 c 1
 455.92 323.31 345.31 316.28 271.31 315.61 c 0
 136.64 314.27 123 400.69 133.32 465.27 c 2
 152.66 589.67 l 2
 170.66 701.67 243.33 736.35 337.33 736.35 c 2
 474.1 736.35 l 2
 573.72 736.35 653.1 660.09 603.76 349.05 c 0
 562.09 86.36 461.73 -1.98 375.76 -1.98 c 0
 274.76 -1.98 172.8 -1.32 86 13.72 c 1
EndSplineSet
Substitution2: "'dnom' Denominators lookup 0 subtable" nine.denominator
Substitution2: "'sups' Superscript lookup 2 subtable" ninesuperior
Substitution2: "'onum' Oldstyle Figures in Latin lookup 5-1" nine.oldstyle
Substitution2: "'tnum' Tabular Numbers in Latin lookup 7-1" nine.tnum
Substitution2: "'numr' Numerators lookup 9 subtable" nine.numerator
Substitution2: "'sinf' Scientific Inferiors lookup 3-1" nineinferior
Substitution2: "'frac' Diagonal Fractions lookup 13-1" nine.numerator
Substitution2: "'smcp' Lowercase to Small Capitals lookup 16-1" nine.smcp
EndChar

StartChar: eight
Encoding: 26 56 148
Width: 635
VWidth: 0
Flags: HW
HStem: 0 57.5<175.773 468.745> 345.25 56.5<229.744 513.456> 679.5 57.5<269.775 564.637>
DStem2: 99 154 155.83 151 0.154954 0.987922<-55.3259 172.733 292.534 511.625> 513.94 151 573.1 154 0.157756 0.987478<-64.6675 165.901 282.589 499.834>
LayerCount: 2
Fore
SplineSet
209.5 494 m 2
 196.85 415.78 258.12 401.75 302.68 401.75 c 2
 451.78 401.75 l 2
 532.7 401.75 562.27 454.7 568.6 494 c 2
 579.6 562 l 2
 593.92 651.9 565 679.5 491.43 679.5 c 2
 355.99 679.5 l 2
 264.41 679.5 232.49 643.22 220.17 562 c 2
 209.5 494 l 2
155.83 151 m 2
 144.85 81.45 184.71 57.5 261.67 57.5 c 2
 394.46 57.5 l 2
 440.72 57.5 502.96 79.12 513.94 151 c 2
 530.94 256 l 2
 542.58 329.17 491.38 345.25 445.4 345.25 c 2
 294.98 345.25 l 2
 248.98 345.25 183.82 324.6 172.83 256 c 2
 155.83 151 l 2
99 154 m 2
 114 252.33 l 2
 126 326.99 182.95 361.31 227.98 364.66 c 1
 156.04 384.35 145 451.66 153 501.31 c 2
 163.67 566.31 l 1
 184.67 700.98 254.99 737 364.69 737 c 2
 500.79 737 l 2
 604.08 737 655.43 675.98 637.77 561.69 c 1
 627.1 496.69 l 1
 622.79 464.13 593.2 392.04 524.81 380.67 c 1
 583.1 362.01 596.76 301.6 588.1 252 c 1
 573.1 154 l 1
 550.76 15.96 460.12 0 387.41 0 c 2
 252.31 0 l 2
 82.99 0 93 115.68 99 154 c 2
EndSplineSet
Substitution2: "'dnom' Denominators lookup 0 subtable" eight.denominator
Substitution2: "'sups' Superscript lookup 2 subtable" eightsuperior
Substitution2: "'onum' Oldstyle Figures in Latin lookup 5-1" eight.oldstyle
Substitution2: "'tnum' Tabular Numbers in Latin lookup 7-1" eight.tnum
Substitution2: "'numr' Numerators lookup 9 subtable" eight.numerator
Substitution2: "'sinf' Scientific Inferiors lookup 3-1" eightinferior
Substitution2: "'frac' Diagonal Fractions lookup 13-1" eight.numerator
Substitution2: "'smcp' Lowercase to Small Capitals lookup 16-1" eight.smcp
EndChar

StartChar: quotesingle
Encoding: 9 39 149
Width: 168
VWidth: 0
Flags: HW
LayerCount: 2
Fore
SplineSet
130.2 531 m 1
 141.52 665 l 1
 152.52 732 l 1
 211.02 732 l 1
 200.02 665 l 1
 170.34 531 l 1
 130.2 531 l 1
EndSplineSet
Substitution2: "'smcp' Lowercase to Small Capitals lookup 16-1" quotesingle.smcp
EndChar

StartChar: onesuperior
Encoding: 121 185 150
Width: 276
VWidth: 100
Flags: HW
LayerCount: 2
Fore
SplineSet
115 735.23 m 1
 120.02 767 l 1
 200.02 767 269.31 834 269.31 834 c 1
 315.45 834 l 1
 239.45 356 l 1
 191.97 356 l 1
 258.95 774.84 l 1
 241.95 761.84 192 735.23 115 735.23 c 1
EndSplineSet
EndChar

StartChar: twosuperior
Encoding: 114 178 151
Width: 388
VWidth: 100
Flags: HW
LayerCount: 2
Fore
SplineSet
75 356 m 1
 81.69 399.48 l 1
 157.69 453.48 371.51 588.31 389.18 699 c 0
 398.17 757.28 385.17 790.52 314.63 790.52 c 2
 140.98 790.52 l 2
 138.98 790.52 145.33 826.64 146.33 825.64 c 1
 213.33 833.64 259 838 331 838 c 0
 424.31 838 449.65 753.57 440 699.69 c 1
 418.99 561.9 206.58 433.81 173.29 403.48 c 1
 391.69 403.48 l 1
 384 356 l 1
 75 356 l 1
EndSplineSet
EndChar

StartChar: threesuperior
Encoding: 115 179 152
Width: 411
VWidth: 99
Flags: HW
LayerCount: 2
Fore
SplineSet
76 367.69 m 1
 81.69 398.81 l 1
 103.13 398.81 258.03 399.48 258.03 399.48 c 2
 310.55 399.48 348.2 418.46 357.18 475 c 2
 360.85 498 l 2
 369.18 551.97 331.59 572.93 290.98 573.93 c 2
 149.32 578.6 l 1
 155.34 614.06 l 1
 296.36 619.4 l 2
 346.97 621.4 386.85 646.37 392.85 689.67 c 2
 396.18 716.29 l 1
 404.83 769.18 378.96 786.19 326.95 786.19 c 2
 138.64 786.19 l 1
 143.66 818.3 l 1
 199.37 834.67 264.33 833.67 340.33 833 c 0
 420.63 832.33 452.66 777.98 443.66 717.98 c 2
 437.66 681.99 l 2
 429.66 631.69 392.13 597.66 365.45 590.3 c 1
 388.46 577.59 415.65 544.58 408.66 499 c 2
 404.33 470.34 l 2
 393.33 399.34 359.67 351.33 259.33 352 c 0
 185.33 352 125.71 351.32 76 367.69 c 1
EndSplineSet
EndChar

StartChar: ordmasculine
Encoding: 122 186 153
Width: 381
VWidth: 0
Flags: HW
LayerCount: 2
Fore
SplineSet
161.5 550 m 0
 142.84 431.04 176.57 419.82 254.08 419.15 c 0
 324.59 418.48 368.3 426.06 387.96 550 c 0
 407.95 677.29 382.57 690.18 296.7 690.85 c 0
 216.49 691.52 181.82 680.25 161.5 550 c 0
114.68 551.65 m 0
 137.01 690.3 171.36 737 300.37 737.67 c 0
 415.31 738.34 457.78 693.03 434.78 548.35 c 0
 414.78 421.69 381.43 372.33 247.73 372.33 c 0
 130.78 372.33 94.68 424.99 114.68 551.65 c 0
83 277.6 m 1
 89.69 320.75 l 1
 387.45 320.75 l 1
 380.76 277.6 l 1
 83 277.6 l 1
EndSplineSet
Ligature2: "'ordn' Ordinals lookup 21-1" o
Substitution2: "'smcp' Lowercase to Small Capitals lookup 16-1" ordmasculine.smcp
EndChar

StartChar: ordfeminine
Encoding: 106 170 154
Width: 359
VWidth: 0
Flags: HW
LayerCount: 2
Fore
SplineSet
156.16 550.62 m 0
 141.5 457.32 179.83 424.49 227.02 424.49 c 0
 273.02 424.49 310.99 447.15 355.33 478.47 c 1
 382.29 665.6 l 1
 352.2 677.91 301.2 689.86 264.31 684.51 c 0
 213.49 677.82 171.16 649.3 156.16 550.62 c 0
110.68 561.65 m 0
 132.68 705.65 215.01 726.66 263.01 732 c 0
 311.94 737 396.77 718.67 429.44 685.68 c 1
 383.78 381 l 1
 357.7 381 l 1
 351.66 437 l 1
 326.35 408.37 272.01 377 222.01 377 c 0
 164.01 377 88.68 413.65 110.68 561.65 c 0
72 275.59 m 1
 78.69 318.74 l 1
 374.44 318.74 l 1
 367.75 275.59 l 1
 72 275.59 l 1
EndSplineSet
Ligature2: "'ordn' Ordinals lookup 21-1" a
Substitution2: "'smcp' Lowercase to Small Capitals lookup 16-1" ordfeminine.smcp
EndChar

StartChar: slash
Encoding: 17 47 155
Width: 364
VWidth: 0
Flags: HW
LayerCount: 2
Fore
SplineSet
8 -72 m 1
 422 770 l 1
 482.19 770 l 1
 68.19 -72 l 1
 8 -72 l 1
EndSplineSet
Substitution2: "'numr' Numerators lookup 9 subtable" fraction
Substitution2: "'frac' Diagonal Fractions lookup 12-1" fraction
EndChar

StartChar: backslash
Encoding: 62 92 156
Width: 404
VWidth: 0
Flags: HW
LayerCount: 2
Fore
SplineSet
141 770 m 1
 194.84 770 l 1
 342.84 -72 l 1
 289 -72 l 1
 141 770 l 1
EndSplineSet
EndChar

StartChar: bar
Encoding: 94 124 157
Width: 235
VWidth: 0
Flags: HW
LayerCount: 2
Fore
SplineSet
74 -72 m 1
 207 770 l 1
 264.5 770 l 1
 131.5 -72 l 1
 74 -72 l 1
EndSplineSet
EndChar

StartChar: underscore
Encoding: 65 95 158
Width: 664
VWidth: 0
Flags: HW
LayerCount: 2
Fore
SplineSet
19 -1 m 1
 28.36 56.5 l 1
 652.46 56.5 l 1
 643.1 -1 l 1
 19 -1 l 1
EndSplineSet
EndChar

StartChar: hyphen
Encoding: 15 45 159
Width: 347
VWidth: 0
Flags: HW
LayerCount: 2
Fore
SplineSet
60 261.25 m 1
 69.36 318.75 l 1
 373.46 318.75 l 1
 364.1 261.25 l 1
 60 261.25 l 1
EndSplineSet
Substitution2: "'case' Case-Sensitive Forms lookup 1-1" hyphen.alt
Substitution2: "'c2sc' Capitals to Small Capitals in Latin lookup 17 subtable" hyphen.smcp
Substitution2: "'smcp' Lowercase to Small Capitals lookup 16-1" hyphen.smcp
EndChar

StartChar: numbersign
Encoding: 5 35 160
Width: 668
VWidth: 0
Flags: HW
LayerCount: 2
Fore
SplineSet
272.44 276.74 m 1
 444.04 275.74 l 1
 500 454.94 l 1
 328.4 454.94 l 1
 272.44 276.74 l 1
56 237.94 m 1
 68.04 276.74 l 1
 233.64 276.74 l 1
 289.6 454.94 l 1
 124 454.94 l 1
 137.71 493.74 l 1
 302.31 493.74 l 1
 377.95 732 l 1
 416.75 732 l 1
 341.11 493.74 l 1
 513.71 493.74 l 1
 588.35 732 l 1
 627.15 732 l 1
 552.51 493.74 l 1
 729.51 493.74 l 1
 716.13 454.94 l 1
 538.8 454.94 l 1
 482.84 275.74 l 1
 659.84 275.74 l 1
 647.8 236.94 l 1
 470.8 236.94 l 1
 395.15 0 l 1
 356.35 0 l 1
 432 236.94 l 1
 259.4 237.94 l 1
 183.75 0 l 1
 144.95 0 l 1
 220.6 237.94 l 1
 56 237.94 l 1
EndSplineSet
Substitution2: "'smcp' Lowercase to Small Capitals lookup 16-1" numbersign.smcp
EndChar

StartChar: dollar
Encoding: 6 36 161
Width: 574
VWidth: 0
Flags: HW
LayerCount: 2
Fore
SplineSet
80 13.7 m 1
 87.36 54.16 l 1
 128.35 52.84 227.74 48.16 320.74 48.16 c 0
 380.22 48.16 465.59 65.8 479.57 156 c 2
 490.24 224 l 2
 501.22 292.55 496.36 330.25 405.74 330.25 c 2
 284.98 330.25 l 2
 141.37 330.25 122.97 420.61 134.98 494 c 2
 145.31 560 l 1
 168.98 702.65 252 736.66 368.91 738 c 1
 382.58 824 l 1
 427.38 824 l 1
 413.71 735.66 l 1
 474.06 731.32 557.75 720.31 596.75 715.65 c 1
 590.06 672.5 l 1
 535.77 673.82 367.24 681.5 367.24 681.5 c 2
 282.72 685.16 219.12 661.84 202.81 560 c 2
 192.48 494 l 2
 180.5 416.11 209.7 387.75 293.68 387.75 c 2
 415.1 387.75 l 2
 551.45 387.75 560.74 306 547.74 224 c 2
 537.07 156 l 2
 514.74 14.7 402.37 -12.68 295.71 -8 c 1
 282.71 -89.34 l 1
 237.91 -89.34 l 1
 251.58 -4.32 l 1
 190.57 1.03 108.63 9.38 80 13.7 c 1
EndSplineSet
Substitution2: "'smcp' Lowercase to Small Capitals lookup 16-1" dollar.smcp
EndChar

StartChar: zerosuperior
Encoding: 199 8304 162
Width: 460
VWidth: 100
Flags: HW
LayerCount: 2
Fore
SplineSet
137.48 469 m 2
 128.5 413.12 144.42 402.48 200.02 402.48 c 2
 309.02 402.48 l 2
 367.56 402.48 381.87 423.44 389.52 469 c 2
 428.52 716 l 2
 435.84 760.24 429.57 782.52 369.64 782.52 c 2
 260.64 782.52 l 2
 205.06 782.52 183.46 760.53 176.48 716 c 2
 137.48 469 l 2
89.33 465.99 m 2
 129.33 720.99 l 2
 142.33 804.99 196.01 830 264.33 830 c 2
 381.33 830 l 2
 458.97 830 487.33 785.02 476.33 718.02 c 2
 436.33 463.02 l 2
 421.33 367.02 373.35 355 305.33 355 c 2
 188.33 355 l 2
 142.73 355 74 369.34 89.33 465.99 c 2
EndSplineSet
EndChar

StartChar: foursuperior
Encoding: 200 8308 163
Width: 473
VWidth: 100
Flags: HW
LayerCount: 2
Fore
SplineSet
115 510.56 m 1
 368.08 830 l 1
 424.58 830 l 1
 198.6 541 l 1
 393.6 541 l 1
 412.93 662 l 1
 442.33 710 l 1
 468.08 710 l 1
 441.08 541 l 1
 499.41 541 l 1
 493.72 503.52 l 1
 433.39 491.18 l 1
 412.08 356 l 1
 363.93 356 l 1
 385.91 491.18 l 1
 127.72 491.18 l 1
 115 510.56 l 1
EndSplineSet
EndChar

StartChar: fivesuperior
Encoding: 201 8309 164
Width: 413
VWidth: 100
Flags: HW
LayerCount: 2
Fore
SplineSet
79 362.69 m 1
 85.02 398.81 l 1
 296.02 398.81 l 2
 339.6 398.81 365.2 424.45 372.18 469 c 2
 380.85 525 l 2
 385.5 556.24 391.2 594.92 327.97 594.92 c 2
 217.3 594.92 l 2
 185.37 594.92 156.45 573.66 150.12 538 c 1
 106.66 538 l 1
 168.33 830 l 1
 463.33 830 l 1
 455.64 782.52 l 1
 206.79 782.52 l 1
 170.52 613.5 l 1
 205.84 653.06 289.18 642.4 337.68 642.4 c 0
 404.63 642.4 440.33 600 429.33 529 c 2
 418.66 465 l 2
 404.32 376.3 358.01 350.33 292.33 351 c 0
 211.33 351.67 147.5 350.66 79 362.69 c 1
EndSplineSet
EndChar

StartChar: sixsuperior
Encoding: 202 8310 165
Width: 411
VWidth: 100
Flags: HW
LayerCount: 2
Fore
SplineSet
149.13 579.93 m 1
 136.54 499.74 135.69 403.15 201.33 403.15 c 2
 309.67 403.15 l 2
 350.92 403.15 372.53 423.43 379.85 466.03 c 2
 390.84 530.66 l 2
 397.83 573.59 375.56 579.93 337.64 579.93 c 2
 149.13 579.93 l 1
105.66 605.67 m 0
 137.99 802.67 199.33 835.01 256.96 835.67 c 0
 323.29 836.33 402.53 835.67 468.32 825.65 c 1
 462.3 788.19 l 1
 257.97 788.19 l 2
 190.72 788.19 167.78 693.16 154.48 615.72 c 1
 210.48 621.72 300.33 626.74 348.33 627.41 c 0
 422.93 628.08 445.32 576.99 437.99 532.02 c 2
 426.66 459.68 l 2
 415.33 387.68 375.34 355.67 306.97 355.67 c 2
 195.65 355.67 l 2
 131.69 355.67 72.34 403.39 105.66 605.67 c 0
EndSplineSet
EndChar

StartChar: sevensuperior
Encoding: 203 8311 166
Width: 418
VWidth: 100
Flags: HW
LayerCount: 2
Fore
SplineSet
124 784.52 m 1
 131.69 832 l 1
 452.66 832 l 1
 463.68 806.28 l 1
 209.69 356 l 1
 155.86 356 l 1
 398.8 784.52 l 1
 124 784.52 l 1
EndSplineSet
EndChar

StartChar: eightsuperior
Encoding: 204 8312 167
Width: 409
VWidth: 100
Flags: HW
LayerCount: 2
Fore
SplineSet
205.48 682 m 2
 198.15 635.03 226.12 619.74 255.71 619.74 c 2
 373.31 619.74 l 2
 418 619.74 439.2 649.76 444.52 682 c 2
 449.52 714 l 2
 459.17 773.88 441.23 787.52 393.99 787.52 c 2
 293.64 787.52 l 2
 243.06 787.52 219.46 771.22 210.48 714 c 2
 205.48 682 l 2
170.48 462 m 2
 163.83 419.11 175.45 402.15 230.04 402.15 c 2
 338.69 402.15 l 2
 376.92 402.15 403.21 416.78 410.19 462 c 2
 417.52 512 l 2
 424.18 554.28 399.29 571.59 370.29 571.59 c 2
 251.32 571.59 l 2
 213.4 571.59 184.81 553.32 178.48 512.66 c 2
 170.48 462 l 2
122 458 m 2
 132.33 517.65 l 2
 140.33 565.65 179.95 583.63 206.95 589.32 c 1
 163 606.69 152 647.67 157 678.99 c 2
 164 718.99 l 1
 179 810.99 229.67 835 296.67 835 c 2
 409.35 835 l 2
 468.63 835 510.66 795.3 498 717.34 c 2
 491.67 677.34 l 2
 488.68 656.74 469.73 608.7 421.4 600.68 c 1
 455.41 589.32 470.99 549.61 466 516 c 2
 456.67 458 l 2
 443 369.31 397 354 337.31 354 c 2
 219.01 354 l 2
 136.39 354 113.67 404.67 122 458 c 2
EndSplineSet
EndChar

StartChar: ninesuperior
Encoding: 205 8313 168
Width: 473
VWidth: 100
Flags: HW
LayerCount: 2
Fore
SplineSet
198.48 661.01 m 2
 191.49 618.08 213.1 611.74 251.02 611.74 c 2
 439.53 611.74 l 1
 452.12 691.93 452.3 788.52 386.66 788.52 c 2
 278.65 788.52 l 2
 237.4 788.52 215.13 768.24 208.14 725.64 c 2
 198.48 661.01 l 2
120 366.02 m 1
 126.02 403.48 l 1
 330.35 403.48 l 2
 397.6 403.48 420.21 498.51 433.51 575.95 c 1
 377.51 569.95 288.32 564.93 240.32 564.26 c 0
 165.72 563.59 143 614.02 150.33 658.99 c 2
 161.33 732.98 l 2
 172.33 804.98 214.96 836 283.33 836 c 2
 391.68 836 l 2
 455.64 836 516.32 788.28 483 586 c 0
 450.67 389 388.66 356.66 331.03 356 c 0
 264.7 355.34 175.74 354.66 120 366.02 c 1
EndSplineSet
EndChar

StartChar: zeroinferior
Encoding: 206 8320 169
Width: 469
VWidth: -150
Flags: HW
LayerCount: 2
Fore
SplineSet
153.48 -86.67 m 2
 144.5 -142.55 160.42 -153.19 216.02 -153.19 c 2
 325.02 -153.19 l 2
 383.56 -153.19 397.87 -132.23 405.52 -86.67 c 2
 444.52 160.33 l 2
 451.84 204.57 445.57 226.85 385.64 226.85 c 2
 276.64 226.85 l 2
 221.06 226.85 199.46 204.86 192.48 160.33 c 2
 153.48 -86.67 l 2
105.33 -89.68 m 2
 145.33 165.32 l 2
 158.33 249.32 212.01 274.33 280.33 274.33 c 2
 397.33 274.33 l 2
 474.97 274.33 503.33 229.35 492.33 162.35 c 2
 452.33 -92.65 l 2
 437.33 -188.65 389.35 -200.67 321.33 -200.67 c 2
 204.33 -200.67 l 2
 158.73 -200.67 90 -186.33 105.33 -89.68 c 2
EndSplineSet
EndChar

StartChar: oneinferior
Encoding: 207 8321 170
Width: 288
VWidth: -150
Flags: HW
LayerCount: 2
Fore
SplineSet
43 179.56 m 1
 48.02 211.33 l 1
 128.02 211.33 197.31 278.33 197.31 278.33 c 1
 243.45 278.33 l 1
 167.45 -199.67 l 1
 119.97 -199.67 l 1
 186.95 219.17 l 1
 169.95 206.17 120 179.56 43 179.56 c 1
EndSplineSet
EndChar

StartChar: twoinferior
Encoding: 208 8322 171
Width: 441
VWidth: -150
Flags: HW
LayerCount: 2
Fore
SplineSet
43 -199.67 m 1
 49.69 -156.19 l 1
 125.69 -102.19 339.51 32.64 357.18 143.33 c 0
 366.17 201.61 353.17 234.85 282.63 234.85 c 2
 108.98 234.85 l 2
 106.98 234.85 113.33 270.97 114.33 269.97 c 1
 181.33 277.97 227 282.33 299 282.33 c 0
 392.31 282.33 417.65 197.9 408 144.02 c 1
 386.99 6.23 174.58 -121.86 141.29 -152.19 c 1
 359.69 -152.19 l 1
 352 -199.67 l 1
 43 -199.67 l 1
EndSplineSet
EndChar

StartChar: threeinferior
Encoding: 209 8323 172
Width: 388
VWidth: -150
Flags: HW
LayerCount: 2
Fore
SplineSet
3 -187.98 m 1
 8.02 -156.86 l 1
 29.46 -156.86 185.03 -156.19 185.03 -156.19 c 2
 237.55 -156.19 275.2 -137.21 284.18 -80.67 c 2
 287.85 -57.67 l 2
 296.18 -3.7 258.59 17.26 217.98 18.26 c 2
 76.32 22.93 l 1
 82.34 58.39 l 1
 223.36 63.73 l 2
 273.97 65.73 313.85 90.7 319.85 134 c 2
 323.18 160.62 l 1
 331.83 213.51 305.96 230.52 253.95 230.52 c 2
 65.64 230.52 l 1
 70.66 262.63 l 1
 126.37 279 191.33 278 267.33 277.33 c 0
 347.63 276.66 379.66 222.31 370.66 162.31 c 2
 364.66 126.32 l 2
 356.66 76.02 319.13 41.99 292.45 34.63 c 1
 315.46 21.92 342.65 -11.09 335.66 -56.67 c 2
 331.33 -85.33 l 2
 320.33 -156.33 286.67 -204.34 186.33 -203.67 c 0
 112.33 -203.67 52.71 -204.35 3 -187.98 c 1
EndSplineSet
EndChar

StartChar: fourinferior
Encoding: 210 8324 173
Width: 426
VWidth: -150
Flags: HW
LayerCount: 2
Fore
SplineSet
4 -45.11 m 1
 257.08 274.33 l 1
 313.58 274.33 l 1
 87.6 -14.67 l 1
 282.6 -14.67 l 1
 301.93 106.33 l 1
 331.33 154.33 l 1
 357.08 154.33 l 1
 330.08 -14.67 l 1
 388.41 -14.67 l 1
 382.72 -52.15 l 1
 322.39 -64.49 l 1
 301.08 -199.67 l 1
 252.93 -199.67 l 1
 274.91 -64.49 l 1
 16.72 -64.49 l 1
 4 -45.11 l 1
EndSplineSet
EndChar

StartChar: fiveinferior
Encoding: 211 8325 174
Width: 411
VWidth: -150
Flags: HW
LayerCount: 2
Fore
SplineSet
7 -192.98 m 1
 13.02 -156.86 l 1
 224.02 -156.86 l 2
 267.6 -156.86 293.2 -131.22 300.18 -86.67 c 2
 308.85 -30.67 l 2
 313.5 0.570001 319.2 39.25 255.97 39.25 c 2
 145.3 39.25 l 2
 113.37 39.25 84.45 17.99 78.12 -17.67 c 1
 34.66 -17.67 l 1
 96.33 274.33 l 1
 391.33 274.33 l 1
 383.64 226.85 l 1
 134.79 226.85 l 1
 98.52 57.83 l 1
 133.84 97.39 217.18 86.73 265.68 86.73 c 0
 332.63 86.73 368.33 44.33 357.33 -26.67 c 2
 346.66 -90.67 l 2
 332.32 -179.37 286.01 -205.34 220.33 -204.67 c 0
 139.33 -204 75.5 -205.01 7 -192.98 c 1
EndSplineSet
EndChar

StartChar: sixinferior
Encoding: 212 8326 175
Width: 410
VWidth: -150
Flags: HW
LayerCount: 2
Fore
SplineSet
77.13 24.26 m 1
 64.54 -55.93 63.69 -152.52 129.33 -152.52 c 2
 237.67 -152.52 l 2
 278.92 -152.52 300.53 -132.24 307.85 -89.64 c 2
 318.84 -25.01 l 2
 325.83 17.92 303.56 24.26 265.64 24.26 c 2
 77.13 24.26 l 1
33.66 50 m 0
 65.99 247 127.33 279.34 184.96 280 c 0
 251.29 280.66 337.23 280 396.32 269.98 c 1
 390.3 232.52 l 1
 185.97 232.52 l 2
 118.72 232.52 95.78 137.49 82.48 60.05 c 1
 138.48 66.05 228.33 71.07 276.33 71.74 c 0
 350.93 72.41 373.32 21.32 365.99 -23.65 c 2
 354.66 -95.99 l 2
 343.33 -167.99 303.34 -200 234.97 -200 c 2
 123.65 -200 l 2
 59.69 -200 0.34 -152.28 33.66 50 c 0
EndSplineSet
EndChar

StartChar: seveninferior
Encoding: 213 8327 176
Width: 417
VWidth: -150
Flags: HW
LayerCount: 2
Fore
SplineSet
52 228.85 m 1
 59.69 276.33 l 1
 380.66 276.33 l 1
 391.68 250.61 l 1
 137.69 -199.67 l 1
 83.86 -199.67 l 1
 326.8 228.85 l 1
 52 228.85 l 1
EndSplineSet
EndChar

StartChar: eightinferior
Encoding: 214 8328 177
Width: 410
VWidth: -150
Flags: HW
LayerCount: 2
Fore
SplineSet
133.48 126.33 m 2
 126.15 79.36 154.12 64.07 183.71 64.07 c 2
 301.31 64.07 l 2
 346 64.07 367.2 94.09 372.52 126.33 c 2
 377.52 158.33 l 2
 387.17 218.21 369.23 231.85 321.99 231.85 c 2
 221.64 231.85 l 2
 171.06 231.85 147.46 215.55 138.48 158.33 c 2
 133.48 126.33 l 2
98.48 -93.67 m 2
 91.83 -136.56 103.45 -153.52 158.04 -153.52 c 2
 266.69 -153.52 l 2
 304.92 -153.52 331.21 -138.89 338.19 -93.67 c 2
 345.52 -43.67 l 2
 352.18 -1.39 327.29 15.92 298.29 15.92 c 2
 179.32 15.92 l 2
 141.4 15.92 112.81 -2.35 106.48 -43.01 c 2
 98.48 -93.67 l 2
50 -97.67 m 2
 60.33 -38.02 l 2
 68.33 9.98 107.95 27.96 134.95 33.65 c 1
 91 51.02 80 92 85 123.32 c 2
 92 163.32 l 1
 107 255.32 157.67 279.33 224.67 279.33 c 2
 337.35 279.33 l 2
 396.63 279.33 438.66 239.63 426 161.67 c 2
 419.67 121.67 l 2
 416.68 101.07 397.73 53.03 349.4 45.01 c 1
 383.41 33.65 398.99 -6.06 394 -39.67 c 2
 384.67 -97.67 l 2
 371 -186.36 325 -201.67 265.31 -201.67 c 2
 147.01 -201.67 l 2
 64.39 -201.67 41.67 -151 50 -97.67 c 2
EndSplineSet
EndChar

StartChar: nineinferior
Encoding: 215 8329 178
Width: 471
VWidth: -150
Flags: HW
LayerCount: 2
Fore
SplineSet
126.48 105.34 m 2
 119.49 62.41 141.1 56.07 179.02 56.07 c 2
 367.53 56.07 l 1
 380.12 136.26 380.3 232.85 314.66 232.85 c 2
 206.65 232.85 l 2
 165.4 232.85 143.13 212.57 136.14 169.97 c 2
 126.48 105.34 l 2
48 -189.65 m 1
 54.02 -152.19 l 1
 258.35 -152.19 l 2
 325.6 -152.19 348.21 -57.16 361.51 20.28 c 1
 305.51 14.28 216.32 9.26 168.32 8.59 c 0
 93.72 7.92 71 58.35 78.33 103.32 c 2
 89.33 177.31 l 2
 100.33 249.31 142.96 280.33 211.33 280.33 c 2
 319.68 280.33 l 2
 383.64 280.33 444.32 232.61 411 30.33 c 0
 378.67 -166.67 316.66 -199.01 259.03 -199.67 c 0
 192.7 -200.33 99.05 -201.01 48 -189.65 c 1
EndSplineSet
EndChar

StartChar: zero.oldstyle
Encoding: 216 -1 179
Width: 624
VWidth: 0
Flags: HW
HStem: 0 57.5<165.808 477.844> 574.17 57.5<245.272 555.365>
DStem2: 89 162 146.5 162 0.156246 0.987718<-63.06 391.179> 524.6 162 582.1 162 0.156246 0.987718<-73.3335 382.987>
LayerCount: 2
Fore
SplineSet
146.5 162 m 2
 132.5 70.6699 182.5 57.5 244.36 57.5 c 2
 398.46 57.5 l 2
 475.66 57.5 514.28 97.7695 524.6 162 c 2
 573.27 469.67 l 2
 583.92 537.56 561.67 574.17 480.41 574.17 c 2
 326.31 574.17 l 2
 244.01 574.17 204.48 529.53 195.17 469.67 c 2
 146.5 162 l 2
89 162 m 2
 137.67 469.67 l 2
 155.34 582.36 228.97 631.67 333.35 631.67 c 2
 487.45 631.67 l 2
 610.43 631.67 644.1 551.31 630.77 469.67 c 2
 582.1 162 l 2
 563.1 43 495.78 0 390.75 0 c 2
 237.31 0 l 2
 146.31 0 70 42 89 162 c 2
EndSplineSet
Substitution2: "'tnum' Tabular Numbers in Latin lookup 7-1" zero.tosf
Substitution2: "'lnum' Lining Figures lookup 19-1" zero
EndChar

StartChar: one.oldstyle
Encoding: 217 -1 180
Width: 360
VWidth: 0
Flags: HW
HStem: 0 21G<196.52 257.153> 0 21G<196.52 257.153> 506.24 40.46<98.68 184.598>
VStem: 92 261.03
DStem2: 196.52 0 254.02 0 0.154774 0.98795<8.89948 568.242>
LayerCount: 2
Fore
SplineSet
92 506.24 m 1
 98.68 546.7 l 1
 198.68 546.7 296.19 634.01 296.19 634.01 c 1
 353.03 632 l 1
 254.02 0 l 1
 196.52 0 l 1
 286.16 561.13 l 1
 258.86 540.81 188 506.24 92 506.24 c 1
EndSplineSet
Substitution2: "'tnum' Tabular Numbers in Latin lookup 7-1" one.tosf
Substitution2: "'lnum' Lining Figures lookup 19-1" one
EndChar

StartChar: two.oldstyle
Encoding: 218 -1 181
Width: 612
VWidth: 0
Flags: HW
HStem: 0 57.5<188.76 533.1> 580.83 57.1699<214.762 515.383>
LayerCount: 2
Fore
SplineSet
48 0 m 1
 56.6904 53.1504 l 1
 196.22 125.27 525.59 303.36 549.25 453 c 0
 563.56 542.17 523.74 582.17 423.78 580.83 c 0
 390.28 580.83 133.3 580.16 133.3 580.16 c 1
 140.66 621.3 l 1
 226.16 633.32 318.08 639.65 436.1 638 c 1
 590.17 638 620.73 545.6 609.43 449.35 c 0
 590.8 276.98 251.75 87.5 188.76 57.5 c 1
 542.46 57.5 l 1
 533.1 0 l 1
 48 0 l 1
EndSplineSet
Substitution2: "'tnum' Tabular Numbers in Latin lookup 7-1" two.tosf
Substitution2: "'lnum' Lining Figures lookup 19-1" two
EndChar

StartChar: three.oldstyle
Encoding: 219 -1 182
Width: 590
VWidth: 0
Flags: HW
HStem: -103.31 58.5<117.688 424.14> -80.92 36.11<53.35 143.633> 238.27 59.16<212.98 468.837> 245.27 43.48<167.67 356.46> 580.19 57.5<241.128 524.044> 580.19 35.44<150.98 245.807>
DStem2: 483.59 64.69 543.09 63.7 0.161268 0.986911<-73.6187 132.87 273.393 481.61>
LayerCount: 2
Fore
SplineSet
47 -80.92 m 1
 53.35 -44.81 l 1
 343.1 -44.81 l 2
 401.33 -44.81 469.95 -18.81 483.59 64.69 c 2
 493.26 123.69 l 2
 509.26 223.69 447.4 236.27 392.41 238.27 c 2
 160.31 245.27 l 1
 167.67 288.75 l 1
 401.77 297.43 l 2
 473.74 299.77 528.6 334.77 539.59 403.69 c 2
 550.26 472.69 l 2
 563.58 556.28 510.28 580.19 448.38 580.19 c 2
 145.63 580.19 l 1
 150.98 615.63 l 1
 233.75 640.03 346.09 639.69 463.09 637.69 c 0
 566.68 635.69 623.09 565.38 608.09 471.37 c 2
 597.09 401.71 l 2
 582.44 312.79 527.97 276.05 491.27 268.02 c 1
 526.29 252.3 566.08 207.94 552.76 122.7 c 2
 543.09 63.7 l 2
 526.09 -45.3 460.76 -103.31 338.76 -103.31 c 0
 224.76 -103.31 115.15 -104.33 47 -80.92 c 1
EndSplineSet
Substitution2: "'tnum' Tabular Numbers in Latin lookup 7-1" three.tosf
Substitution2: "'lnum' Lining Figures lookup 19-1" three
EndChar

StartChar: four.oldstyle
Encoding: 220 -1 183
Width: 602
VWidth: 0
Flags: HW
HStem: 95.25 60.18<137.99 438.29 507.16 538.267> 111.28 44.15<550.003 590.47>
DStem2: 44 128.29 137.99 155.43 0.617771 0.786358<79.4061 640.561> 407.97 -98 467.48 -98 0.155869 0.987778<9.27579 195.614 265.793 475.79>
LayerCount: 2
Fore
SplineSet
44 128.29 m 1
 439.72 632 l 1
 510.94 632 l 1
 137.99 155.43 l 1
 447.65 155.43 l 1
 481.97 372 l 1
 524.07 447 l 1
 553.48 447 l 1
 507.16 155.43 l 1
 597.16 155.43 l 1
 590.47 111.28 l 1
 497.8 95.25 l 1
 467.48 -98 l 1
 407.97 -98 l 1
 438.29 95.25 l 1
 65.4 95.25 l 1
 44 128.29 l 1
EndSplineSet
Substitution2: "'tnum' Tabular Numbers in Latin lookup 7-1" four.tosf
Substitution2: "'lnum' Lining Figures lookup 19-1" four
EndChar

StartChar: five.oldstyle
Encoding: 221 -1 184
Width: 597
VWidth: 0
Flags: HW
HStem: -103.33 60.85<114.937 415.379> -83.95 41.47<45.69 236.88> 283.55 58.17<192.995 468.492> 574.5 57.5<222.13 589.3>
DStem2: 84 192.05 138.82 192.05 0.160919 0.986968<8.82156 70.9239 118.683 295.126> 472.49 68.67 529.66 66.67 0.156755 0.987638<-71.028 180.618>
LayerCount: 2
Fore
SplineSet
39 -83.95 m 1
 45.69 -42.48 l 1
 347.38 -42.48 l 2
 416.71 -42.48 463.19 10.21 472.49 68.67 c 2
 488.83 169.7 l 2
 494.82 205.63 502.16 283.55 402.96 283.55 c 2
 251.97 283.55 l 2
 203.4 283.55 148.15 250.01 138.82 192.05 c 1
 84 192.05 l 1
 175.66 632 l 1
 598.66 632 l 1
 589.3 574.5 l 1
 222.13 574.5 l 1
 164.53 299.17 l 1
 180.89 316.85 218.52 339.71 268.72 341.72 c 0
 326.98 344.4 381.01 341.05 410 341.05 c 0
 509.91 341.05 562 270.71 546.33 171.7 c 2
 529.66 66.67 l 2
 507.66 -70.33 421.09 -99.98 339.66 -103.33 c 0
 214.99 -108.02 149.2 -102.66 39 -83.95 c 1
EndSplineSet
Substitution2: "'tnum' Tabular Numbers in Latin lookup 7-1" five.tosf
Substitution2: "'lnum' Lining Figures lookup 19-1" five
EndChar

StartChar: six.oldstyle
Encoding: 222 -1 185
Width: 603
VWidth: 0
Flags: HW
HStem: -0.33 55.49<160.158 428.507> 362.58 57.83<184.975 479.421> 680.5 57.5<252.443 528.074> 680.5 41.8<391.139 588.74>
DStem2: 472.28 151.36 528.77 148 0.153621 0.98813<-67.6903 187.556>
LayerCount: 2
Fore
SplineSet
131.82 362.58 m 1
 111.51 234.72 99.82 55.16 214.34 55.16 c 2
 353.44 55.16 l 2
 396.01 55.16 459.3 69.47 472.28 151.36 c 2
 490.62 270.09 l 2
 502.93 345.61 471.02 362.58 401.09 362.58 c 2
 131.82 362.58 l 1
78 384 m 0
 119.67 646.69 220.03 738 306 738 c 0
 407 738 509.3 729.3 595.43 722.3 c 1
 588.74 680.5 l 1
 307.33 680.5 l 2
 207.8 680.5 154.5 495.95 138.51 402.71 c 1
 225.51 412.71 333.81 419.74 407.81 420.41 c 0
 542.48 421.75 558.43 336.98 548.11 272.4 c 2
 528.77 148 l 2
 510.77 36 442.72 -0.33 348.72 -0.33 c 2
 209.31 -0.33 l 2
 109.69 -0.33 28.66 72.96 78 384 c 0
EndSplineSet
Substitution2: "'tnum' Tabular Numbers in Latin lookup 7-1" six.tosf
Substitution2: "'lnum' Lining Figures lookup 19-1" six
EndChar

StartChar: seven.oldstyle
Encoding: 223 -1 186
Width: 572
VWidth: 0
Flags: HW
HStem: 574.5 57.5<118.36 511.55>
DStem2: 153.51 -100 221.71 -100 0.466814 0.884355<31.8367 763.636>
LayerCount: 2
Fore
SplineSet
109 574.5 m 1
 118.36 632 l 1
 570.43 632 l 1
 587.12 592.25 l 1
 221.71 -100 l 1
 153.51 -100 l 1
 511.55 574.5 l 1
 109 574.5 l 1
EndSplineSet
Substitution2: "'tnum' Tabular Numbers in Latin lookup 7-1" seven.tosf
Substitution2: "'lnum' Lining Figures lookup 19-1" seven
EndChar

StartChar: eight.oldstyle
Encoding: 224 -1 187
Width: 610
VWidth: 0
Flags: HW
HStem: 0 57.5<157.772 450.745> 345.25 56.5<211.744 495.456> 679.5 57.5<251.775 546.637>
DStem2: 81 154 137.83 151 0.154954 0.987922<-55.326 172.733 292.534 511.625> 495.94 151 555.1 154 0.157754 0.987478<-64.6677 165.901 282.589 499.834>
LayerCount: 2
Fore
SplineSet
191.5 494 m 2
 178.85 415.78 240.12 401.75 284.68 401.75 c 2
 433.78 401.75 l 2
 514.7 401.75 544.27 454.7 550.6 494 c 2
 561.6 562 l 2
 575.92 651.9 547 679.5 473.43 679.5 c 2
 337.99 679.5 l 2
 246.41 679.5 214.49 643.22 202.17 562 c 2
 191.5 494 l 2
137.83 151 m 2
 126.85 81.4502 166.71 57.5 243.67 57.5 c 2
 376.46 57.5 l 2
 422.72 57.5 484.96 79.1201 495.94 151 c 2
 512.94 256 l 2
 524.58 329.17 473.38 345.25 427.4 345.25 c 2
 276.98 345.25 l 2
 230.98 345.25 165.82 324.6 154.83 256 c 2
 137.83 151 l 2
81 154 m 2
 96 252.33 l 2
 108 326.99 164.95 361.31 209.98 364.66 c 1
 138.04 384.35 127 451.66 135 501.31 c 2
 145.67 566.31 l 1
 166.67 700.98 236.99 737 346.69 737 c 2
 482.79 737 l 2
 586.08 737 637.43 675.98 619.77 561.69 c 1
 609.1 496.69 l 1
 604.79 464.13 575.2 392.04 506.81 380.67 c 1
 565.1 362.01 578.76 301.6 570.1 252 c 1
 555.1 154 l 1
 532.76 15.96 442.12 0 369.41 0 c 2
 234.31 0 l 2
 64.9902 0 75 115.68 81 154 c 2
EndSplineSet
Substitution2: "'tnum' Tabular Numbers in Latin lookup 7-1" eight.tosf
Substitution2: "'lnum' Lining Figures lookup 19-1" eight
EndChar

StartChar: nine.oldstyle
Encoding: 225 -1 188
Width: 623
VWidth: 0
Flags: HW
HStem: -106 57.5<163.408 439.317> -90.3 41.8<102.69 300.558> 211.59 57.83<213.413 501.889> 576.84 55.49<262.866 533.122>
DStem2: 143.32 361.25 200.15 359.6 0.153621 0.98813<-56.6869 198.799>
LayerCount: 2
Fore
SplineSet
200.15 359.6 m 2
 187.84 284.08 224.7 269.42 291.99 269.42 c 2
 559.61 269.42 l 1
 579.92 397.28 592.93 576.84 478.74 576.84 c 2
 339.31 576.84 l 2
 296.74 576.84 231.14 562.53 218.49 480.64 c 2
 200.15 359.6 l 2
96 -90.3 m 1
 102.69 -48.5 l 1
 384.1 -48.5 l 2
 484.62 -48.5 536.93 136.05 552.92 229.29 c 1
 465.92 219.29 355.31 212.26 281.31 211.59 c 0
 146.64 210.25 133 296.67 143.32 361.25 c 2
 162.66 485.65 l 2
 180.66 597.65 253.33 632.33 347.33 632.33 c 2
 484.1 632.33 l 2
 583.72 632.33 663.1 556.07 613.76 245.03 c 0
 572.09 -17.66 471.73 -106 385.76 -106 c 0
 284.76 -106 182.13 -97.3 96 -90.3 c 1
EndSplineSet
Substitution2: "'tnum' Tabular Numbers in Latin lookup 7-1" nine.tosf
Substitution2: "'lnum' Lining Figures lookup 19-1" nine
EndChar

StartChar: ampersand
Encoding: 8 38 189
Width: 646
VWidth: 0
Flags: HW
LayerCount: 2
Fore
SplineSet
139.82 109.73 m 0
 183.46 42.81 277.35 27.19 344.25 84.79 c 2
 428.91 158.14 l 1
 293.73 388.85 l 1
 206.74 322.85 l 1
 112.78 252.88 96.53 176.29 139.82 109.73 c 0
93.01 79.99 m 0
 30.34 177.98 68.98 288.65 170.66 366 c 2
 266.32 439 l 1
 217.32 524 l 2
 151 638.31 230.73 716.04 313.07 726.67 c 1
 403.22 736.99 495.9 731.34 584.32 714.62 c 1
 578.3 677.84 l 1
 372 677.84 l 2
 271.48 677.84 210.18 639.28 267.48 539.34 c 2
 467.68 192.24 l 1
 616.85 322.47 l 1
 635.24 306.43 l 1
 560.61 199.65 l 1
 497.43 143.09 l 1
 582.15 0 l 1
 523.31 0 l 1
 457.32 111 l 1
 380.68 44 l 2
 300.71 -25.33 160.02 -25.68 93.01 79.99 c 0
EndSplineSet
AlternateSubs2: "'salt' Access All Alternates in Latin lookup 4-1" ampersand.salt
Substitution2: "'smcp' Lowercase to Small Capitals lookup 16-1" ampersand.smcp
EndChar

StartChar: asterisk
Encoding: 12 42 190
Width: 454
VWidth: 0
Flags: HW
LayerCount: 2
Fore
SplineSet
343.31 564.73 m 1
 473 643.04 l 1
 484.02 615.63 l 1
 374.39 520.94 l 1
 343.31 564.73 l 1
291.97 718.98 m 1
 324.06 731.02 l 1
 377.76 611.37 l 1
 320.6 586.97 l 1
 291.97 718.98 l 1
286.96 482.27 m 1
 326.41 531.4 l 1
 424.71 443.04 l 1
 403.99 417.97 l 1
 286.96 482.27 l 1
185.64 412.35 m 1
 233.61 547.02 l 1
 288.76 534.31 l 1
 213.05 402.99 l 1
 185.64 412.35 l 1
139 574.58 m 1
 143.68 606 l 1
 287.35 626.75 l 1
 281.67 569.25 l 1
 139 574.58 l 1
EndSplineSet
Substitution2: "'smcp' Lowercase to Small Capitals lookup 16-1" asterisk.smcp
EndChar

StartChar: Euro
Encoding: 226 8364 191
Width: 721
VWidth: 0
Flags: HW
LayerCount: 2
Fore
SplineSet
70 260.61 m 1
 75.35 296.72 l 1
 165.02 302.4 l 1
 183 416.6 l 1
 96 422.95 l 1
 101.35 456.05 l 1
 190.02 463.4 l 1
 201.02 535.4 224.01 740 468.01 740 c 0
 520.01 740 630.77 726.3 698.77 713.3 c 1
 692.08 669.15 l 1
 692.08 669.15 541.97 682.83 459.64 682.5 c 0
 298.1 682.17 266.84 575.28 247.52 463.4 c 1
 497.35 457.72 l 1
 492 422.28 l 1
 240.5 416.6 l 1
 222.52 302.4 l 1
 471.35 296.39 l 1
 466 260.28 l 1
 466 260.28 211.5 256.6 214.5 254.6 c 1
 189.17 108.28 251.17 52.49 358.7 51.5 c 0
 459.66 50.51 600.47 66.85 600.47 66.85 c 1
 593.45 24.38 l 1
 508.78 2.7 435.65 -6 351.99 -6 c 0
 274.66 -6 121.33 23.98 157 254.6 c 1
 70 260.61 l 1
EndSplineSet
Substitution2: "'smcp' Lowercase to Small Capitals lookup 16-1" Euro.smcp
EndChar

StartChar: parenleft
Encoding: 10 40 192
Width: 315
VWidth: 79
Flags: HW
LayerCount: 2
Fore
SplineSet
126.67 349.1 m 0
 175.7 643.2 365.65 879.8 365.65 879.8 c 1
 432.86 879.8 l 1
 432.86 879.8 236.56 638.57 183.51 345.8 c 0
 126.8 33.74 263.52 -190.2 263.52 -190.2 c 1
 200.67 -190.2 l 1
 200.67 -190.2 74.66 38.46 126.67 349.1 c 0
EndSplineSet
Substitution2: "'case' Case-Sensitive Forms lookup 1-1" parenleft.alt
Substitution2: "'c2sc' Capitals to Small Capitals in Latin lookup 17 subtable" parenleft.smcp
Substitution2: "'smcp' Lowercase to Small Capitals lookup 16-1" parenleft.smcp
EndChar

StartChar: parenright
Encoding: 11 41 193
Width: 316
VWidth: 79
Flags: HW
LayerCount: 2
Fore
SplineSet
-13 -190.2 m 1
 -13 -190.2 181.98 42.45 236.68 344.46 c 0
 291.74 647.28 156.67 879.8 156.67 879.8 c 1
 219.19 879.8 l 1
 219.19 879.8 343.22 639.92 293.52 343.14 c 0
 242.18 35.18 55.2 -190.2 55.2 -190.2 c 1
 -13 -190.2 l 1
EndSplineSet
Substitution2: "'case' Case-Sensitive Forms lookup 1-1" parenright.alt
Substitution2: "'c2sc' Capitals to Small Capitals in Latin lookup 17 subtable" parenright.smcp
Substitution2: "'smcp' Lowercase to Small Capitals lookup 16-1" parenright.smcp
EndChar

StartChar: plus
Encoding: 13 43 194
Width: 518
VWidth: 0
Flags: HW
LayerCount: 2
Fore
SplineSet
100 327.25 m 1
 109.36 384.75 l 1
 282.99 384.75 l 1
 310.32 559.05 l 1
 367.82 559.05 l 1
 340.49 384.75 l 1
 515.46 384.75 l 1
 506.1 327.25 l 1
 331.13 327.25 l 1
 303.47 152.95 l 1
 245.97 152.95 l 1
 273.63 327.25 l 1
 100 327.25 l 1
EndSplineSet
EndChar

StartChar: endash
Encoding: 227 8211 195
Width: 448
VWidth: 0
Flags: HW
LayerCount: 2
Fore
SplineSet
60 258.25 m 1
 69.36 316.75 l 1
 542.36 316.75 l 1
 533 258.25 l 1
 60 258.25 l 1
EndSplineSet
Substitution2: "'case' Case-Sensitive Forms lookup 1-1" endash.alt
Substitution2: "'c2sc' Capitals to Small Capitals in Latin lookup 17 subtable" endash.smcp
Substitution2: "'smcp' Lowercase to Small Capitals lookup 16-1" endash.smcp
EndChar

StartChar: emdash
Encoding: 228 8212 196
Width: 737
VWidth: 0
Flags: HW
LayerCount: 2
Fore
SplineSet
59 260.25 m 1
 68.36 318.75 l 1
 764.36 318.75 l 1
 755 260.25 l 1
 59 260.25 l 1
EndSplineSet
Substitution2: "'case' Case-Sensitive Forms lookup 1-1" emdash.alt
Substitution2: "'c2sc' Capitals to Small Capitals in Latin lookup 17 subtable" emdash.smcp
Substitution2: "'smcp' Lowercase to Small Capitals lookup 16-1" emdash.smcp
EndChar

StartChar: less
Encoding: 30 60 197
Width: 473
VWidth: 0
Flags: HW
LayerCount: 2
Fore
SplineSet
99 324.23 m 1
 108.7 384.43 l 1
 500.78 556.33 l 1
 491.09 494.15 l 1
 169.87 351.32 l 1
 444.48 198.5 l 1
 434.78 140.33 l 1
 99 324.23 l 1
EndSplineSet
EndChar

StartChar: equal
Encoding: 31 61 198
Width: 465
VWidth: 0
Flags: HW
LayerCount: 2
Fore
SplineSet
87.97 437.5 m 1
 98 495 l 1
 525 495 l 1
 514.97 437.5 l 1
 87.97 437.5 l 1
53 212 m 1
 63.03 269.5 l 1
 490.03 269.5 l 1
 480 212 l 1
 53 212 l 1
EndSplineSet
EndChar

StartChar: greater
Encoding: 32 62 199
Width: 474
VWidth: 0
Flags: HW
LayerCount: 2
Fore
SplineSet
72 140.33 m 1
 82.03 204.18 l 1
 408.59 354.99 l 1
 127.97 501.84 l 1
 138 556.33 l 1
 475.45 384.43 l 1
 466.42 324.23 l 1
 72 140.33 l 1
EndSplineSet
EndChar

StartChar: multiply
Encoding: 151 215 200
Width: 453
VWidth: 0
Flags: HW
LayerCount: 2
Fore
SplineSet
93 234.03 m 1
 234.97 356.67 l 1
 132.66 478.64 l 1
 175.79 515.75 l 1
 278.43 393.78 l 1
 425.75 521.1 l 1
 460.52 479.31 l 1
 313.87 351.99 l 1
 417.85 228.68 l 1
 373.72 191.57 l 1
 270.74 314.88 l 1
 127.77 192.24 l 1
 93 234.03 l 1
EndSplineSet
EndChar

StartChar: divide
Encoding: 183 247 201
Width: 529
VWidth: 0
Flags: HW
LayerCount: 2
Fore
SplineSet
297.56 479.26 m 2
 304.9 529.63 l 2
 306.57 542.32 314.92 550.34 328.28 550.34 c 2
 365.74 550.34 l 2
 378.43 550.34 383.11 541.32 381.44 529.63 c 2
 374.1 479.26 l 2
 372.43 466.57 363.08 460.22 351.39 460.22 c 2
 314.26 460.22 l 2
 302.57 460.22 295.89 467.57 297.56 479.26 c 2
247.91 168.38 m 2
 255.92 218.42 l 2
 257.59 231.11 265.94 239.13 279.3 239.13 c 2
 316.76 239.13 l 2
 329.45 239.13 334.13 230.11 332.46 218.42 c 2
 324.45 168.38 l 2
 322.78 155.69 314.1 149.01 302.41 149.01 c 2
 265.28 149.01 l 2
 253.59 149.01 246.24 156.69 247.91 168.38 c 2
100 324.25 m 1
 109.36 381.75 l 1
 525.36 381.75 l 1
 516 324.25 l 1
 100 324.25 l 1
EndSplineSet
EndChar

StartChar: question
Encoding: 33 63 202
Width: 540
VWidth: 0
Flags: HW
LayerCount: 2
Fore
SplineSet
173.647 19.37 m 2
 182.918 78.02 l 2
 184.676 90.71 192.905 98.73 206.265 98.73 c 2
 245.405 98.73 l 2
 260.105 98.73 265.184 91.05 262.808 78.02 c 2
 253.537 19.37 l 2
 251.109 4.67 241.88 0 230.19 0 c 2
 191.05 0 l 2
 179.36 0 171.941 7.68 173.647 19.37 c 2
125 683.51 m 1
 131.69 722.3 l 1
 227.44 733.98 300.71 742.35 404.48 739 c 1
 545.41 739.33 593.12 658.6 576.13 554 c 2
 560.46 453 l 2
 537.45 306.61 434.69 275.99 284.54 296.33 c 1
 284.54 294.32 267.87 199.02 268.54 195 c 1
 209.71 195 l 1
 232.73 343.8 l 1
 271.59 343.13 322.67 342.46 361.53 343.8 c 0
 428.68 345.14 490.65 374.78 503.3 453 c 2
 519.3 554 l 2
 533.95 648.56 498.33 683.51 388.74 683.51 c 2
 125 683.51 l 1
EndSplineSet
Substitution2: "'smcp' Lowercase to Small Capitals lookup 16-1" question.smcp
EndChar

StartChar: bracketleft
Encoding: 61 91 203
Width: 302
VWidth: 79
Flags: HW
LayerCount: 2
Fore
SplineSet
77.34 -18.2 m 2
 191.35 701.86 l 2
 204.03 781.6 232.34 861.8 353.34 861.8 c 2
 423.11 861.8 l 1
 414.08 804.3 l 1
 343.98 804.3 l 2
 296.74 804.3 261.83 780.73 248.85 701.86 c 2
 134.84 -18.2 l 2
 121.84 -100.88 134.81 -132.7 195.7 -132.7 c 2
 265.8 -132.7 l 1
 256.44 -190.2 l 1
 186.34 -190.2 l 2
 65.98 -190.2 68.01 -76.19 77.34 -18.2 c 2
EndSplineSet
EndChar

StartChar: bracketright
Encoding: 63 93 204
Width: 304
VWidth: 79
Flags: HW
LayerCount: 2
Fore
SplineSet
-13 -190.2 m 1
 -3.64 -132.7 l 1
 66.46 -132.7 l 2
 119.31 -132.7 149.6 -100.88 161.26 -30.26 c 2
 275.27 689.8 l 2
 289.59 780.73 270.02 804.3 214.74 804.3 c 2
 144.64 804.3 l 1
 154 861.8 l 1
 224.1 861.8 l 2
 345.78 861.8 342.1 747.79 332.77 689.8 c 2
 218.76 -30.26 l 2
 205.75 -111.98 178.1 -190.2 57.1 -190.2 c 2
 -13 -190.2 l 1
EndSplineSet
EndChar

StartChar: braceleft
Encoding: 93 123 205
Width: 300
VWidth: 79
Flags: HW
LayerCount: 2
Fore
SplineSet
67 333.1 m 1
 75.69 386.9 l 1
 109.36 388.56 166.68 386.49 175.01 439.8 c 2
 212.34 678.11 l 2
 230.02 788.18 291.12 861.8 422.11 861.8 c 1
 412.75 804.63 l 1
 338.15 805.3 285.16 774.35 269.51 675.8 c 2
 232.51 439.8 l 2
 224.51 391.8 182.51 363.15 135.16 355.14 c 1
 180.51 348.47 211.51 312.8 204.51 270.8 c 2
 162.53 9.27 l 2
 144.53 -102.72 186.2 -135.71 264.47 -133.03 c 1
 255.11 -190.2 l 1
 110.13 -190.2 90.01 -82.5 105.36 11.58 c 2
 146.68 266.8 l 2
 154.01 310.78 107 336.1 67 333.1 c 1
EndSplineSet
EndChar

StartChar: braceright
Encoding: 95 125 206
Width: 296
VWidth: 79
Flags: HW
LayerCount: 2
Fore
SplineSet
-13 -190.2 m 1
 -3.64 -133.03 l 1
 71.95 -133.7 122.95 -104.73 138.27 -8.82 c 2
 178.91 244.67 l 2
 186.58 290.69 227.58 320.33 274.93 328.34 c 1
 229.58 335.01 198.92 369.69 206.25 413.67 c 2
 245.26 657.71 l 2
 263.59 772.34 221.92 807.97 144.64 805.29 c 1
 154 861.8 l 1
 293.7 861.8 318.77 755.42 302.43 655.4 c 2
 263.75 416.35 l 2
 256.09 369.4 306.07 349.03 343.76 350.05 c 1
 335.07 296.25 l 1
 299.09 296.57 244.08 293.36 236.08 243.35 c 2
 195.44 -10.47 l 2
 178.75 -114.6 123.27 -190.2 -13 -190.2 c 1
EndSplineSet
EndChar

StartChar: at
Encoding: 34 64 207
Width: 878
VWidth: 0
Flags: HW
LayerCount: 2
Fore
SplineSet
312.83 254 m 0
 292.52 91.18 329.36 54.5 407.36 53.5 c 0
 462.36 52.5 521.85 64.5 586.85 113.5 c 1
 640.49 462.92 l 1
 577.52 485.85 526.56 487.5 476.97 486.84 c 0
 423.32 486.18 338.14 457.48 312.83 254 c 0
64 9 m 2
 145 521 l 2
 160 613 212 699 350 699 c 2
 725 699 l 2
 836 699 882 634 865 521 c 2
 812 167 l 2
 805.66 123.96 787 3 643 3 c 2
 597.25 3 l 1
 582.5 63 l 1
 551.5 29 483 -3 410 -4 c 0
 299 -6 224 48 258 275 c 0
 292 496 399 541.69 473 544 c 0
 546.64 546.31 649 531 700 482 c 1
 638.36 60.17 l 1
 686.36 60.17 739.19 68.84 754.5 167 c 2
 807.5 521 l 2
 824.16 633.29 775.18 640.83 721.32 640.83 c 2
 341.96 640.83 l 2
 238.71 640.83 210.14 569.16 202.5 521 c 2
 121.5 9 l 2
 109.86 -64.17 135.02 -121.5 221.02 -121.5 c 2
 606.36 -121.5 l 1
 600.34 -157.61 l 1
 550.34 -167.61 435 -179 309 -179 c 2
 211 -179 l 2
 107 -179 47 -98 64 9 c 2
EndSplineSet
Substitution2: "'case' Case-Sensitive Forms lookup 1-1" at.alt
Substitution2: "'smcp' Lowercase to Small Capitals lookup 16-1" at.smcp
EndChar

StartChar: breve
Encoding: 229 728 208
Width: 260
VWidth: 0
Flags: HW
LayerCount: 2
Fore
SplineSet
59.33 644 m 1
 94.77 644 l 1
 87.78 596.38 119.41 565.11 159.34 565.44 c 0
 207.62 565.1 243.55 590.69 251.88 644 c 1
 287.32 644 l 1
 275.99 564.65 223.39 530 159.01 530 c 0
 105.35 530 51.68 570.66 59.33 644 c 1
EndSplineSet
EndChar

StartChar: ogonek
Encoding: 230 731 209
Width: 244
VWidth: 0
Flags: HW
LayerCount: 2
Fore
SplineSet
248.34 0 m 1
 278.43 0 l 1
 177.18 -60.41 170.19 -139.85 269.36 -136.18 c 1
 262 -181 l 1
 144 -197 88.67 -64.66 248.34 0 c 1
EndSplineSet
EndChar

StartChar: caron
Encoding: 231 711 210
Width: 385
VWidth: 0
Flags: HW
HStem: 531 130
VStem: 32 285.4
DStem2: 81.16 661 32 661 0.560348 -0.828257<0 116.273> 150.37 567.44 174.45 531 0.739823 0.672802<0 142.471>
LayerCount: 2
Fore
SplineSet
32 661 m 1
 81.16 661 l 1
 150.37 567.44 l 1
 257.86 661 l 1
 317.4 661 l 1
 174.45 531 l 1
 119.95 531 l 1
 32 661 l 1
EndSplineSet
Substitution2: "'smcp' Lowercase to Small Capitals lookup 16-1" caron.smcp
EndChar

StartChar: hungarumlaut
Encoding: 232 733 211
Width: 459
VWidth: 0
Flags: HW
LayerCount: 2
Fore
SplineSet
290.32 531 m 1
 422.94 664 l 1
 495.17 664 l 1
 341.17 531 l 1
 290.32 531 l 1
154 531 m 1
 286.62 664 l 1
 358.85 664 l 1
 204.85 531 l 1
 154 531 l 1
EndSplineSet
EndChar

StartChar: dotaccent
Encoding: 233 729 212
Width: 142
VWidth: 0
Flags: HW
LayerCount: 2
Fore
SplineSet
93.0771 556.99 m 2
 102.348 613.63 l 2
 104.106 626.32 112.335 634.34 125.695 634.34 c 2
 162.825 634.34 l 2
 175.515 634.34 180.594 625.32 178.888 613.63 c 2
 169.617 556.99 l 2
 167.859 544.3 159.3 537.62 147.61 537.62 c 2
 110.48 537.62 l 2
 98.79 537.62 91.3714 545.3 93.0771 556.99 c 2
EndSplineSet
EndChar

StartChar: Aogonek
Encoding: 234 260 213
Width: 812
VWidth: 0
Flags: HW
LayerCount: 2
Fore
SplineSet
357.51 277.67 m 1
 624.94 277.67 l 1
 554.35 654.73 l 1
 357.51 277.67 l 1
147 0 m 1
 533.65 732 l 1
 594.45 732 l 1
 737.1 0 l 1
 725.73 0 l 1
 624.48 -60.4102 617.49 -139.85 716.66 -136.18 c 1
 709.3 -181 l 1
 591.3 -197 535.97 -64.6602 695.64 0 c 1
 678.93 0 l 1
 635.97 220.17 l 1
 327.09 220.17 l 1
 210.51 0 l 1
 147 0 l 1
EndSplineSet
Substitution2: "'c2sc' Capitals to Small Capitals in Latin lookup 17 subtable" aogonek.smcp
EndChar

StartChar: Lcaron
Encoding: 235 317 214
Width: 538
VWidth: 0
Flags: HW
LayerCount: 2
Fore
SplineSet
313.14 571 m 1
 324.79 705 l 1
 335.46 772 l 1
 393.29 772 l 1
 382.62 705 l 1
 352.61 571 l 1
 313.14 571 l 1
99 126 m 2
 196.34 732 l 1
 253.17 732 l 1
 156.5 126 l 2
 146.19 60.13 187.78 57.5 225.03 57.5 c 2
 521.13 57.5 l 1
 512.44 0 l 1
 215 0 l 2
 148.325 0 83.01 25.73 99 126 c 2
EndSplineSet
Substitution2: "'c2sc' Capitals to Small Capitals in Latin lookup 17 subtable" lcaron.smcp
EndChar

StartChar: Sacute
Encoding: 236 346 215
Width: 569
VWidth: 0
Flags: HW
LayerCount: 2
Fore
SplineSet
380.78 798 m 1
 513.4 931 l 1
 585.63 931 l 1
 431.63 798 l 1
 380.78 798 l 1
70.96 13.0303 m 1
 77.6504 58.1797 l 1
 120.65 52.8398 228.35 49.5 321.35 49.5 c 0
 378.52 49.5 465.21 60.4404 479.86 156 c 2
 490.53 224 l 2
 500.85 290.24 489.95 330.25 406.03 330.25 c 2
 275.94 330.25 l 2
 119.6 330.25 113.94 419.33 125.94 495.32 c 2
 136.27 561.32 l 2
 160.61 713.69 251.3 740.68 360.62 738 c 0
 413.62 736.66 545.02 723.65 597.04 715.65 c 1
 590.35 671.83 l 1
 536.06 673.15 351.26 680.5 351.26 680.5 c 2
 265.69 684.5 210.09 664.25 193.77 560 c 2
 183.44 494 l 2
 166.77 387.99 218.77 387.75 284.64 387.75 c 2
 415.39 387.75 l 2
 541.69 387.75 561.03 304.35 548.03 222.35 c 2
 537.36 154.35 l 2
 514.02 5.65039 398.94 -8 311.33 -8 c 0
 244.24 -8 109.26 5.7002 70.96 13.0303 c 1
EndSplineSet
Substitution2: "'c2sc' Capitals to Small Capitals in Latin lookup 17 subtable" sacute.smcp
EndChar

StartChar: Scaron
Encoding: 237 352 216
Width: 569
VWidth: 0
Flags: HW
LayerCount: 2
Fore
SplineSet
298.311 928.251 m 1
 347.471 928.251 l 1
 416.681 834.691 l 1
 524.171 928.251 l 1
 583.711 928.251 l 1
 440.761 798.251 l 1
 386.261 798.251 l 1
 298.311 928.251 l 1
79 13.0303 m 1
 85.6904 58.1797 l 1
 128.69 52.8398 236.39 49.5 329.39 49.5 c 0
 386.56 49.5 473.25 60.4404 487.9 156 c 2
 498.57 224 l 2
 508.89 290.24 497.99 330.25 414.07 330.25 c 2
 283.98 330.25 l 2
 127.64 330.25 121.98 419.33 133.98 495.32 c 2
 144.31 561.32 l 2
 168.65 713.69 259.34 740.68 368.66 738 c 0
 421.66 736.66 553.06 723.65 605.08 715.65 c 1
 598.39 671.83 l 1
 544.1 673.15 359.3 680.5 359.3 680.5 c 2
 273.73 684.5 218.13 664.25 201.81 560 c 2
 191.48 494 l 2
 174.81 387.99 226.81 387.75 292.68 387.75 c 2
 423.43 387.75 l 2
 549.73 387.75 569.07 304.35 556.07 222.35 c 2
 545.4 154.35 l 2
 522.06 5.65039 406.98 -8 319.37 -8 c 0
 252.28 -8 117.3 5.7002 79 13.0303 c 1
EndSplineSet
Substitution2: "'c2sc' Capitals to Small Capitals in Latin lookup 17 subtable" scaron.smcp
EndChar

StartChar: Scedilla
Encoding: 238 350 217
Width: 569
VWidth: 0
Flags: HW
LayerCount: 2
Fore
SplineSet
169.35 -181 m 1
 173.7 -153.9 l 1
 221.77 -142.2 l 1
 260.02 -131.52 277.28 -106.1 286.25 -45 c 1
 336.75 -45 l 1
 320.75 -146.34 294.74 -181 213.75 -181 c 2
 169.35 -181 l 1
79 13.0303 m 1
 85.6904 58.1797 l 1
 128.69 52.8398 236.39 49.5 329.39 49.5 c 0
 386.56 49.5 473.25 60.4404 487.9 156 c 2
 498.57 224 l 2
 508.89 290.24 497.99 330.25 414.07 330.25 c 2
 283.98 330.25 l 2
 127.64 330.25 121.98 419.33 133.98 495.32 c 2
 144.31 561.32 l 2
 168.65 713.69 259.34 740.68 368.66 738 c 0
 421.66 736.66 553.06 723.65 605.08 715.65 c 1
 598.39 671.83 l 1
 544.1 673.15 359.3 680.5 359.3 680.5 c 2
 273.73 684.5 218.13 664.25 201.81 560 c 2
 191.48 494 l 2
 174.81 387.99 226.81 387.75 292.68 387.75 c 2
 423.43 387.75 l 2
 549.73 387.75 569.07 304.35 556.07 222.35 c 2
 545.4 154.35 l 2
 522.06 5.65039 406.98 -8 319.37 -8 c 0
 252.28 -8 117.3 5.7002 79 13.0303 c 1
EndSplineSet
Substitution2: "'c2sc' Capitals to Small Capitals in Latin lookup 17 subtable" scedilla.smcp
EndChar

StartChar: Tcaron
Encoding: 239 356 218
Width: 596
VWidth: 0
Flags: HW
LayerCount: 2
Fore
SplineSet
295.67 927 m 1
 344.83 927 l 1
 414.04 833.44 l 1
 521.53 927 l 1
 581.07 927 l 1
 438.12 797 l 1
 383.62 797 l 1
 295.67 927 l 1
139 674.5 m 1
 148.36 732 l 1
 666.26 732 l 1
 656.9 674.5 l 1
 423.7 674.5 l 1
 317.06 0 l 1
 259.56 0 l 1
 366.2 674.5 l 1
 139 674.5 l 1
EndSplineSet
Substitution2: "'c2sc' Capitals to Small Capitals in Latin lookup 17 subtable" tcaron.smcp
EndChar

StartChar: Zacute
Encoding: 240 377 219
Width: 545
VWidth: 0
Flags: HW
LayerCount: 2
Fore
SplineSet
446.286 793.65 m 1
 578.906 926.65 l 1
 651.136 926.65 l 1
 497.136 793.65 l 1
 446.286 793.65 l 1
104.68 0 m 1
 114.04 57.5 l 1
 618.87 674.5 l 1
 211.32 674.5 l 1
 220.68 732 l 1
 703.78 732 l 1
 694.42 674.5 l 1
 189.59 57.5 l 1
 597.14 57.5 l 1
 587.78 0 l 1
 104.68 0 l 1
EndSplineSet
Substitution2: "'c2sc' Capitals to Small Capitals in Latin lookup 17 subtable" zacute.smcp
EndChar

StartChar: Zcaron
Encoding: 241 381 220
Width: 545
VWidth: 0
Flags: HW
LayerCount: 2
Fore
SplineSet
280.91 927 m 1
 330.07 927 l 1
 399.28 833.44 l 1
 506.77 927 l 1
 566.31 927 l 1
 423.36 797 l 1
 368.86 797 l 1
 280.91 927 l 1
35 0 m 1
 44.3604 57.5 l 1
 549.19 674.5 l 1
 141.64 674.5 l 1
 151 732 l 1
 634.1 732 l 1
 624.74 674.5 l 1
 119.91 57.5 l 1
 527.46 57.5 l 1
 518.1 0 l 1
 35 0 l 1
EndSplineSet
Substitution2: "'c2sc' Capitals to Small Capitals in Latin lookup 17 subtable" zcaron.smcp
EndChar

StartChar: Zdotaccent
Encoding: 242 379 221
Width: 545
VWidth: 0
Flags: HW
LayerCount: 2
Fore
SplineSet
357.011 810.1 m 2
 366.282 866.74 l 2
 368.04 879.43 376.269 887.45 389.629 887.45 c 2
 426.759 887.45 l 2
 439.449 887.45 444.528 878.43 442.822 866.74 c 2
 433.551 810.1 l 2
 431.793 797.41 423.234 790.73 411.544 790.73 c 2
 374.414 790.73 l 2
 362.724 790.73 355.306 798.41 357.011 810.1 c 2
35 0 m 1
 44.3604 57.5 l 1
 549.19 674.5 l 1
 141.64 674.5 l 1
 151 732 l 1
 634.1 732 l 1
 624.74 674.5 l 1
 119.91 57.5 l 1
 527.46 57.5 l 1
 518.1 0 l 1
 35 0 l 1
EndSplineSet
Substitution2: "'c2sc' Capitals to Small Capitals in Latin lookup 17 subtable" zdotaccent.smcp
EndChar

StartChar: aogonek
Encoding: 243 261 222
Width: 506
VWidth: 0
Flags: HW
LayerCount: 2
Fore
SplineSet
129.1 249.35 m 0
 106.77 108.05 138.05 50.1699 226.61 50.1699 c 0
 306.91 50.1699 357.53 72.7998 425.53 101.8 c 1
 479.51 459.92 l 1
 429.74 476.58 357.09 493.82 297.61 484.17 c 0
 215.45 470.85 159.77 440.68 129.1 249.35 c 0
75.2598 278.33 m 0
 112.58 498.96 210.58 531 292.58 541 c 0
 362.58 550 488.35 528 539.35 479 c 1
 469.35 0 l 1
 464.682 0 l 1
 363.432 -60.4092 356.442 -139.824 455.612 -136.154 c 1
 448.252 -180.975 l 1
 330.252 -196.975 274.922 -64.6592 434.592 0 c 1
 429.22 0 l 1
 422.18 60 l 1
 393.18 41 306.25 -7 229.25 -7 c 0
 115.25 -7 34.9297 39.6396 75.2598 278.33 c 0
EndSplineSet
AlternateSubs2: "'salt' Access All Alternates in Latin lookup 4-1" aogonek.salt
Substitution2: "'smcp' Lowercase to Small Capitals lookup 16-1" aogonek.smcp
EndChar

StartChar: lcaron
Encoding: 244 318 223
Width: 302
VWidth: 0
Flags: HW
LayerCount: 2
Fore
SplineSet
302.1 580.33 m 1
 313.75 714.33 l 1
 324.42 781.33 l 1
 382.25 781.33 l 1
 371.58 714.33 l 1
 341.57 580.33 l 1
 302.1 580.33 l 1
89 189 m 2
 183 783 l 1
 240.5 783 l 1
 146.5 189 l 2
 127.53 70.86 160.05 64.85 195.75 57.5 c 2
 195.75 57.5 266.78 41.81 269.76 41.81 c 1
 263.07 0 l 1
 196.06 0 l 2
 112.73 0 67.33 51.64 89 189 c 2
EndSplineSet
Substitution2: "'smcp' Lowercase to Small Capitals lookup 16-1" lcaron.smcp
EndChar

StartChar: sacute
Encoding: 245 347 224
Width: 506
VWidth: 0
Flags: HW
LayerCount: 2
Fore
SplineSet
319.57 599.35 m 1
 452.19 732.35 l 1
 524.42 732.35 l 1
 370.42 599.35 l 1
 319.57 599.35 l 1
76.0596 7.67969 m 1
 82.75 49.1504 l 1
 346.85 49.1504 l 2
 362.36 49.1504 418.01 45.46 429.66 116.35 c 2
 438.33 168.7 l 2
 444.99 208.32 430.38 235.25 377.47 235.25 c 2
 235.08 235.25 l 2
 141.08 235.25 93.7197 260.64 109.72 361.63 c 2
 117.39 410.98 l 2
 131.06 495.66 173.06 539.35 276.06 539.35 c 0
 328.06 539.35 474.49 530.66 525.49 525.66 c 1
 518.47 482.85 l 1
 267.37 482.85 l 2
 196.77 482.85 180.53 446.16 174.89 409 c 2
 167.22 359.65 l 2
 155.23 286.38 193.56 292.75 237.07 292.75 c 2
 379.81 292.75 l 2
 463.18 292.75 507.83 241.72 495.83 166.72 c 2
 487.16 108.34 l 2
 470.16 -0.660156 395.47 -8.34961 336.83 -8.34961 c 0
 287.83 -8.34961 113.06 3.67969 76.0596 7.67969 c 1
EndSplineSet
Substitution2: "'smcp' Lowercase to Small Capitals lookup 16-1" sacute.smcp
EndChar

StartChar: scaron
Encoding: 246 353 225
Width: 506
VWidth: 0
Flags: HW
LayerCount: 2
Fore
SplineSet
216.438 729.35 m 1
 265.598 729.35 l 1
 334.79 635.79 l 1
 442.298 729.35 l 1
 501.838 729.35 l 1
 358.888 599.35 l 1
 304.388 599.35 l 1
 216.438 729.35 l 1
64 7.67969 m 1
 70.6904 49.1504 l 1
 334.79 49.1504 l 2
 350.3 49.1504 405.95 45.46 417.6 116.35 c 2
 426.27 168.7 l 2
 432.93 208.32 418.32 235.25 365.41 235.25 c 2
 223.02 235.25 l 2
 129.02 235.25 81.6602 260.64 97.6602 361.63 c 2
 105.33 410.98 l 2
 119 495.66 161 539.35 264 539.35 c 0
 316 539.35 462.43 530.66 513.43 525.66 c 1
 506.41 482.85 l 1
 255.31 482.85 l 2
 184.71 482.85 168.47 446.16 162.83 409 c 2
 155.16 359.65 l 2
 143.17 286.38 181.5 292.75 225.01 292.75 c 2
 367.75 292.75 l 2
 451.12 292.75 495.77 241.72 483.77 166.72 c 2
 475.1 108.34 l 2
 458.1 -0.660156 383.41 -8.34961 324.77 -8.34961 c 0
 275.77 -8.34961 101 3.67969 64 7.67969 c 1
EndSplineSet
Substitution2: "'smcp' Lowercase to Small Capitals lookup 16-1" scaron.smcp
EndChar

StartChar: scedilla
Encoding: 247 351 226
Width: 506
VWidth: 0
Flags: HW
LayerCount: 2
Fore
SplineSet
126.151 -175.484 m 1
 130.501 -148.384 l 1
 178.571 -136.684 l 1
 216.821 -126.004 234.081 -100.584 243.051 -39.4844 c 1
 293.551 -39.4844 l 1
 277.551 -140.824 251.541 -175.484 170.551 -175.484 c 2
 126.151 -175.484 l 1
64 7.67969 m 1
 70.6904 49.1504 l 1
 334.79 49.1504 l 2
 350.3 49.1504 405.95 45.46 417.6 116.35 c 2
 426.27 168.7 l 2
 432.93 208.32 418.32 235.25 365.41 235.25 c 2
 223.02 235.25 l 2
 129.02 235.25 81.6602 260.64 97.6602 361.63 c 2
 105.33 410.98 l 2
 119 495.66 161 539.35 264 539.35 c 0
 316 539.35 462.43 530.66 513.43 525.66 c 1
 506.41 482.85 l 1
 255.31 482.85 l 2
 184.71 482.85 168.47 446.16 162.83 409 c 2
 155.16 359.65 l 2
 143.17 286.38 181.5 292.75 225.01 292.75 c 2
 367.75 292.75 l 2
 451.12 292.75 495.77 241.72 483.77 166.72 c 2
 475.1 108.34 l 2
 458.1 -0.660156 383.41 -8.34961 324.77 -8.34961 c 0
 275.77 -8.34961 101 3.67969 64 7.67969 c 1
EndSplineSet
Substitution2: "'smcp' Lowercase to Small Capitals lookup 16-1" scedilla.smcp
EndChar

StartChar: tcaron
Encoding: 248 357 227
Width: 387
VWidth: 0
Flags: HW
LayerCount: 2
Fore
SplineSet
319.75 598.34 m 1
 332.41 732.34 l 1
 342.07 799.34 l 1
 400.57 799.34 l 1
 390.24 732.34 l 1
 359.22 598.34 l 1
 319.75 598.34 l 1
73.24 474.5 m 1
 80.26 517.3 l 1
 176.65 532 l 1
 214.35 680 l 1
 257.15 680 l 1
 234.15 532 l 1
 395.75 532 l 1
 386.39 474.5 l 1
 224.79 474.5 l 1
 179.82 189.34 l 2
 161.52 71.2 192.7 65.19 228.4 57.84 c 2
 228.4 57.84 299.43 42.15 302.41 42.15 c 1
 296.39 0.34 l 1
 230.04 0.34 l 2
 146.71 0.34 100.65 51.98 122.32 189.34 c 2
 167.29 474.5 l 1
 73.24 474.5 l 1
EndSplineSet
AlternateSubs2: "'salt' Access All Alternates in Latin lookup 4-1" tcaron.salt
Substitution2: "'smcp' Lowercase to Small Capitals lookup 16-1" tcaron.smcp
EndChar

StartChar: zacute
Encoding: 249 378 228
Width: 453
VWidth: 0
Flags: HW
LayerCount: 2
Fore
SplineSet
327.881 592.65 m 1
 460.501 725.65 l 1
 532.731 725.65 l 1
 378.731 592.65 l 1
 327.881 592.65 l 1
76.4902 1 m 1
 83.8398 58.5 l 1
 454.58 473.5 l 1
 137.47 473.5 l 1
 145.49 531 l 1
 541.49 531 l 1
 533.47 473.5 l 1
 166.42 58.5 l 1
 466.18 58.5 l 1
 467.18 57.5 457.49 1 457.49 1 c 1
 76.4902 1 l 1
EndSplineSet
Substitution2: "'smcp' Lowercase to Small Capitals lookup 16-1" zacute.smcp
EndChar

StartChar: zcaron
Encoding: 250 382 229
Width: 453
VWidth: 0
Flags: HW
LayerCount: 2
Fore
SplineSet
200.36 726 m 1
 249.52 726 l 1
 318.73 632.44 l 1
 426.22 726 l 1
 485.76 726 l 1
 342.81 596 l 1
 288.31 596 l 1
 200.36 726 l 1
45 1 m 1
 52.3496 58.5 l 1
 423.09 473.5 l 1
 105.98 473.5 l 1
 114 531 l 1
 510 531 l 1
 501.98 473.5 l 1
 134.93 58.5 l 1
 434.69 58.5 l 1
 435.69 57.5 426 1 426 1 c 1
 45 1 l 1
EndSplineSet
Substitution2: "'smcp' Lowercase to Small Capitals lookup 16-1" zcaron.smcp
EndChar

StartChar: zdotaccent
Encoding: 251 380 230
Width: 453
VWidth: 0
Flags: HW
LayerCount: 2
Fore
SplineSet
287.111 615.37 m 2
 296.382 672.01 l 2
 298.14 684.7 306.369 692.72 319.729 692.72 c 2
 356.859 692.72 l 2
 369.549 692.72 374.628 683.7 372.922 672.01 c 2
 363.651 615.37 l 2
 361.893 602.68 353.334 596 341.644 596 c 2
 304.514 596 l 2
 292.824 596 285.405 603.68 287.111 615.37 c 2
45 1 m 1
 52.3496 58.5 l 1
 423.09 473.5 l 1
 105.98 473.5 l 1
 114 531 l 1
 510 531 l 1
 501.98 473.5 l 1
 134.93 58.5 l 1
 434.69 58.5 l 1
 435.69 57.5 426 1 426 1 c 1
 45 1 l 1
EndSplineSet
Substitution2: "'smcp' Lowercase to Small Capitals lookup 16-1" zdotaccent.smcp
EndChar

StartChar: Racute
Encoding: 252 340 231
Width: 610
VWidth: 0
Flags: HW
LayerCount: 2
Fore
SplineSet
389.394 797 m 1
 522.014 930 l 1
 594.244 930 l 1
 440.244 797 l 1
 389.394 797 l 1
190.85 363.75 m 1
 429.45 363.75 l 2
 492.37 363.75 555.64 392.78 569.92 518.6 c 0
 585.21 657.86 541.68 673.5 481.76 673.5 c 2
 239.81 673.5 l 1
 190.85 363.75 l 1
75 0 m 1
 191 732 l 1
 491.12 732 l 2
 574.14 732 649.05 688.24 628.42 517.28 c 0
 605.79 326.6 503.04 312.27 458.86 308.93 c 1
 565.85 0 l 1
 503 0 l 1
 400.7 303.57 l 1
 383.21 303.9 184.14 315.26 182.82 316.25 c 1
 132.5 0 l 1
 75 0 l 1
EndSplineSet
Substitution2: "'c2sc' Capitals to Small Capitals in Latin lookup 17 subtable" racute.smcp
EndChar

StartChar: Abreve
Encoding: 253 258 232
Width: 654
VWidth: 0
Flags: HW
LayerCount: 2
Fore
SplineSet
376.58 911 m 1
 412.02 911 l 1
 405.03 863.38 436.66 832.11 476.59 832.44 c 0
 524.87 832.1 560.8 857.69 569.13 911 c 1
 604.57 911 l 1
 593.24 831.65 540.64 797 476.26 797 c 0
 422.6 797 368.93 837.66 376.58 911 c 1
255.51 277.67 m 1
 522.94 277.67 l 1
 452.35 654.73 l 1
 255.51 277.67 l 1
45 0 m 1
 431.65 732 l 1
 492.45 732 l 1
 635.1 0 l 1
 576.93 0 l 1
 533.97 220.17 l 1
 225.09 220.17 l 1
 108.51 0 l 1
 45 0 l 1
EndSplineSet
Substitution2: "'c2sc' Capitals to Small Capitals in Latin lookup 17 subtable" abreve.smcp
EndChar

StartChar: Lacute
Encoding: 254 313 233
Width: 538
VWidth: 0
Flags: HW
LayerCount: 2
Fore
SplineSet
169.833 793.65 m 1
 302.453 926.65 l 1
 374.684 926.65 l 1
 220.684 793.65 l 1
 169.833 793.65 l 1
57.46 126 m 2
 154.8 732 l 1
 211.63 732 l 1
 114.96 126 l 2
 104.65 60.1299 146.24 57.5 183.49 57.5 c 2
 479.59 57.5 l 1
 470.9 0 l 1
 175.11 0 l 2
 108.44 0 41.4697 25.7305 57.46 126 c 2
EndSplineSet
Substitution2: "'c2sc' Capitals to Small Capitals in Latin lookup 17 subtable" lacute.smcp
EndChar

StartChar: Cacute
Encoding: 255 262 234
Width: 573
VWidth: 0
Flags: HW
LayerCount: 2
Fore
SplineSet
412.742 800 m 1
 545.362 933 l 1
 617.592 933 l 1
 463.592 800 l 1
 412.742 800 l 1
115.66 370.64 m 0
 153.67 603.32 216.01 740 416.33 740 c 0
 468.33 740 579.09 724.98 647.09 711.98 c 1
 640.4 667.83 l 1
 625.33 669.84 503.65 683.84 409.64 682.5 c 0
 324.28 681.83 219.84 662.08 173.16 366 c 1
 142.52 182.22 177.45 57.5303 306 51.5 c 0
 370.13 49.4902 450.99 54.1201 546.13 60.8203 c 1
 540.11 16.6699 l 1
 459.4 -3.03027 362.38 -6 301.67 -6 c 0
 113.99 -6 85.6797 185.79 115.66 370.64 c 0
EndSplineSet
Substitution2: "'c2sc' Capitals to Small Capitals in Latin lookup 17 subtable" cacute.smcp
EndChar

StartChar: Ccaron
Encoding: 256 268 235
Width: 573
VWidth: 0
Flags: HW
LayerCount: 2
Fore
SplineSet
321.9 930 m 1
 371.06 930 l 1
 440.27 836.44 l 1
 547.76 930 l 1
 607.3 930 l 1
 464.35 800 l 1
 409.85 800 l 1
 321.9 930 l 1
115.66 370.64 m 0
 153.67 603.32 216.01 740 416.33 740 c 0
 468.33 740 579.09 724.98 647.09 711.98 c 1
 640.4 667.83 l 1
 625.33 669.84 503.65 683.84 409.64 682.5 c 0
 324.28 681.83 219.84 662.08 173.16 366 c 1
 142.52 182.22 177.45 57.5303 306 51.5 c 0
 370.13 49.4902 450.99 54.1201 546.13 60.8203 c 1
 540.11 16.6699 l 1
 459.4 -3.03027 362.38 -6 301.67 -6 c 0
 113.99 -6 85.6797 185.79 115.66 370.64 c 0
EndSplineSet
Substitution2: "'c2sc' Capitals to Small Capitals in Latin lookup 17 subtable" ccaron.smcp
EndChar

StartChar: Eogonek
Encoding: 257 280 236
Width: 561
VWidth: 0
Flags: HW
LayerCount: 2
Fore
SplineSet
101.35 124.65 m 2
 177.35 603.65 l 2
 193.35 701.65 251.98 735.34 324.02 732 c 2
 632.08 717.98 l 1
 625.39 674.5 l 1
 314.99 674.5 l 2
 262.37 674.5 241.49 644.84 234.85 602 c 2
 201.53 393.09 l 1
 539.43 384.74 l 1
 532.07 340.59 l 1
 192.17 332.24 l 1
 158.85 123 l 2
 149.21 57.1299 189.8 54.5 227.38 54.5 c 2
 527.78 54.5 l 1
 520.42 11.6729 l 1
 520.174 11.661 l 1
 418.943 -48.7477 411.961 -128.177 511.124 -124.507 c 1
 503.764 -169.327 l 1
 386.766 -185.191 331.378 -55.2252 486.081 10.0104 c 1
 217.35 -3 l 2
 151.35 -6.33984 85.3604 24.3799 101.35 124.65 c 2
EndSplineSet
Substitution2: "'c2sc' Capitals to Small Capitals in Latin lookup 17 subtable" eogonek.smcp
EndChar

StartChar: Ecaron
Encoding: 258 282 237
Width: 565
VWidth: 0
Flags: HW
LayerCount: 2
Fore
SplineSet
322.999 927 m 1
 372.159 927 l 1
 441.369 833.44 l 1
 548.859 927 l 1
 608.399 927 l 1
 465.449 797 l 1
 410.949 797 l 1
 322.999 927 l 1
98 124.65 m 2
 174 603.65 l 2
 190 701.65 248.63 735.34 320.67 732 c 2
 628.73 717.98 l 1
 622.04 674.5 l 1
 311.64 674.5 l 2
 259.02 674.5 238.14 644.84 231.5 602 c 2
 198.18 393.09 l 1
 536.08 384.74 l 1
 528.72 340.59 l 1
 188.82 332.24 l 1
 155.5 123 l 2
 145.86 57.1299 186.45 54.5 224.03 54.5 c 2
 524.43 54.5 l 1
 517.07 11.6904 l 1
 214 -3 l 2
 148 -6.33984 82.0098 24.3799 98 124.65 c 2
EndSplineSet
Substitution2: "'c2sc' Capitals to Small Capitals in Latin lookup 17 subtable" ecaron.smcp
EndChar

StartChar: Dcaron
Encoding: 259 270 238
Width: 664
VWidth: 0
Flags: HW
LayerCount: 2
Fore
SplineSet
335.722 923.65 m 1
 384.882 923.65 l 1
 454.092 830.09 l 1
 561.582 923.65 l 1
 621.122 923.65 l 1
 478.172 793.65 l 1
 423.672 793.65 l 1
 335.722 923.65 l 1
157.58 59.5098 m 1
 367.14 59.5098 l 2
 514.3 59.5098 592.96 215.33 617.29 364 c 0
 651.93 577.55 597.35 674.5 463.1 674.5 c 2
 254.86 674.5 l 1
 157.58 59.5098 l 1
90.7197 0 m 1
 206.72 731.33 l 2
 206.72 732 432.59 732 472.79 732 c 0
 698.12 732 698.439 491.27 674.46 360.36 c 0
 637.79 154.29 546.78 0 359.1 0 c 2
 90.7197 0 l 1
EndSplineSet
Substitution2: "'c2sc' Capitals to Small Capitals in Latin lookup 17 subtable" dcaron.smcp
EndChar

StartChar: Nacute
Encoding: 260 323 239
Width: 654
VWidth: 0
Flags: HW
LayerCount: 2
Fore
SplineSet
435.584 797 m 1
 568.204 930 l 1
 640.434 930 l 1
 486.434 797 l 1
 435.584 797 l 1
80 0 m 1
 196 732 l 1
 252.49 732 l 1
 548.32 106.65 l 1
 647.6 732 l 1
 705.1 732 l 1
 589.1 0 l 1
 534.28 0 l 1
 237.45 625.68 l 1
 138.17 0 l 1
 80 0 l 1
EndSplineSet
AlternateSubs2: "'salt' Access All Alternates in Latin lookup 4-1" Nacute.salt
Substitution2: "'c2sc' Capitals to Small Capitals in Latin lookup 17 subtable" nacute.smcp
EndChar

StartChar: Ncaron
Encoding: 261 327 240
Width: 654
VWidth: 0
Flags: HW
LayerCount: 2
Fore
SplineSet
338.91 927 m 1
 388.07 927 l 1
 457.28 833.44 l 1
 564.77 927 l 1
 624.31 927 l 1
 481.36 797 l 1
 426.86 797 l 1
 338.91 927 l 1
80 0 m 1
 196 732 l 1
 252.49 732 l 1
 548.32 106.65 l 1
 647.6 732 l 1
 705.1 732 l 1
 589.1 0 l 1
 534.28 0 l 1
 237.45 625.68 l 1
 138.17 0 l 1
 80 0 l 1
EndSplineSet
AlternateSubs2: "'salt' Access All Alternates in Latin lookup 4-1" Ncaron.salt
Substitution2: "'c2sc' Capitals to Small Capitals in Latin lookup 17 subtable" ncaron.smcp
EndChar

StartChar: Ohungarumlaut
Encoding: 262 336 241
Width: 672
VWidth: 0
Flags: HW
LayerCount: 2
Fore
SplineSet
500.072 797 m 1
 632.692 930 l 1
 704.922 930 l 1
 550.922 797 l 1
 500.072 797 l 1
363.752 797 m 1
 496.372 930 l 1
 568.602 930 l 1
 414.602 797 l 1
 363.752 797 l 1
173.49 361 m 0
 130.51 90.4697 185.83 53.5 345.4 53.5 c 0
 496.97 53.5 572.95 96.4902 614.59 361 c 0
 662.91 668.25 580.56 679.5 444.68 679.5 c 0
 306.73 679.5 222.47 672.54 173.49 361 c 0
115.99 363.31 m 0
 169.99 706.31 273.66 737 447.67 737 c 0
 621.34 737 723.41 693.65 672.09 358.69 c 0
 622.43 35.6904 517.39 -4 342.08 -4 c 0
 174.14 -4 62.9902 30.3096 115.99 363.31 c 0
EndSplineSet
Substitution2: "'c2sc' Capitals to Small Capitals in Latin lookup 17 subtable" ohungarumlaut.smcp
EndChar

StartChar: Rcaron
Encoding: 263 344 242
Width: 610
VWidth: 0
Flags: HW
LayerCount: 2
Fore
SplineSet
296.07 927 m 1
 345.23 927 l 1
 414.44 833.44 l 1
 521.93 927 l 1
 581.47 927 l 1
 438.52 797 l 1
 384.02 797 l 1
 296.07 927 l 1
190.85 363.75 m 1
 429.45 363.75 l 2
 492.37 363.75 555.64 392.78 569.92 518.6 c 0
 585.21 657.86 541.68 673.5 481.76 673.5 c 2
 239.81 673.5 l 1
 190.85 363.75 l 1
75 0 m 1
 191 732 l 1
 491.12 732 l 2
 574.14 732 649.05 688.24 628.42 517.28 c 0
 605.79 326.6 503.04 312.27 458.86 308.93 c 1
 565.85 0 l 1
 503 0 l 1
 400.7 303.57 l 1
 383.21 303.9 184.14 315.26 182.82 316.25 c 1
 132.5 0 l 1
 75 0 l 1
EndSplineSet
Substitution2: "'c2sc' Capitals to Small Capitals in Latin lookup 17 subtable" rcaron.smcp
EndChar

StartChar: Uring
Encoding: 264 366 243
Width: 664
VWidth: 0
Flags: HW
LayerCount: 2
Fore
SplineSet
413.743 899 m 0
 409.345 863.06 435.908 834.11 471.848 834.11 c 0
 507.788 834.11 539.795 863.06 544.193 899 c 0
 548.592 934.94 523.087 964.89 487.146 964.89 c 0
 451.207 964.89 418.142 934.94 413.743 899 c 0
377.303 899 m 0
 383.614 956 434.951 1002 490.951 1002 c 0
 546.951 1002 586.614 956 580.303 899 c 0
 573.992 842 524.044 797 468.044 797 c 0
 412.044 797 370.992 842 377.303 899 c 0
128.32 307.94 m 2
 195.33 732 l 1
 253.5 732 l 1
 186.49 307.94 l 2
 150.88 81.9697 217.07 52.5 342.35 52.5 c 0
 470.7 52.5 550.24 94.6299 583.85 307.94 c 2
 650.86 732 l 1
 709.03 732 l 1
 642.02 307.94 l 2
 609.78 105.54 542.06 -5 338.99 -5 c 0
 184.23 -5 87.71 51.2998 128.32 307.94 c 2
EndSplineSet
Substitution2: "'c2sc' Capitals to Small Capitals in Latin lookup 17 subtable" uring.smcp
EndChar

StartChar: Uhungarumlaut
Encoding: 265 368 244
Width: 664
VWidth: 0
Flags: HW
LayerCount: 2
Fore
SplineSet
505.374 797 m 1
 637.994 930 l 1
 710.224 930 l 1
 556.224 797 l 1
 505.374 797 l 1
369.054 797 m 1
 501.674 930 l 1
 573.904 930 l 1
 419.904 797 l 1
 369.054 797 l 1
128.32 307.94 m 2
 195.33 732 l 1
 253.5 732 l 1
 186.49 307.94 l 2
 150.88 81.9697 217.07 52.5 342.35 52.5 c 0
 470.7 52.5 550.24 94.6299 583.85 307.94 c 2
 650.86 732 l 1
 709.03 732 l 1
 642.02 307.94 l 2
 609.78 105.54 542.06 -5 338.99 -5 c 0
 184.23 -5 87.71 51.2998 128.32 307.94 c 2
EndSplineSet
Substitution2: "'c2sc' Capitals to Small Capitals in Latin lookup 17 subtable" uhungarumlaut.smcp
EndChar

StartChar: Tcommaaccent
Encoding: 266 354 245
Width: 596
VWidth: 0
Flags: HW
LayerCount: 2
Fore
SplineSet
125.6 -185 m 1
 129.95 -157.9 l 1
 178.02 -146.2 l 1
 216.27 -135.52 233.53 -110.1 242.5 -49 c 1
 293 -49 l 1
 277 -150.34 250.99 -185 170 -185 c 2
 125.6 -185 l 1
125.27 674.5 m 1
 134.63 732 l 1
 652.53 732 l 1
 643.17 674.5 l 1
 409.97 674.5 l 1
 303.33 0 l 1
 245.83 0 l 1
 352.47 674.5 l 1
 125.27 674.5 l 1
EndSplineSet
Substitution2: "'c2sc' Capitals to Small Capitals in Latin lookup 17 subtable" tcommaaccent.smcp
EndChar

StartChar: racute
Encoding: 267 341 246
Width: 415
VWidth: 0
Flags: HW
LayerCount: 2
Fore
SplineSet
350.146 597 m 1
 482.766 730 l 1
 554.996 730 l 1
 400.996 597 l 1
 350.146 597 l 1
112.93 0 m 1
 196.93 531 l 1
 235.73 531 l 1
 243.43 464 l 1
 310.43 499 375.39 537 460.03 537 c 0
 489.03 537 519.39 535.33 533.03 529 c 1
 523.67 472.5 l 1
 508.04 476.16 479.67 478.83 450.67 478.83 c 0
 367.7 478.83 319.41 454.2 236.41 417.2 c 1
 170.43 0 l 1
 112.93 0 l 1
EndSplineSet
AlternateSubs2: "'salt' Access All Alternates in Latin lookup 4-1" racute.salt
Substitution2: "'smcp' Lowercase to Small Capitals lookup 16-1" racute.smcp
EndChar

StartChar: abreve
Encoding: 268 259 247
Width: 542
VWidth: 0
Flags: HW
LayerCount: 2
Fore
SplineSet
270.014 716.972 m 1
 305.454 716.972 l 1
 298.464 669.353 330.094 638.082 370.024 638.412 c 0
 418.304 638.072 454.234 663.662 462.564 716.972 c 1
 498.004 716.972 l 1
 486.674 637.622 434.074 602.972 369.694 602.972 c 0
 316.034 602.972 262.364 643.632 270.014 716.972 c 1
143.84 249.35 m 0
 121.51 108.05 152.79 50.1699 241.35 50.1699 c 0
 321.65 50.1699 372.27 72.7998 440.27 101.8 c 1
 494.25 459.92 l 1
 444.48 476.58 371.83 493.82 312.35 484.17 c 0
 230.19 470.85 174.51 440.68 143.84 249.35 c 0
90 278.33 m 0
 127.32 498.96 225.32 531 307.32 541 c 0
 377.32 550 503.09 528 554.09 479 c 1
 484.09 0 l 1
 443.96 0 l 1
 436.92 60 l 1
 407.92 41 320.99 -7 243.99 -7 c 0
 129.99 -7 49.6699 39.6396 90 278.33 c 0
EndSplineSet
Substitution2: "'smcp' Lowercase to Small Capitals lookup 16-1" abreve.smcp
EndChar

StartChar: lacute
Encoding: 269 314 248
Width: 297
VWidth: 0
Flags: HW
LayerCount: 2
Fore
SplineSet
177.79 843 m 1
 310.41 976 l 1
 382.64 976 l 1
 228.64 843 l 1
 177.79 843 l 1
70.9102 189 m 2
 164.91 783 l 1
 222.41 783 l 1
 128.41 189 l 2
 109.44 70.8604 141.96 64.8496 177.66 57.5 c 2
 177.66 57.5 248.69 41.8096 251.67 41.8096 c 1
 244.98 0 l 1
 177.97 0 l 2
 86.5996 0 50.5801 59.0098 70.9102 189 c 2
EndSplineSet
Substitution2: "'smcp' Lowercase to Small Capitals lookup 16-1" lacute.smcp
EndChar

StartChar: cacute
Encoding: 270 263 249
Width: 494
VWidth: 0
Flags: HW
LayerCount: 2
Fore
SplineSet
324.14 597.34 m 1
 456.76 730.34 l 1
 528.99 730.34 l 1
 374.99 597.34 l 1
 324.14 597.34 l 1
90.6699 268.31 m 0
 132.36 514.38 212.03 537.34 308.67 537.34 c 0
 360.67 537.34 456.74 523.33 522.1 510 c 1
 515.75 469.2 l 1
 515.75 469.2 388.31 479.84 299.31 479.84 c 0
 229.75 479.84 182.51 463.26 147.17 262 c 0
 118.19 94.1904 159.43 51.1602 231.36 51.1602 c 0
 323.36 51.1602 458.79 65.46 458.79 65.46 c 1
 452.1 22.6602 l 1
 367.1 -0.339844 311.7 -6.00977 228.7 -5.66992 c 0
 127.69 -5 55.0098 56.75 90.6699 268.31 c 0
EndSplineSet
Substitution2: "'smcp' Lowercase to Small Capitals lookup 16-1" cacute.smcp
EndChar

StartChar: ccaron
Encoding: 271 269 250
Width: 494
VWidth: 0
Flags: HW
LayerCount: 2
Fore
SplineSet
246.908 727.34 m 1
 296.068 727.34 l 1
 365.278 633.78 l 1
 472.768 727.34 l 1
 532.308 727.34 l 1
 389.358 597.34 l 1
 334.858 597.34 l 1
 246.908 727.34 l 1
89.3301 268.31 m 0
 131.02 514.38 210.69 537.34 307.33 537.34 c 0
 359.33 537.34 455.4 523.33 520.76 510 c 1
 514.41 469.2 l 1
 514.41 469.2 386.97 479.84 297.97 479.84 c 0
 228.41 479.84 181.17 463.26 145.83 262 c 0
 116.85 94.1904 158.09 51.1602 230.02 51.1602 c 0
 322.02 51.1602 457.45 65.46 457.45 65.46 c 1
 450.76 22.6602 l 1
 365.76 -0.339844 310.36 -6.00977 227.36 -5.66992 c 0
 126.35 -5 53.6699 56.75 89.3301 268.31 c 0
EndSplineSet
Substitution2: "'smcp' Lowercase to Small Capitals lookup 16-1" ccaron.smcp
EndChar

StartChar: eogonek
Encoding: 272 281 251
Width: 528
VWidth: 0
Flags: HW
LayerCount: 2
Fore
SplineSet
146.19 274.4 m 1
 146.19 274.4 458.24 230.86 481.9 388 c 0
 494.23 467.91 443.63 483.5 349.68 483.5 c 0
 177.81 483.5 168.49 383.22 146.19 274.4 c 1
89.6797 278 m 0
 119.03 437.37 154.72 541 349.72 541 c 0
 475.72 541 554.73 504 539.73 388 c 0
 511.73 169 177.17 218.6 140.17 233.6 c 1
 119.5 100.03 138.5 49.8203 221.38 48.4902 c 1
 297.71 44.1396 388.75 53.7998 466.75 64.7998 c 1
 460.4 22.0254 l 2
 460.265 21.9884 460.13 21.9514 459.995 21.9145 c 0
 358.922 -38.481 352.002 -117.822 451.111 -114.154 c 1
 443.751 -158.975 l 1
 333.611 -173.909 278.07 -59.6059 401.001 8.26765 c 1
 338.999 -3.51571 279.126 -7 216.01 -7 c 0
 88.0098 -7 54.6699 84 89.6797 278 c 0
EndSplineSet
Substitution2: "'smcp' Lowercase to Small Capitals lookup 16-1" eogonek.smcp
EndChar

StartChar: ecaron
Encoding: 273 283 252
Width: 528
VWidth: 0
Flags: HW
LayerCount: 2
Fore
SplineSet
242.648 731 m 1
 291.808 731 l 1
 361.018 637.44 l 1
 468.508 731 l 1
 528.048 731 l 1
 385.098 601 l 1
 330.598 601 l 1
 242.648 731 l 1
144.85 274.4 m 1
 144.85 274.4 456.9 230.86 480.56 388 c 0
 492.89 467.91 442.29 483.5 348.34 483.5 c 0
 176.47 483.5 167.15 383.22 144.85 274.4 c 1
88.3398 278 m 0
 117.69 437.37 153.38 541 348.38 541 c 0
 474.38 541 553.39 504 538.39 388 c 0
 510.39 169 175.83 218.6 138.83 233.6 c 1
 118.16 100.03 137.16 49.8203 220.04 48.4902 c 1
 296.37 44.1396 387.41 53.7998 465.41 64.7998 c 1
 459.06 22 l 1
 375.06 -1 297.67 -7 214.67 -7 c 0
 86.6699 -7 53.3301 84 88.3398 278 c 0
EndSplineSet
Substitution2: "'smcp' Lowercase to Small Capitals lookup 16-1" ecaron.smcp
EndChar

StartChar: dcaron
Encoding: 274 271 253
Width: 614
VWidth: 0
Flags: HW
LayerCount: 2
Fore
SplineSet
649.85 579.66 m 1
 661.84 713.66 l 1
 672.17 780.66 l 1
 730.67 780.66 l 1
 719.67 713.66 l 1
 689.32 579.66 l 1
 649.85 579.66 l 1
146.5 263 m 0
 122.86 120.19 163.05 51.5 235.99 51.5 c 0
 314.99 51.5 380.66 76.82 437.66 100.47 c 1
 493.61 454.18 l 1
 427.61 472.18 379.6 481.5 302.6 481.5 c 0
 234.68 481.5 175.48 441.18 146.5 263 c 0
89 265.64 m 0
 111.67 405.66 159.97 539 310.97 539 c 0
 355.97 539 441.3 525 501.3 499 c 1
 546.97 785 l 1
 602.47 785 l 1
 477.8 0 l 1
 438 0 l 1
 430.97 59 l 1
 401.64 38.35 300.34 -6 232.34 -6 c 0
 90.69 -6 69.33 143.64 89 265.64 c 0
EndSplineSet
AlternateSubs2: "'salt' Access All Alternates in Latin lookup 4-1" dcaron.salt
Substitution2: "'smcp' Lowercase to Small Capitals lookup 16-1" dcaron.smcp
EndChar

StartChar: nacute
Encoding: 275 324 254
Width: 542
VWidth: 0
Flags: HW
LayerCount: 2
Fore
SplineSet
341.975 600 m 1
 474.595 733 l 1
 546.825 733 l 1
 392.825 600 l 1
 341.975 600 l 1
60 0 m 1
 144 531 l 1
 183.46 531 l 1
 191.5 469 l 1
 257.84 504.99 325.1 540 406.1 540 c 0
 512.1 540 557.1 458 543.1 370 c 2
 484.1 0 l 1
 426.6 0 l 1
 485.6 370 l 2
 496.59 440.29 460.28 482.5 396.74 482.5 c 0
 314.1 482.5 266.82 462.17 184.81 424.18 c 1
 117.5 0 l 1
 60 0 l 1
EndSplineSet
AlternateSubs2: "'salt' Access All Alternates in Latin lookup 4-1" nacute.salt
Substitution2: "'smcp' Lowercase to Small Capitals lookup 16-1" nacute.smcp
EndChar

StartChar: ncaron
Encoding: 276 328 255
Width: 542
VWidth: 0
Flags: HW
LayerCount: 2
Fore
SplineSet
248.651 730 m 1
 297.811 730 l 1
 367.021 636.44 l 1
 474.511 730 l 1
 534.051 730 l 1
 391.101 600 l 1
 336.601 600 l 1
 248.651 730 l 1
60 0 m 1
 144 531 l 1
 183.46 531 l 1
 191.5 469 l 1
 257.84 504.99 325.1 540 406.1 540 c 0
 512.1 540 557.1 458 543.1 370 c 2
 484.1 0 l 1
 426.6 0 l 1
 485.6 370 l 2
 496.59 440.29 460.28 482.5 396.74 482.5 c 0
 314.1 482.5 266.82 462.17 184.81 424.18 c 1
 117.5 0 l 1
 60 0 l 1
EndSplineSet
AlternateSubs2: "'salt' Access All Alternates in Latin lookup 4-1" ncaron.salt
Substitution2: "'smcp' Lowercase to Small Capitals lookup 16-1" ncaron.smcp
EndChar

StartChar: ohungarumlaut
Encoding: 277 337 256
Width: 562
VWidth: 0
Flags: HW
LayerCount: 2
Fore
SplineSet
413.102 596 m 1
 545.722 729 l 1
 617.952 729 l 1
 463.952 596 l 1
 413.102 596 l 1
276.782 596 m 1
 409.402 729 l 1
 481.632 729 l 1
 327.632 596 l 1
 276.782 596 l 1
147.16 258 m 0
 116.84 73.1299 175.48 52.5 286.4 52.5 c 0
 398.99 52.5 459.6 74.0898 490.26 258 c 0
 520.91 444.18 472.01 478.5 353.69 478.5 c 0
 239.05 478.5 180.14 457.84 147.16 258 c 0
89.6602 260.31 m 0
 123.66 477.31 191.65 536 360.7 536 c 0
 530.35 536 578.43 442.69 547.76 255.69 c 0
 515.42 59.6797 456.77 -5 284.08 -5 c 0
 110.76 -5 59.6602 70.3096 89.6602 260.31 c 0
EndSplineSet
Substitution2: "'smcp' Lowercase to Small Capitals lookup 16-1" ohungarumlaut.smcp
EndChar

StartChar: rcaron
Encoding: 278 345 257
Width: 415
VWidth: 0
Flags: HW
HStem: 0 21<60 120.663 60 120.663> 478.83 58.17<297.794 472.523> 597 130
VStem: 144 39.48<486.75 531> 200.727 285.4
DStem2: 249.887 727 200.727 727 0.560348 -0.828257<0 116.273> 319.097 633.44 343.177 597 0.739823 0.672802<0 142.471>
LayerCount: 2
Fore
SplineSet
200.727 727 m 1
 249.887 727 l 1
 319.097 633.44 l 1
 426.587 727 l 1
 486.127 727 l 1
 343.177 597 l 1
 288.677 597 l 1
 200.727 727 l 1
60 0 m 1
 144 531 l 1
 182.8 531 l 1
 190.5 464 l 1
 257.5 499 322.46 537 407.1 537 c 0
 436.1 537 466.46 535.33 480.1 529 c 1
 470.74 472.5 l 1
 455.11 476.16 426.74 478.83 397.74 478.83 c 0
 314.77 478.83 266.48 454.2 183.48 417.2 c 1
 117.5 0 l 1
 60 0 l 1
EndSplineSet
AlternateSubs2: "'salt' Access All Alternates in Latin lookup 4-1" rcaron.salt
Substitution2: "'smcp' Lowercase to Small Capitals lookup 16-1" rcaron.smcp
EndChar

StartChar: uring
Encoding: 279 367 258
Width: 541
VWidth: 0
Flags: HW
LayerCount: 2
Fore
SplineSet
307.56 698 m 0
 303.162 662.06 329.725 633.11 365.665 633.11 c 0
 401.605 633.11 433.612 662.06 438.01 698 c 0
 442.409 733.94 416.904 763.89 380.964 763.89 c 0
 345.024 763.89 311.959 733.94 307.56 698 c 0
271.12 698 m 0
 277.431 755 328.768 801 384.768 801 c 0
 440.768 801 480.41 755 474.1 698 c 0
 467.788 641 417.861 596 361.861 596 c 0
 305.861 596 264.809 641 271.12 698 c 0
75.6699 161.33 m 2
 134 531.33 l 1
 191.5 531.33 l 1
 133.17 161.33 l 2
 120.84 84.3398 158.49 48.8301 222.03 48.8301 c 0
 304.67 48.8301 351.95 69.1602 433.96 107.15 c 1
 500.6 531.33 l 1
 558.1 531.33 l 1
 474.1 0.330078 l 1
 434.64 0.330078 l 1
 426.6 62.3301 l 1
 360.26 26.3398 294 -8.66992 213 -8.66992 c 0
 107 -8.66992 61 68.6396 75.6699 161.33 c 2
EndSplineSet
AlternateSubs2: "'salt' Access All Alternates in Latin lookup 4-1" uring.salt
Substitution2: "'smcp' Lowercase to Small Capitals lookup 16-1" uring.smcp
EndChar

StartChar: uhungarumlaut
Encoding: 280 369 259
Width: 541
VWidth: 0
Flags: HW
LayerCount: 2
Fore
SplineSet
399.192 596 m 1
 531.812 729 l 1
 604.042 729 l 1
 450.042 596 l 1
 399.192 596 l 1
262.872 596 m 1
 395.492 729 l 1
 467.722 729 l 1
 313.722 596 l 1
 262.872 596 l 1
75.6699 161.33 m 2
 134 531.33 l 1
 191.5 531.33 l 1
 133.17 161.33 l 2
 120.84 84.3398 158.49 48.8301 222.03 48.8301 c 0
 304.67 48.8301 351.95 69.1602 433.96 107.15 c 1
 500.6 531.33 l 1
 558.1 531.33 l 1
 474.1 0.330078 l 1
 434.64 0.330078 l 1
 426.6 62.3301 l 1
 360.26 26.3398 294 -8.66992 213 -8.66992 c 0
 107 -8.66992 61 68.6396 75.6699 161.33 c 2
EndSplineSet
AlternateSubs2: "'salt' Access All Alternates in Latin lookup 4-1" uhungarumlaut.salt
Substitution2: "'smcp' Lowercase to Small Capitals lookup 16-1" uhungarumlaut.smcp
EndChar

StartChar: tcommaaccent
Encoding: 281 355 260
Width: 366
VWidth: 0
Flags: HW
LayerCount: 2
Fore
SplineSet
58.0361 -182.204 m 1
 62.3867 -155.104 l 1
 110.456 -143.404 l 1
 148.706 -132.724 165.967 -107.304 174.937 -46.2041 c 1
 225.437 -46.2041 l 1
 209.437 -147.544 183.427 -182.204 102.437 -182.204 c 2
 58.0361 -182.204 l 1
92 474.5 m 1
 99.0195 517.3 l 1
 195.41 532 l 1
 233.11 680 l 1
 275.91 680 l 1
 252.91 532 l 1
 414.51 532 l 1
 405.15 474.5 l 1
 243.55 474.5 l 1
 198.58 188.67 l 2
 180.28 70.5303 212.13 64.5195 247.83 57.1699 c 2
 247.83 57.1699 318.86 41.4805 321.84 41.4805 c 1
 315.82 -0.330078 l 1
 249.47 -0.330078 l 2
 156.76 -0.330078 120.75 58.0098 141.08 188.67 c 2
 186.05 474.5 l 1
 92 474.5 l 1
EndSplineSet
AlternateSubs2: "'salt' Access All Alternates in Latin lookup 4-1" tcommaaccent.salt
Substitution2: "'smcp' Lowercase to Small Capitals lookup 16-1" tcommaaccent.smcp
EndChar

StartChar: Lslash
Encoding: 282 321 261
Width: 538
VWidth: 0
Flags: HW
LayerCount: 2
Fore
SplineSet
47.3 333.2 m 1
 54.99 381 l 1
 144.66 417 l 1
 194.66 732 l 1
 251.49 732 l 1
 205.5 441.74 l 1
 347.57 499.1 l 1
 338.88 452.3 l 1
 198.15 394.94 l 1
 155.49 126 l 2
 145.18 60.13 186.1 57.5 223.35 57.5 c 2
 520.12 57.5 l 1
 510.76 0 l 1
 214.98 0 l 2
 148.305 0 82 25.73 97.99 126 c 2
 136.97 369.87 l 1
 47.3 333.2 l 1
EndSplineSet
Substitution2: "'c2sc' Capitals to Small Capitals in Latin lookup 17 subtable" lslash.smcp
EndChar

StartChar: uni00AD
Encoding: 109 173 262
Width: 356
VWidth: 0
Flags: HW
LayerCount: 2
Fore
SplineSet
60 261.25 m 1
 69.36 318.75 l 1
 383.36 318.75 l 1
 374 261.25 l 1
 60 261.25 l 1
EndSplineSet
Substitution2: "'case' Case-Sensitive Forms lookup 1-1" uni00AD.alt
Substitution2: "'c2sc' Capitals to Small Capitals in Latin lookup 17 subtable" uni00AD.smcp
Substitution2: "'smcp' Lowercase to Small Capitals lookup 16-1" uni00AD.smcp
EndChar

StartChar: lslash
Encoding: 283 322 263
Width: 346
VWidth: 0
Flags: HW
LayerCount: 2
Fore
SplineSet
84.16 378.9 m 1
 91.85 426.7 l 1
 171.87 460.69 l 1
 223.2 783 l 1
 282.71 783 l 1
 235.39 487.76 l 1
 385.42 551.4 l 1
 376.73 504.6 l 1
 228.37 439.96 l 1
 186.03 189 l 2
 167.71 78.12 191.66 66.17 235.28 57.5 c 2
 235.28 57.5 306.31 41.81 309.29 41.81 c 1
 303.27 0 l 1
 234.61 0 l 2
 153.59 0 106.53 48.67 128.53 189 c 2
 164.18 413.89 l 1
 84.16 378.9 l 1
EndSplineSet
Substitution2: "'smcp' Lowercase to Small Capitals lookup 16-1" lslash.smcp
EndChar

StartChar: Dcroat
Encoding: 284 272 264
Width: 673
VWidth: 0
Flags: HW
LayerCount: 2
Fore
SplineSet
162.27 59.5098 m 1
 371.83 59.5098 l 2
 518.99 59.5098 597.65 215.33 621.98 364 c 0
 656.62 577.55 602.04 674.5 467.79 674.5 c 2
 259.55 674.5 l 1
 215.59 393.4 l 1
 361.19 393.4 l 1
 354.5 352.6 l 1
 208.9 352.6 l 1
 162.27 59.5098 l 1
86.4004 352.6 m 1
 93.0898 393.4 l 1
 158.09 393.4 l 1
 211.41 731.33 l 2
 211.41 732 437.28 732 477.48 732 c 0
 702.81 732 704.13 491.27 680.15 360.36 c 0
 643.48 154.29 551.47 0 363.79 0 c 2
 95.4102 0 l 1
 151.4 352.6 l 1
 86.4004 352.6 l 1
EndSplineSet
Substitution2: "'c2sc' Capitals to Small Capitals in Latin lookup 17 subtable" dcroat.smcp
EndChar

StartChar: dcroat
Encoding: 285 273 265
Width: 541
VWidth: 0
Flags: HW
LayerCount: 2
Fore
SplineSet
146.83 263 m 0
 123.52 122.5 162.39 51.5 235.33 51.5 c 0
 314.33 51.5 381.32 76.82 438.32 100.47 c 1
 493.94 454.18 l 1
 427.94 472.18 379.27 481.5 302.27 481.5 c 0
 234.35 481.5 175.48 439.86 146.83 263 c 0
89.33 265.97 m 0
 112 405.99 160.63 539 311.63 539 c 0
 356.63 539 441.63 525 501.63 499 c 1
 521.28 624.25 l 1
 395.98 624.25 l 1
 402.67 665.05 l 1
 527.97 665.05 l 1
 547.63 785 l 1
 603.13 785 l 1
 584.14 665.05 l 1
 659.77 665.05 l 1
 653.08 624.25 l 1
 577.45 624.25 l 1
 478.13 0 l 1
 438.32 0 l 1
 431.63 59 l 1
 402.3 38.35 300.67 -6 232.67 -6 c 0
 91.02 -6 69.66 143.97 89.33 265.97 c 0
EndSplineSet
AlternateSubs2: "'salt' Access All Alternates in Latin lookup 4-1" dcroat.salt
Substitution2: "'smcp' Lowercase to Small Capitals lookup 16-1" dcroat.smcp
EndChar

StartChar: questiondown
Encoding: 127 191 266
Width: 538
VWidth: 0
Flags: HW
LayerCount: 2
Fore
SplineSet
345.56 391.31 m 2
 354.56 449.96 l 2
 356.282 462.643 364.91 469.33 376.6 469.33 c 2
 417.08 469.33 l 2
 428.77 469.33 436.125 461.649 434.45 449.96 c 2
 425.45 391.31 l 2
 423.78 378.62 415.43 370.6 402.07 370.6 c 2
 361.26 370.6 l 2
 348.57 370.6 343.89 379.62 345.56 391.31 c 2
26.66 -83.35 m 2
 42.66 17.32 l 2
 65.34 161.73 168.76 193.67 318.25 173.33 c 1
 318.25 175.34 334.92 270.64 334.25 274.66 c 1
 393.08 274.66 l 1
 369.39 125.86 l 1
 330.53 126.53 278.13 127.2 239.27 125.86 c 0
 172.12 124.52 112.14 94.88 99.49 16.66 c 2
 83.49 -84.67 l 2
 68.51 -180.55 103.13 -213.85 212.72 -213.85 c 2
 477.12 -213.85 l 1
 471.1 -252.64 l 1
 375.35 -264.32 299.43 -272.69 195.66 -269.34 c 1
 54.07 -270.33 10 -186.3 26.66 -83.35 c 2
EndSplineSet
Substitution2: "'case' Case-Sensitive Forms lookup 1-1" questiondown.alt
Substitution2: "'smcp' Lowercase to Small Capitals lookup 16-1" questiondown.smcp
EndChar

StartChar: at.alt
Encoding: 286 -1 267
Width: 753
VWidth: 0
Flags: HW
LayerCount: 2
Fore
SplineSet
324.83 344 m 0
 304.52 181.18 341.36 144.5 419.36 143.5 c 0
 474.36 142.5 533.85 154.5 598.85 203.5 c 1
 652.49 552.92 l 1
 589.52 575.85 538.56 577.5 488.97 576.84 c 0
 435.32 576.18 350.14 547.48 324.83 344 c 0
76 99 m 2
 157 611 l 2
 172 703 224 789 362 789 c 2
 737 789 l 2
 848 789 894 724 877 611 c 2
 824 257 l 2
 817.66 213.96 799 93 655 93 c 2
 609.25 93 l 1
 594.5 153 l 1
 563.5 119 495 87 422 86 c 0
 311 84 236 138 270 365 c 0
 304 586 411 631.69 485 634 c 0
 558.64 636.31 661 621 712 572 c 1
 650.36 150.17 l 1
 698.36 150.17 751.19 158.84 766.5 257 c 2
 819.5 611 l 2
 836.16 723.29 787.18 730.83 733.32 730.83 c 2
 353.96 730.83 l 2
 250.71 730.83 222.14 659.16 214.5 611 c 2
 133.5 99 l 2
 121.86 25.83 147.02 -31.5 233.02 -31.5 c 2
 618.36 -31.5 l 1
 612.34 -67.61 l 1
 562.34 -77.61 447 -89 321 -89 c 2
 223 -89 l 2
 119 -89 59 -8 76 99 c 2
EndSplineSet
EndChar

StartChar: questiondown.alt
Encoding: 287 -1 268
Width: 538
VWidth: 0
Flags: HW
LayerCount: 2
Fore
SplineSet
387.55 665.94 m 2
 395.56 717.99 l 2
 397.23 730.68 405.91 737.36 417.6 737.36 c 2
 458.08 737.36 l 2
 469.77 737.36 477.12 729.68 475.45 717.99 c 2
 467.44 665.94 l 2
 465.77 653.25 457.42 645.23 444.06 645.23 c 2
 403.25 645.23 l 2
 390.56 645.23 385.88 654.25 387.55 665.94 c 2
67.66 184.68 m 2
 83.33 284.69 l 2
 105 423.71 209.76 461.7 359.25 441.36 c 1
 359.25 443.37 375.92 538.67 375.25 542.69 c 1
 434.08 542.69 l 1
 410.39 393.89 l 1
 371.53 394.56 319.13 395.23 280.27 393.89 c 0
 213.12 392.55 153.14 362.91 140.49 284.69 c 2
 124.49 183.36 l 2
 110.18 94.18 144.13 54.18 253.72 54.18 c 2
 518.12 54.18 l 1
 512.1 15.39 l 1
 416.35 3.71 340.43 -4.66 236.66 -1.31 c 1
 95.07 -2.3 51 80.08 67.66 184.68 c 2
EndSplineSet
EndChar

StartChar: oe
Encoding: 288 339 269
Width: 940
VWidth: 0
Flags: HW
LayerCount: 2
Fore
SplineSet
547.75 274.4 m 1
 551.05 273.74 859.47 231.85 883.13 388 c 0
 895.46 467.91 844.86 483.5 750.91 483.5 c 0
 587.29 483.5 567.74 391.47 547.75 274.4 c 1
141.8 258 m 0
 111.48 73.13 170.12 52.5 281.04 52.5 c 0
 393.63 52.5 454.24 74.09 484.9 258 c 0
 515.55 444.18 466.65 478.5 348.33 478.5 c 0
 233.69 478.5 174.78 457.84 141.8 258 c 0
84.3 262.32 m 0
 118.3 479.32 186.29 536 355.34 536 c 0
 457.92 536 514.61 501.73 537 433.51 c 1
 571.69 501.08 631.7 540.34 750.95 541 c 0
 876.95 541.66 955.96 504 940.96 388 c 0
 912.96 169 578.4 218.6 541.4 233.6 c 1
 519.08 100.36 541.05 49.15 622.61 48.49 c 0
 698.94 48.16 789.98 53.8 867.98 64.8 c 1
 861.63 22 l 1
 777.63 -1 700.24 -7 617.24 -7 c 0
 543.98 -7 502.99 23.27 487.28 86.13 c 1
 447.27 19.95 384.29 -5 278.72 -5 c 0
 105.4 -5 54.3 72.32 84.3 262.32 c 0
EndSplineSet
Substitution2: "'smcp' Lowercase to Small Capitals lookup 16-1" oe.smcp
EndChar

StartChar: OE
Encoding: 289 338 270
Width: 1059
VWidth: 0
Flags: HW
LayerCount: 2
Fore
SplineSet
165.79 361 m 0
 122.81 90.47 178.13 53.5 337.7 53.5 c 0
 489.27 53.5 565.25 96.49 606.89 361 c 0
 655.21 668.25 572.86 679.5 436.98 679.5 c 0
 299.03 679.5 214.77 672.54 165.79 361 c 0
108.29 363.31 m 0
 162.29 706.31 265.96 737 439.97 737 c 0
 544.22 737 621.54 721.35 654.95 632.89 c 1
 674.33 711.09 726.62 735 792.89 732 c 2
 1090.72 717.98 l 1
 1084.03 674.5 l 1
 783.53 674.5 l 2
 730.91 674.5 710.03 644.84 703.39 602 c 2
 670.74 393.09 l 1
 998.07 384.74 l 1
 991.38 340.59 l 1
 660.71 332.24 l 1
 627.39 123 l 2
 617.75 57.13 658.34 54.5 695.92 54.5 c 2
 986.42 54.5 l 1
 979.06 11.69 l 1
 686.56 -3 l 2
 629.29 -6 573.68 17.31 571.56 88.78 c 1
 515.23 9.65 437.6 -4 334.38 -4 c 0
 166.44 -4 55.29 30.31 108.29 363.31 c 0
EndSplineSet
EndChar

StartChar: Ydieresis
Encoding: 290 376 271
Width: 629
VWidth: 0
Flags: HW
LayerCount: 2
Fore
SplineSet
500.583 833.76 m 0
 503.923 855.82 524.983 872.87 547.043 872.87 c 0
 569.104 872.87 583.143 855.82 579.803 833.76 c 0
 576.463 811.7 556.403 793.65 534.343 793.65 c 0
 512.283 793.65 497.243 811.7 500.583 833.76 c 0
245.583 833.76 m 0
 248.923 855.82 269.983 872.87 292.043 872.87 c 0
 314.103 872.87 328.143 855.82 324.803 833.76 c 0
 321.463 811.7 301.403 793.65 279.343 793.65 c 0
 257.283 793.65 242.243 811.7 245.583 833.76 c 0
121.19 732 m 1
 182.36 732 l 1
 319.6 331.53 l 1
 602.76 732 l 1
 671.29 732 l 1
 339.99 260 l 1
 298.99 0 l 1
 241.49 0 l 1
 282.49 260 l 1
 121.19 732 l 1
EndSplineSet
Substitution2: "'c2sc' Capitals to Small Capitals in Latin lookup 17 subtable" ydieresis.smcp
EndChar

StartChar: guillemotright
Encoding: 123 187 272
Width: 554
VWidth: 0
Flags: HW
LayerCount: 2
Fore
SplineSet
272.03 187.79 m 1
 469.22 356 l 1
 329.31 520.89 l 1
 371.43 557.33 l 1
 547.45 350.65 l 1
 307.8 145.67 l 1
 272.03 187.79 l 1
81 187.79 m 1
 277.86 356.33 l 1
 138.28 520.56 l 1
 180.4 557.33 l 1
 356.42 350.65 l 1
 116.77 145.67 l 1
 81 187.79 l 1
EndSplineSet
EndChar

StartChar: cent
Encoding: 98 162 273
Width: 485
VWidth: 0
Flags: HW
LayerCount: 2
Fore
SplineSet
80 268.31 m 0
 122.69 521.04 203.01 540.69 313.99 537.34 c 1
 329 628.72 l 1
 375.14 628.72 l 1
 359.46 533.66 l 1
 408.79 528.65 467.78 519.32 512.43 510 c 1
 505.74 469.2 l 1
 505.74 469.2 377.97 479.84 288.97 479.84 c 0
 219.41 479.84 172.5 463.26 137.16 262 c 0
 108.18 94.19 149.09 51.16 221.02 51.16 c 0
 313.02 51.16 448.78 65.46 448.78 65.46 c 1
 441.76 22.66 l 1
 377.13 4.67 331.1 -2 274.46 -4.67 c 1
 261.46 -91.38 l 1
 215.32 -91.38 l 1
 227.99 -5.67 l 1
 117.68 -5.66 43.01 51.43 80 268.31 c 0
EndSplineSet
EndChar

StartChar: sterling
Encoding: 99 163 274
Width: 583
VWidth: 0
Flags: HW
LayerCount: 2
Fore
SplineSet
50 0 m 1
 56.69 44.15 l 1
 131.36 57.5 l 1
 174.99 336.6 l 1
 102.99 336.6 l 1
 108.67 371.37 l 1
 183.01 385.4 l 1
 202 505 l 2
 236.67 723.69 341.03 732 466 732 c 0
 523 732 649.76 718.31 649.76 718.31 c 1
 642.74 675.5 l 1
 463.33 675.5 l 2
 331.34 675.5 283.14 653.49 259.5 505 c 2
 240.51 385.4 l 1
 515.77 371.37 l 1
 510.09 336.6 l 1
 232.49 336.6 l 1
 188.86 57.5 l 1
 544.46 57.5 l 1
 535.1 0 l 1
 50 0 l 1
EndSplineSet
Substitution2: "'smcp' Lowercase to Small Capitals lookup 16-1" sterling.smcp
EndChar

StartChar: yen
Encoding: 101 165 275
Width: 595
VWidth: 0
Flags: HW
LayerCount: 2
Fore
SplineSet
106 167.85 m 1
 112.69 212 l 1
 287.92 212 l 1
 297.56 276.85 l 1
 123 276.85 l 1
 130.36 321 l 1
 301.24 321 l 1
 138.64 732 l 1
 199.81 732 l 1
 340.02 381.51 l 1
 618.88 732 l 1
 688.74 732 l 1
 363.42 321 l 1
 557.36 321 l 1
 550 276.85 l 1
 355.06 276.85 l 1
 345.42 212 l 1
 539.69 212 l 1
 533 167.85 l 1
 340.07 167.85 l 1
 316.44 0 l 1
 258.94 0 l 1
 282.57 167.85 l 1
 106 167.85 l 1
EndSplineSet
Substitution2: "'smcp' Lowercase to Small Capitals lookup 16-1" yen.smcp
EndChar

StartChar: section
Encoding: 103 167 276
Width: 553
VWidth: 0
Flags: HW
LayerCount: 2
Fore
SplineSet
168.16 353 m 2
 159.51 297.77 180.48 295.75 231.34 295.75 c 2
 400.44 295.75 l 2
 472.31 295.75 477.95 312.14 484.26 354 c 0
 485.26 355 494.26 416 494.26 416 c 2
 501.58 460.9 496.97 478.25 429.75 478.25 c 2
 260.65 478.25 l 2
 207.42 478.25 187.48 473.56 177.83 414 c 2
 168.16 353 l 2
93 8.03 m 1
 99.69 49.5 l 1
 355.79 49.5 l 2
 402.33 49.5 437.28 58.78 445.93 110 c 2
 457.26 183 l 2
 464.92 230.28 450.89 238.25 391.75 238.25 c 2
 226.67 238.25 l 2
 150.02 238.25 96.67 263.37 111.33 354.65 c 2
 121 417.64 l 2
 128.67 466.65 143.99 497.99 183.63 508 c 1
 147.99 526.05 142.66 555 148.33 590 c 2
 159.33 660.66 l 2
 174.66 756.65 238.63 784 308.66 784 c 0
 357.66 784 533.09 771.97 570.09 767.97 c 1
 564.07 726.5 l 1
 299.97 726.5 l 2
 250.13 726.5 224.49 705.61 216.83 660 c 2
 205.83 590 l 2
 198.51 543.75 228.82 534.75 269.34 534.75 c 2
 438.44 534.75 l 2
 532.68 534.75 563.42 486.35 551.76 413.69 c 2
 541.76 351.69 l 2
 537.1 319.73 527.1 270.34 483.46 265 c 1
 522.42 252.32 519.76 216 514.76 183 c 2
 503.43 110 l 2
 486.77 6.04 436.56 -8 346.43 -8 c 0
 297.43 -8 130 4.03 93 8.03 c 1
EndSplineSet
EndChar

StartChar: g.salt
Encoding: 291 -1 277
Width: 516
VWidth: 0
Flags: HW
LayerCount: 2
Fore
SplineSet
157.46 344 m 0
 148.8 291.7 162.73 214.75 239.73 214.75 c 2
 352.94 214.75 l 2
 443.12 214.75 471.46 306 477.46 344 c 0
 488.77 414.51 465.59 475.5 391.59 475.5 c 2
 288.94 475.5 l 2
 206.94 475.5 170.75 420.09 157.46 344 c 0
81.46 -116 m 2
 64.8 -196.63 125.07 -211.83 170.64 -211.83 c 2
 318.66 -211.83 l 2
 394.49 -211.83 417.14 -170.26 425.46 -116 c 2
 430.13 -88 l 2
 438.12 -36.38 404.8 -11.07 338.95 -1.75 c 2
 111.78 29.58 l 1
 81.46 -116 l 2
23.29 -115.34 m 2
 68.29 114 l 1
 74.61 158.25 101.56 196.37 147.93 198.02 c 1
 107.27 224.7 91.96 291 99.96 344 c 0
 119.96 474 191.96 534.67 298.96 533 c 2
 401.65 531.33 l 2
 469.98 531 552.96 485 534.96 344 c 0
 524.96 267 480.63 156.58 340.28 156.58 c 2
 193.28 156.58 l 2
 158.47 156.58 134.46 153 129.46 121 c 0
 125.46 95 134.23 81.05 162.16 77.39 c 2
 364.31 50.74 l 2
 432.31 41.74 500.96 -4 487.96 -83 c 1
 482.96 -116 l 2
 472.29 -184.68 455.3 -270 308.3 -270 c 2
 172.27 -270 l 2
 70.27 -270 4.29 -211.34 23.29 -115.34 c 2
EndSplineSet
EndChar

StartChar: guillemotleft
Encoding: 107 171 278
Width: 557
VWidth: 0
Flags: HW
LayerCount: 2
Fore
SplineSet
294.35 354 m 1
 532.02 557.33 l 1
 567.79 515.54 l 1
 372.58 348.98 l 1
 514.47 182.11 l 1
 472.02 145.67 l 1
 294.35 354 l 1
106 354 m 1
 343.67 557.33 l 1
 379.44 515.54 l 1
 184.89 348.65 l 1
 325.46 182.44 l 1
 283.67 145.67 l 1
 106 354 l 1
EndSplineSet
EndChar

StartChar: paragraph
Encoding: 118 182 279
Width: 573
VWidth: 0
Flags: HW
LayerCount: 2
Fore
SplineSet
176.17 501 m 2
 163.19 418.13 233.03 412.5 258.35 412.5 c 2
 314.36 412.5 l 1
 356.31 676.51 l 1
 302.31 676.51 l 2
 230.71 676.51 197.49 639.91 190.17 590.66 c 2
 176.17 501 l 2
118 501.31 m 2
 132.33 594.31 l 2
 149.34 702.04 234.67 732 311.67 732 c 2
 666.77 732 l 1
 657.41 672.5 l 1
 588.41 672.5 l 1
 481.77 0 l 1
 424.27 0 l 1
 530.91 674.5 l 1
 413.81 674.5 l 1
 264.17 -270 l 1
 206.67 -270 l 1
 308.34 369.69 l 1
 301.68 366.7 275.31 355.33 248.99 355.66 c 0
 141.97 355.66 107.34 434.03 118 501.31 c 2
EndSplineSet
EndChar

StartChar: macron
Encoding: 111 175 280
Width: 392
VWidth: 0
Flags: HW
LayerCount: 2
Fore
SplineSet
134 531 m 1
 141.36 578.16 l 1
 420.16 578.16 l 1
 412.8 531 l 1
 134 531 l 1
EndSplineSet
Substitution2: "'smcp' Lowercase to Small Capitals lookup 16-1" macron.smcp
EndChar

StartChar: copyright
Encoding: 105 169 281
Width: 825
VWidth: 0
Flags: HW
LayerCount: 2
Fore
SplineSet
286 365.99 m 0
 314.01 537.71 383.33 583 464.33 583 c 0
 505.33 583 584.66 571.31 638.66 561.31 c 1
 632.97 523.5 l 1
 570.97 532.5 489.97 535.5 456.97 535.5 c 0
 395.05 535.5 352.14 481.52 332.83 362 c 0
 317.52 263.81 326.45 194.5 402.69 194.5 c 0
 474.69 194.5 549.4 203.52 589.69 210.5 c 1
 583.67 172.69 l 1
 516.67 154.69 462.33 147 395.33 147 c 0
 316.33 147 260.01 204.4 286 365.99 c 0
157.83 368 m 0
 133.51 220.38 164.46 47.5 292.32 47.5 c 2
 555.35 47.5 l 2
 644.9 47.5 735.13 155.09 768.78 368 c 0
 791.41 511.43 795.9 684.5 658.3 684.5 c 2
 392.26 684.5 l 2
 296.67 684.5 198.47 619.57 157.83 368 c 0
110.33 368.99 m 0
 137 542.04 207.62 732 399.62 732 c 2
 658.3 732 l 2
 851.62 732 836.28 490.68 816.28 366.68 c 0
 785.28 173.68 700.33 0 549.33 0 c 2
 290.65 0 l 2
 101.29 0 92.68 253.08 110.33 368.99 c 0
EndSplineSet
EndChar

StartChar: registered
Encoding: 110 174 282
Width: 825
VWidth: 0
Flags: HW
LayerCount: 2
Fore
SplineSet
366.16 372.4 m 1
 501.66 372.4 l 2
 558.94 372.4 580.86 385.73 591.18 451.66 c 0
 602.5 522.25 565.83 532.5 527.29 532.5 c 2
 391.79 532.5 l 1
 366.16 372.4 l 1
283.98 153 m 1
 351.65 580 l 1
 528.65 580 l 2
 585.27 580 653 556 638.68 447.32 c 0
 623.36 325.62 553.39 334.93 518.72 329.25 c 1
 588.33 153 l 1
 535.14 153 l 1
 465.53 330.26 l 1
 361.14 339.95 l 1
 331.48 153 l 1
 283.98 153 l 1
157.83 368 m 0
 133.51 220.38 163.8 47.5 291.66 47.5 c 2
 555.35 47.5 l 2
 644.9 47.5 735.13 155.09 768.78 368 c 0
 791.41 511.43 796.23 684.5 658.63 684.5 c 2
 392.26 684.5 l 2
 296.67 684.5 198.47 619.57 157.83 368 c 0
110.33 368.66 m 0
 137 541.71 207.62 732 399.62 732 c 2
 658.3 732 l 2
 851.62 732 836.28 490.68 816.28 366.68 c 0
 785.28 173.68 700.33 0 549.33 0 c 2
 290.65 0 l 2
 101.29 0 92.68 252.75 110.33 368.66 c 0
EndSplineSet
EndChar

StartChar: plusminus
Encoding: 113 177 283
Width: 521
VWidth: 0
Flags: HW
LayerCount: 2
Fore
SplineSet
115.35 394.92 m 1
 124.04 452.42 l 1
 297.67 452.42 l 1
 325.33 626.72 l 1
 382.83 626.72 l 1
 355.17 452.42 l 1
 530.14 452.42 l 1
 521.45 394.92 l 1
 346.48 394.92 l 1
 318.48 220.62 l 1
 260.98 220.62 l 1
 288.98 394.92 l 1
 115.35 394.92 l 1
69 103.5 m 1
 78.36 161 l 1
 484.46 161 l 1
 475.1 103.5 l 1
 69 103.5 l 1
EndSplineSet
EndChar

StartChar: logicalnot
Encoding: 108 172 284
Width: 529
VWidth: 0
Flags: HW
LayerCount: 2
Fore
SplineSet
90 264.25 m 1
 99.36 321.75 l 1
 516.46 321.75 l 1
 507.46 264.75 499.78 216 490.78 159 c 1
 433.28 159 l 1
 449.6 264.25 l 1
 90 264.25 l 1
EndSplineSet
EndChar

